<svg width="100" height="100" viewBox="0 0 100 100" fill="none" xmlns="http://www.w3.org/2000/svg">
<rect y="50" width="70.7107" height="70.7107" rx="8" transform="rotate(-45 0 50)" fill="#5F73FA"/>
<g clip-path="url(#clip0_204_741)">
<path d="M49.4323 44.0801C45.9485 44.0801 43.1133 46.9143 43.1133 50.3981C43.1133 53.882 45.9485 56.7162 49.4323 56.7162C52.9161 56.7162 55.7504 53.882 55.7504 50.3981C55.7504 46.9143 52.9161 44.0801 49.4323 44.0801ZM49.4323 53.9082C47.4966 53.9082 45.9213 52.3338 45.9213 50.3981C45.9213 48.4625 47.4966 46.8881 49.4323 46.8881C51.367 46.8881 52.9423 48.4625 52.9423 50.3981C52.9423 52.3337 51.367 53.9082 49.4323 53.9082Z" fill="white"/>
<path d="M62.4794 43.1571C60.1178 43.1571 58.1962 45.0787 58.1962 47.4413V50.2681C58.1962 55.0586 54.2996 58.9552 49.51 58.9552C44.7195 58.9552 40.822 55.0586 40.822 50.2681V47.4413C40.822 45.0788 38.9003 43.1571 36.5379 43.1571C34.1763 43.1571 32.2556 45.0787 32.2556 47.4413V50.2156C32.2556 55.5341 34.7286 60.5689 38.9078 63.829V72.2531C38.9078 73.0281 39.5359 73.6571 40.3119 73.6571H58.5444C59.3194 73.6571 59.9484 73.0281 59.9484 72.2531V63.9104C64.2288 60.6138 66.7626 55.4854 66.7626 50.0444V47.4413C66.7626 45.0788 64.8419 43.1571 62.4794 43.1571ZM57.1404 63.2009V70.849H41.7159V63.1251C41.7159 62.6721 41.4959 62.2462 41.1271 61.9822C37.3297 59.2725 35.0636 54.8742 35.0636 50.2156V47.4413C35.0636 46.627 35.7245 45.9651 36.5379 45.9651C37.3522 45.9651 38.0139 46.6269 38.0139 47.4413V50.2681C38.0139 56.6067 43.1704 61.7632 49.51 61.7632C55.8477 61.7632 61.0042 56.6067 61.0042 50.2681V47.4413C61.0042 46.627 61.666 45.9651 62.4803 45.9651C63.2937 45.9651 63.9545 46.6269 63.9545 47.4413V50.0444C63.9545 54.8208 61.6295 59.3099 57.7357 62.0534C57.3622 62.3164 57.1404 62.7441 57.1404 63.2009Z" fill="white"/>
<path d="M43.9772 37.059L43.761 41.2224C43.7088 42.2473 44.7371 42.976 45.6817 42.5992L49.5091 41.0782L53.3364 42.5992C54.2826 42.9746 55.3093 42.2481 55.2571 41.2224L55.0409 37.059L57.6243 33.9205C58.2674 33.142 57.8985 31.9515 56.9204 31.6769L52.9283 30.5546L50.6809 27.1466C50.1278 26.3061 48.8898 26.3068 48.3372 27.1466L46.0898 30.5546L42.0977 31.6769C41.118 31.952 40.7518 33.1434 41.3938 33.9205L43.9772 37.059ZM48.1462 32.5381L49.5091 30.4705L50.8719 32.5381C51.0582 32.8199 51.339 33.0258 51.6647 33.1166L54.0889 33.798L52.5267 35.6953C52.304 35.9658 52.1907 36.3093 52.2085 36.6603L52.3395 39.1819L50.0276 38.2628C49.6962 38.1305 49.3221 38.1304 48.9905 38.2628L46.6786 39.1819L46.8096 36.6603C46.8274 36.3093 46.7141 35.9658 46.4914 35.6953L44.9292 33.798L47.3534 33.1166C47.6792 33.0258 47.96 32.8198 48.1462 32.5381Z" fill="white"/>
<path d="M38.7146 40.1295C39.2629 40.6779 40.1519 40.6779 40.7002 40.1295C41.2485 39.5813 41.2485 38.6923 40.7002 38.144L35.4202 32.864C34.872 32.3158 33.983 32.3158 33.4347 32.864C32.8864 33.4123 32.8864 34.3013 33.4347 34.8496L38.7146 40.1295Z" fill="white"/>
<path d="M60.6336 40.1295L65.9135 34.8496C66.4619 34.3014 66.4619 33.4124 65.9135 32.864C65.3653 32.3158 64.4763 32.3158 63.928 32.864L58.6481 38.144C58.0997 38.6922 58.0997 39.5812 58.6481 40.1295C59.1964 40.6779 60.0853 40.6778 60.6336 40.1295Z" fill="white"/>
</g>
<defs>
<clipPath id="clip0_204_741">
<rect width="47.1405" height="47.1405" fill="white" transform="translate(25.9388 26.5165)"/>
</clipPath>
</defs>
</svg>
