<svg width="100" height="100" viewBox="0 0 100 100" fill="none" xmlns="http://www.w3.org/2000/svg">
<rect y="50" width="70.7107" height="70.7107" rx="8" transform="rotate(-45 0 50)" fill="#5F73FA"/>
<g clip-path="url(#clip0_204_762)">
<path d="M68.9361 40.4186H66.0882C65.1556 38.1999 63.7662 36.1541 62.0064 34.4483C59.2404 31.7671 55.6593 30.02 51.923 29.5289C45.7316 28.7151 39.6633 31.0864 35.6907 35.8721C34.5507 37.2455 33.623 38.7825 32.9382 40.4186H30.082C27.7975 40.4186 25.9388 42.2772 25.9388 44.5618V50.086C25.9388 52.3706 27.7975 54.2292 30.082 54.2292H35.7398L35.1482 52.4191C33.424 47.1441 34.3965 41.756 37.8161 37.6363C41.1787 33.5851 46.318 31.5782 51.563 32.2675C58.1327 33.131 63.4523 38.2905 64.499 44.8145C65.2133 49.2662 63.9672 53.7647 61.0801 57.1566C58.1864 60.5562 53.9767 62.5095 49.5303 62.5157C47.2341 62.5188 45.366 64.3775 45.366 66.6589C45.366 68.9434 47.2246 70.8021 49.5092 70.8021C51.7937 70.8021 53.6524 68.9434 53.6524 66.6589V64.793C57.3314 63.9193 60.6761 61.8928 63.1836 58.9468C64.4015 57.516 65.3713 55.935 66.0824 54.2292H68.9361C71.2207 54.2292 73.0793 52.3705 73.0793 50.0859V44.5617C73.0793 42.2772 71.2207 40.4186 68.9361 40.4186ZM32.0215 51.4671H30.082C29.3205 51.4671 28.701 50.8476 28.701 50.086V44.5618C28.701 43.8002 29.3205 43.1807 30.082 43.1807H32.038C31.9888 43.3877 31.9434 43.5958 31.9017 43.8044C31.3977 46.3301 31.4386 48.9002 32.0215 51.4671ZM50.8901 66.6589C50.8901 67.4204 50.2706 68.0399 49.5091 68.0399C48.7475 68.0399 48.128 67.4204 48.128 66.6589C48.128 65.8983 48.7588 65.2788 49.534 65.2778C49.9883 65.2771 50.4409 65.2593 50.8901 65.2248V66.6589ZM70.3172 50.086C70.3172 50.8476 69.6976 51.4671 68.9361 51.4671H66.9792C67.5276 49.1607 67.6117 46.78 67.2262 44.3769C67.1619 43.9756 67.082 43.5767 66.9887 43.1807H68.9361C69.6976 43.1807 70.3172 43.8002 70.3172 44.5618V50.086Z" fill="white"/>
<path d="M42.6038 45.9429H45.3659V48.705H42.6038V45.9429Z" fill="white"/>
<path d="M48.1281 45.9429H50.8902V48.705H48.1281V45.9429Z" fill="white"/>
<path d="M53.6522 45.9429H56.4144V48.705H53.6522V45.9429Z" fill="white"/>
<path d="M37.0795 56.9914V59.7535H49.5091C56.3628 59.7535 61.9387 54.1776 61.9387 47.3239C61.9387 40.4702 56.3628 34.8943 49.5091 34.8943C42.6554 34.8943 37.0795 40.4702 37.0795 47.3239C37.0795 50.1172 38.0176 52.8181 39.7338 55.0016C39.4009 56.1657 38.3378 56.9914 37.0795 56.9914ZM49.5091 37.6564C54.8397 37.6564 59.1766 41.9933 59.1766 47.3239C59.1766 52.6545 54.8397 56.9914 49.5091 56.9914H41.865C42.2608 56.3065 42.5072 55.5399 42.5805 54.7382L42.6348 54.1469L42.2428 53.7008C40.6945 51.9379 39.8416 49.6732 39.8416 47.3239C39.8416 41.9933 44.1784 37.6564 49.5091 37.6564Z" fill="white"/>
</g>
<defs>
<clipPath id="clip0_204_762">
<rect width="47.1405" height="47.1405" fill="white" transform="translate(25.9388 26.5165)"/>
</clipPath>
</defs>
</svg>
