<svg width="100" height="100" viewBox="0 0 100 100" fill="none" xmlns="http://www.w3.org/2000/svg">
<rect y="50" width="70.7107" height="70.7107" rx="8" transform="rotate(-45 0 50)" fill="#5F73FA"/>
<path d="M49.5091 29.3678L31.8314 35.797V50.0867C31.8314 66.2337 48.9854 70.6258 49.1581 70.6689L49.5091 70.7538L49.8601 70.6689C50.0327 70.6258 67.1868 66.2337 67.1868 50.0867V35.797L49.5091 29.3678ZM64.2405 50.0867C64.2405 62.8716 51.8533 67.0379 49.5141 67.7097C47.2613 67.0422 34.7777 62.7623 34.7777 50.0867V37.8599L49.5091 32.504L64.2405 37.8599V50.0867Z" fill="white"/>
<path d="M44.2056 42.1312V45.7652H41.6521V58.9256H57.3661V45.7652H54.8125V42.1312C54.8125 39.208 52.4331 36.8285 49.5091 36.8285C46.5851 36.8285 44.2056 39.208 44.2056 42.1312ZM54.4198 55.9793H44.5984V48.7114H54.4198V55.9793ZM51.8662 42.1312V45.7652H47.1519V42.1312C47.1519 40.8321 48.2093 39.7748 49.5091 39.7748C50.8089 39.7748 51.8662 40.8321 51.8662 42.1312Z" fill="white"/>
<path d="M49.5091 53.6222C50.2142 53.6222 50.7858 53.0506 50.7858 52.3455C50.7858 51.6404 50.2142 51.0687 49.5091 51.0687C48.804 51.0687 48.2324 51.6404 48.2324 52.3455C48.2324 53.0506 48.804 53.6222 49.5091 53.6222Z" fill="white"/>
</svg>
