<svg width="100" height="100" viewBox="0 0 100 100" fill="none" xmlns="http://www.w3.org/2000/svg">
<rect y="50" width="70.7107" height="70.7107" rx="8" transform="rotate(-45 0 50)" fill="#5F73FA"/>
<g clip-path="url(#clip0_204_797)">
<path d="M30.3217 68.7212C30.6916 69.1253 31.2654 69.2725 31.7844 69.0964L37.6968 67.0889L40.1686 72.8226C40.386 73.327 40.8818 73.6547 41.4312 73.6569H41.4369C41.984 73.6569 42.4797 73.3339 42.7006 72.833L47.308 62.3818C48.0295 62.4704 48.7638 62.5169 49.5089 62.5169C50.2539 62.5169 50.9882 62.4705 51.7097 62.3818L56.3172 72.833C56.5379 73.3339 57.0338 73.657 57.5809 73.6569H57.5866C58.136 73.6547 58.6318 73.327 58.8492 72.8226L61.3211 67.0889L67.2335 69.0964C67.752 69.2725 68.3263 69.1254 68.6962 68.7212C69.0662 68.3171 69.1624 67.7324 68.9411 67.2311L63.755 55.476C66.0791 52.4493 67.4631 48.6649 67.4631 44.5627C67.4631 34.612 59.4089 26.5165 49.5089 26.5165C39.609 26.5165 31.5548 34.612 31.5548 44.5627C31.5548 48.6649 32.9388 52.4494 35.2629 55.476L30.0768 67.2311C29.8556 67.7324 29.9517 68.3171 30.3217 68.7212ZM65.1452 65.4702L61.0017 64.0633C60.3198 63.8316 59.5745 64.1631 59.2893 64.8243L57.5668 68.8201L54.4792 61.8164C57.2173 61.0264 59.688 59.6005 61.7216 57.7102L65.1452 65.4702ZM34.317 44.5627C34.317 36.135 41.1321 29.2787 49.5089 29.2787C57.8858 29.2787 64.7009 36.135 64.7009 44.5627C64.7009 52.9395 57.8858 59.7546 49.5089 59.7546C41.1321 59.7546 34.317 52.9395 34.317 44.5627ZM37.2962 57.7102C39.3299 59.6005 41.8005 61.0265 44.5387 61.8164L41.451 68.82L39.7285 64.8242C39.4434 64.1629 38.6981 63.8316 38.0163 64.0632L33.8727 65.4701L37.2962 57.7102Z" fill="white"/>
<path d="M44.0846 46.3252L43.277 51.0331C43.1882 51.5512 43.4011 52.0749 43.8264 52.3839C44.251 52.6924 44.8148 52.7341 45.2809 52.4891L49.5089 50.2663L53.7369 52.4891C54.2023 52.7337 54.7663 52.6929 55.1914 52.3839C55.6167 52.0749 55.8297 51.5513 55.7409 51.0331L54.9334 46.3252L58.3539 42.991C58.7303 42.6241 58.8658 42.0752 58.7033 41.5753C58.5408 41.0753 58.1087 40.7109 57.5885 40.6353L52.8614 39.9484L50.7474 35.6651C50.5147 35.1936 50.0346 34.8951 49.5089 34.8951C48.9833 34.8951 48.5031 35.1935 48.2705 35.6651L46.1565 39.9484L41.4294 40.6353C40.9092 40.7109 40.4769 41.0753 40.3145 41.5753C40.152 42.0752 40.2875 42.6241 40.6639 42.9911L44.0846 46.3252ZM47.2722 42.5774C47.7221 42.512 48.1109 42.2295 48.3121 41.8218L49.5089 39.3967L50.7058 41.8218C50.907 42.2295 51.2959 42.512 51.7457 42.5774L54.4219 42.9663L52.4854 44.854C52.1599 45.1713 52.0114 45.6284 52.0883 46.0764L52.5454 48.7419L50.1516 47.4835C49.7493 47.272 49.2686 47.2719 48.8663 47.4835L46.4725 48.7419L46.9296 46.0764C47.0064 45.6284 46.8579 45.1713 46.5324 44.854L44.5958 42.9663L47.2722 42.5774Z" fill="white"/>
</g>
<defs>
<clipPath id="clip0_204_797">
<rect width="47.1405" height="47.1405" fill="white" transform="translate(25.9387 26.5165)"/>
</clipPath>
</defs>
</svg>
