<svg width="754" height="464" viewBox="0 0 754 464" fill="none" xmlns="http://www.w3.org/2000/svg">
<rect width="754" height="464" rx="32" fill="#5F73FA" fill-opacity="0.25"/>
<path d="M32 340C32 335.582 35.5817 332 40 332H83C87.4183 332 91 335.582 91 340V401H32V340Z" fill="url(#paint0_linear_134_6477)"/>
<path d="M53.9736 366.209C52.9223 366.209 52.0103 366.032 51.2376 365.677C50.4776 365.322 49.9013 364.854 49.5086 364.271C49.116 363.688 48.907 363.061 48.8816 362.39V362.352C48.8816 362.251 48.9196 362.168 48.9956 362.105C49.0843 362.029 49.1793 361.991 49.2806 361.991H51.0856C51.377 361.991 51.5606 362.118 51.6366 362.371C51.814 362.928 52.1053 363.34 52.5106 363.606C52.9286 363.872 53.4163 364.005 53.9736 364.005C54.683 364.005 55.2656 363.79 55.7216 363.359C56.1903 362.928 56.4246 362.333 56.4246 361.573C56.4246 360.889 56.1903 360.338 55.7216 359.92C55.2656 359.489 54.683 359.274 53.9736 359.274C53.5936 359.274 53.2833 359.325 53.0426 359.426C52.802 359.527 52.5676 359.667 52.3396 359.844C52.3143 359.857 52.2573 359.895 52.1686 359.958C52.08 360.021 51.9976 360.066 51.9216 360.091C51.8583 360.116 51.7886 360.129 51.7126 360.129H49.9266C49.8126 360.129 49.7113 360.091 49.6226 360.015C49.5466 359.926 49.5086 359.825 49.5086 359.711L50.1546 353.232C50.1673 353.067 50.2243 352.941 50.3256 352.852C50.4396 352.751 50.5726 352.7 50.7246 352.7H57.8686C58.008 352.7 58.1156 352.744 58.1916 352.833C58.2803 352.909 58.3246 353.017 58.3246 353.156V354.448C58.3246 354.575 58.2803 354.682 58.1916 354.771C58.1156 354.86 58.008 354.904 57.8686 354.904H52.3776L52.0736 357.982C52.365 357.792 52.7006 357.64 53.0806 357.526C53.4606 357.399 53.9546 357.336 54.5626 357.336C55.386 357.336 56.146 357.513 56.8426 357.868C57.552 358.21 58.1156 358.71 58.5336 359.369C58.9643 360.015 59.1796 360.769 59.1796 361.63C59.1796 362.555 58.9643 363.365 58.5336 364.062C58.103 364.746 57.495 365.278 56.7096 365.658C55.9243 366.025 55.0123 366.209 53.9736 366.209ZM63.5894 359.388C62.7534 359.388 62.0821 359.166 61.5754 358.723C61.0814 358.28 60.8091 357.678 60.7584 356.918C60.7457 356.703 60.7394 356.418 60.7394 356.063C60.7394 355.683 60.7457 355.379 60.7584 355.151C60.8091 354.366 61.0751 353.745 61.5564 353.289C62.0377 352.833 62.7154 352.605 63.5894 352.605C64.4634 352.605 65.1411 352.833 65.6224 353.289C66.1164 353.745 66.3887 354.366 66.4394 355.151C66.4647 355.607 66.4774 355.911 66.4774 356.063C66.4774 356.202 66.4647 356.487 66.4394 356.918C66.3887 357.678 66.1101 358.28 65.6034 358.723C65.1094 359.166 64.4381 359.388 63.5894 359.388ZM62.0504 366C61.9237 366 61.8224 365.968 61.7464 365.905C61.6704 365.829 61.6324 365.734 61.6324 365.62C61.6324 365.544 61.6577 365.474 61.7084 365.411L71.0754 353.061C71.1767 352.934 71.2717 352.846 71.3604 352.795C71.4491 352.732 71.5757 352.7 71.7404 352.7H72.7474C72.8741 352.7 72.9691 352.738 73.0324 352.814C73.1084 352.877 73.1464 352.966 73.1464 353.08C73.1464 353.156 73.1211 353.226 73.0704 353.289L63.7034 365.639C63.6021 365.766 63.5071 365.861 63.4184 365.924C63.3297 365.975 63.2094 366 63.0574 366H62.0504ZM63.5894 357.963C63.9567 357.963 64.2227 357.855 64.3874 357.64C64.5647 357.425 64.6724 357.152 64.7104 356.823C64.7357 356.392 64.7484 356.126 64.7484 356.025C64.7484 355.886 64.7357 355.626 64.7104 355.246C64.6851 354.917 64.5837 354.644 64.4064 354.429C64.2291 354.201 63.9567 354.087 63.5894 354.087C63.2347 354.087 62.9687 354.201 62.7914 354.429C62.6141 354.644 62.5127 354.917 62.4874 355.246C62.4747 355.436 62.4684 355.696 62.4684 356.025C62.4684 356.342 62.4747 356.608 62.4874 356.823C62.5127 357.14 62.6077 357.412 62.7724 357.64C62.9497 357.855 63.2221 357.963 63.5894 357.963ZM71.1894 366.114C70.3534 366.114 69.6821 365.886 69.1754 365.43C68.6814 364.961 68.4091 364.341 68.3584 363.568C68.3457 363.353 68.3394 363.068 68.3394 362.713C68.3394 362.346 68.3457 362.048 68.3584 361.82C68.4091 361.035 68.6751 360.414 69.1564 359.958C69.6377 359.502 70.3154 359.274 71.1894 359.274C72.0761 359.274 72.7601 359.502 73.2414 359.958C73.7227 360.414 73.9887 361.035 74.0394 361.82C74.0647 362.276 74.0774 362.574 74.0774 362.713C74.0774 362.852 74.0647 363.137 74.0394 363.568C73.9887 364.341 73.7101 364.961 73.2034 365.43C72.7094 365.886 72.0381 366.114 71.1894 366.114ZM71.1894 364.632C71.5694 364.632 71.8417 364.524 72.0064 364.309C72.1837 364.081 72.2851 363.809 72.3104 363.492C72.3357 363.061 72.3484 362.789 72.3484 362.675C72.3484 362.548 72.3357 362.295 72.3104 361.915C72.2851 361.586 72.1837 361.313 72.0064 361.098C71.8291 360.87 71.5567 360.756 71.1894 360.756C70.8347 360.756 70.5687 360.87 70.3914 361.098C70.2141 361.313 70.1127 361.586 70.0874 361.915C70.0747 362.105 70.0684 362.358 70.0684 362.675C70.0684 363.004 70.0747 363.277 70.0874 363.492C70.1127 363.809 70.2077 364.081 70.3724 364.309C70.5497 364.524 70.8221 364.632 71.1894 364.632Z" fill="white"/>
<path d="M42.4714 428.9C42.3448 428.9 42.2371 428.856 42.1484 428.767C42.0598 428.691 42.0154 428.583 42.0154 428.444V427.114C41.1034 427.025 40.3181 426.804 39.6594 426.449C39.0134 426.094 38.5194 425.664 38.1774 425.157C37.8481 424.638 37.6708 424.087 37.6454 423.504C37.6454 423.403 37.6834 423.314 37.7594 423.238C37.8481 423.149 37.9494 423.105 38.0634 423.105H39.7734C39.9254 423.105 40.0394 423.137 40.1154 423.2C40.2041 423.251 40.2864 423.339 40.3624 423.466C40.5018 423.897 40.7931 424.258 41.2364 424.549C41.6924 424.84 42.3131 424.986 43.0984 424.986C43.9724 424.986 44.6311 424.84 45.0744 424.549C45.5304 424.245 45.7584 423.833 45.7584 423.314C45.7584 422.972 45.6444 422.687 45.4164 422.459C45.1884 422.231 44.8401 422.035 44.3714 421.87C43.9154 421.693 43.2378 421.484 42.3384 421.243C40.8438 420.888 39.7481 420.42 39.0514 419.837C38.3548 419.254 38.0064 418.418 38.0064 417.329C38.0064 416.341 38.3611 415.505 39.0704 414.821C39.7924 414.137 40.7741 413.719 42.0154 413.567V412.256C42.0154 412.117 42.0598 412.009 42.1484 411.933C42.2371 411.844 42.3448 411.8 42.4714 411.8H43.6494C43.7888 411.8 43.8964 411.844 43.9724 411.933C44.0611 412.009 44.1054 412.117 44.1054 412.256V413.605C44.9288 413.719 45.6318 413.966 46.2144 414.346C46.8098 414.713 47.2594 415.144 47.5634 415.638C47.8801 416.132 48.0511 416.613 48.0764 417.082C48.0764 417.196 48.0384 417.291 47.9624 417.367C47.8864 417.443 47.7914 417.481 47.6774 417.481H45.8724C45.6064 417.481 45.4228 417.367 45.3214 417.139C45.2454 416.734 44.9921 416.398 44.5614 416.132C44.1434 415.853 43.6178 415.714 42.9844 415.714C42.2878 415.714 41.7368 415.847 41.3314 416.113C40.9388 416.379 40.7424 416.765 40.7424 417.272C40.7424 417.614 40.8374 417.899 41.0274 418.127C41.2301 418.355 41.5468 418.558 41.9774 418.735C42.4208 418.912 43.0478 419.102 43.8584 419.305C44.9858 419.558 45.8788 419.843 46.5374 420.16C47.2088 420.477 47.7028 420.876 48.0194 421.357C48.3361 421.838 48.4944 422.453 48.4944 423.2C48.4944 424.302 48.0954 425.195 47.2974 425.879C46.5121 426.563 45.4481 426.975 44.1054 427.114V428.444C44.1054 428.583 44.0611 428.691 43.9724 428.767C43.8964 428.856 43.7888 428.9 43.6494 428.9H42.4714ZM55.022 427.209C53.9706 427.209 53.0586 427.032 52.286 426.677C51.526 426.322 50.9496 425.854 50.557 425.271C50.1643 424.688 49.9553 424.061 49.93 423.39V423.352C49.93 423.251 49.968 423.168 50.044 423.105C50.1326 423.029 50.2276 422.991 50.329 422.991H52.134C52.4253 422.991 52.609 423.118 52.685 423.371C52.8623 423.928 53.1536 424.34 53.559 424.606C53.977 424.872 54.4646 425.005 55.022 425.005C55.7313 425.005 56.314 424.79 56.77 424.359C57.2386 423.928 57.473 423.333 57.473 422.573C57.473 421.889 57.2386 421.338 56.77 420.92C56.314 420.489 55.7313 420.274 55.022 420.274C54.642 420.274 54.3316 420.325 54.091 420.426C53.8503 420.527 53.616 420.667 53.388 420.844C53.3626 420.857 53.3056 420.895 53.217 420.958C53.1283 421.021 53.046 421.066 52.97 421.091C52.9066 421.116 52.837 421.129 52.761 421.129H50.975C50.861 421.129 50.7596 421.091 50.671 421.015C50.595 420.926 50.557 420.825 50.557 420.711L51.203 414.232C51.2156 414.067 51.2726 413.941 51.374 413.852C51.488 413.751 51.621 413.7 51.773 413.7H58.917C59.0563 413.7 59.164 413.744 59.24 413.833C59.3286 413.909 59.373 414.017 59.373 414.156V415.448C59.373 415.575 59.3286 415.682 59.24 415.771C59.164 415.86 59.0563 415.904 58.917 415.904H53.426L53.122 418.982C53.4133 418.792 53.749 418.64 54.129 418.526C54.509 418.399 55.003 418.336 55.611 418.336C56.4343 418.336 57.1943 418.513 57.891 418.868C58.6003 419.21 59.164 419.71 59.582 420.369C60.0126 421.015 60.228 421.769 60.228 422.63C60.228 423.555 60.0126 424.365 59.582 425.062C59.1513 425.746 58.5433 426.278 57.758 426.658C56.9726 427.025 56.0606 427.209 55.022 427.209ZM67.2407 427.19C65.5434 427.19 64.2767 426.721 63.4407 425.784C62.6174 424.847 62.1677 423.618 62.0917 422.098C62.0791 421.756 62.0727 421.173 62.0727 420.35C62.0727 419.514 62.0791 418.919 62.0917 418.564C62.1551 417.069 62.6111 415.853 63.4597 414.916C64.3084 413.979 65.5687 413.51 67.2407 413.51C68.9127 413.51 70.1731 413.979 71.0217 414.916C71.8704 415.853 72.3264 417.069 72.3897 418.564C72.4151 419.273 72.4277 419.869 72.4277 420.35C72.4277 420.831 72.4151 421.414 72.3897 422.098C72.3137 423.618 71.8577 424.847 71.0217 425.784C70.1984 426.721 68.9381 427.19 67.2407 427.19ZM67.2407 424.967C68.0261 424.967 68.6151 424.714 69.0077 424.207C69.4004 423.688 69.6094 422.953 69.6347 422.003C69.6474 421.636 69.6537 421.072 69.6537 420.312C69.6537 419.552 69.6474 419.001 69.6347 418.659C69.6094 417.734 69.4004 417.012 69.0077 416.493C68.6151 415.974 68.0261 415.708 67.2407 415.695C66.4554 415.708 65.8664 415.974 65.4737 416.493C65.0811 417.012 64.8721 417.734 64.8467 418.659C64.8341 419.001 64.8277 419.552 64.8277 420.312C64.8277 421.072 64.8341 421.636 64.8467 422.003C64.8721 422.953 65.0811 423.688 65.4737 424.207C65.8664 424.714 66.4554 424.967 67.2407 424.967ZM79.7652 427.19C78.0678 427.19 76.8012 426.721 75.9652 425.784C75.1418 424.847 74.6922 423.618 74.6162 422.098C74.6035 421.756 74.5972 421.173 74.5972 420.35C74.5972 419.514 74.6035 418.919 74.6162 418.564C74.6795 417.069 75.1355 415.853 75.9842 414.916C76.8328 413.979 78.0932 413.51 79.7652 413.51C81.4372 413.51 82.6975 413.979 83.5462 414.916C84.3948 415.853 84.8508 417.069 84.9142 418.564C84.9395 419.273 84.9522 419.869 84.9522 420.35C84.9522 420.831 84.9395 421.414 84.9142 422.098C84.8382 423.618 84.3822 424.847 83.5462 425.784C82.7228 426.721 81.4625 427.19 79.7652 427.19ZM79.7652 424.967C80.5505 424.967 81.1395 424.714 81.5322 424.207C81.9248 423.688 82.1338 422.953 82.1592 422.003C82.1718 421.636 82.1782 421.072 82.1782 420.312C82.1782 419.552 82.1718 419.001 82.1592 418.659C82.1338 417.734 81.9248 417.012 81.5322 416.493C81.1395 415.974 80.5505 415.708 79.7652 415.695C78.9798 415.708 78.3908 415.974 77.9982 416.493C77.6055 417.012 77.3965 417.734 77.3712 418.659C77.3585 419.001 77.3522 419.552 77.3522 420.312C77.3522 421.072 77.3585 421.636 77.3712 422.003C77.3965 422.953 77.6055 423.688 77.9982 424.207C78.3908 424.714 78.9798 424.967 79.7652 424.967Z" fill="white"/>
<path d="M115 320C115 315.582 118.582 312 123 312H166C170.418 312 174 315.582 174 320V401H115V320Z" fill="url(#paint1_linear_134_6477)"/>
<path d="M137.156 346.19C136.092 346.19 135.154 345.987 134.344 345.582C133.546 345.177 132.925 344.619 132.482 343.91C132.051 343.201 131.836 342.403 131.836 341.516C131.836 340.401 132.33 339.173 133.318 337.83L136.776 333.08C136.877 332.953 136.972 332.858 137.061 332.795C137.149 332.732 137.276 332.7 137.441 332.7H139.246C139.36 332.7 139.448 332.744 139.512 332.833C139.588 332.909 139.626 333.004 139.626 333.118C139.626 333.207 139.6 333.289 139.55 333.365L136.89 337.032C137.092 336.981 137.358 336.956 137.688 336.956C138.536 336.969 139.315 337.178 140.025 337.583C140.747 337.976 141.317 338.514 141.735 339.198C142.165 339.882 142.381 340.642 142.381 341.478C142.381 342.339 142.165 343.131 141.735 343.853C141.317 344.562 140.709 345.132 139.911 345.563C139.125 345.981 138.207 346.19 137.156 346.19ZM137.118 343.986C137.827 343.986 138.429 343.771 138.923 343.34C139.417 342.897 139.664 342.289 139.664 341.516C139.664 340.756 139.417 340.161 138.923 339.73C138.441 339.287 137.84 339.065 137.118 339.065C136.408 339.065 135.807 339.287 135.313 339.73C134.831 340.161 134.591 340.756 134.591 341.516C134.591 342.289 134.831 342.897 135.313 343.34C135.807 343.771 136.408 343.986 137.118 343.986ZM146.654 339.388C145.818 339.388 145.147 339.166 144.64 338.723C144.146 338.28 143.874 337.678 143.823 336.918C143.811 336.703 143.804 336.418 143.804 336.063C143.804 335.683 143.811 335.379 143.823 335.151C143.874 334.366 144.14 333.745 144.621 333.289C145.103 332.833 145.78 332.605 146.654 332.605C147.528 332.605 148.206 332.833 148.687 333.289C149.181 333.745 149.454 334.366 149.504 335.151C149.53 335.607 149.542 335.911 149.542 336.063C149.542 336.202 149.53 336.487 149.504 336.918C149.454 337.678 149.175 338.28 148.668 338.723C148.174 339.166 147.503 339.388 146.654 339.388ZM145.115 346C144.989 346 144.887 345.968 144.811 345.905C144.735 345.829 144.697 345.734 144.697 345.62C144.697 345.544 144.723 345.474 144.773 345.411L154.14 333.061C154.242 332.934 154.337 332.846 154.425 332.795C154.514 332.732 154.641 332.7 154.805 332.7H155.812C155.939 332.7 156.034 332.738 156.097 332.814C156.173 332.877 156.211 332.966 156.211 333.08C156.211 333.156 156.186 333.226 156.135 333.289L146.768 345.639C146.667 345.766 146.572 345.861 146.483 345.924C146.395 345.975 146.274 346 146.122 346H145.115ZM146.654 337.963C147.022 337.963 147.288 337.855 147.452 337.64C147.63 337.425 147.737 337.152 147.775 336.823C147.801 336.392 147.813 336.126 147.813 336.025C147.813 335.886 147.801 335.626 147.775 335.246C147.75 334.917 147.649 334.644 147.471 334.429C147.294 334.201 147.022 334.087 146.654 334.087C146.3 334.087 146.034 334.201 145.856 334.429C145.679 334.644 145.578 334.917 145.552 335.246C145.54 335.436 145.533 335.696 145.533 336.025C145.533 336.342 145.54 336.608 145.552 336.823C145.578 337.14 145.673 337.412 145.837 337.64C146.015 337.855 146.287 337.963 146.654 337.963ZM154.254 346.114C153.418 346.114 152.747 345.886 152.24 345.43C151.746 344.961 151.474 344.341 151.423 343.568C151.411 343.353 151.404 343.068 151.404 342.713C151.404 342.346 151.411 342.048 151.423 341.82C151.474 341.035 151.74 340.414 152.221 339.958C152.703 339.502 153.38 339.274 154.254 339.274C155.141 339.274 155.825 339.502 156.306 339.958C156.788 340.414 157.054 341.035 157.104 341.82C157.13 342.276 157.142 342.574 157.142 342.713C157.142 342.852 157.13 343.137 157.104 343.568C157.054 344.341 156.775 344.961 156.268 345.43C155.774 345.886 155.103 346.114 154.254 346.114ZM154.254 344.632C154.634 344.632 154.907 344.524 155.071 344.309C155.249 344.081 155.35 343.809 155.375 343.492C155.401 343.061 155.413 342.789 155.413 342.675C155.413 342.548 155.401 342.295 155.375 341.915C155.35 341.586 155.249 341.313 155.071 341.098C154.894 340.87 154.622 340.756 154.254 340.756C153.9 340.756 153.634 340.87 153.456 341.098C153.279 341.313 153.178 341.586 153.152 341.915C153.14 342.105 153.133 342.358 153.133 342.675C153.133 343.004 153.14 343.277 153.152 343.492C153.178 343.809 153.273 344.081 153.437 344.309C153.615 344.524 153.887 344.632 154.254 344.632Z" fill="white"/>
<path d="M125.406 428.9C125.28 428.9 125.172 428.856 125.083 428.767C124.995 428.691 124.95 428.583 124.95 428.444V427.114C124.038 427.025 123.253 426.804 122.594 426.449C121.948 426.094 121.454 425.664 121.112 425.157C120.783 424.638 120.606 424.087 120.58 423.504C120.58 423.403 120.618 423.314 120.694 423.238C120.783 423.149 120.884 423.105 120.998 423.105H122.708C122.86 423.105 122.974 423.137 123.05 423.2C123.139 423.251 123.221 423.339 123.297 423.466C123.437 423.897 123.728 424.258 124.171 424.549C124.627 424.84 125.248 424.986 126.033 424.986C126.907 424.986 127.566 424.84 128.009 424.549C128.465 424.245 128.693 423.833 128.693 423.314C128.693 422.972 128.579 422.687 128.351 422.459C128.123 422.231 127.775 422.035 127.306 421.87C126.85 421.693 126.173 421.484 125.273 421.243C123.779 420.888 122.683 420.42 121.986 419.837C121.29 419.254 120.941 418.418 120.941 417.329C120.941 416.341 121.296 415.505 122.005 414.821C122.727 414.137 123.709 413.719 124.95 413.567V412.256C124.95 412.117 124.995 412.009 125.083 411.933C125.172 411.844 125.28 411.8 125.406 411.8H126.584C126.724 411.8 126.831 411.844 126.907 411.933C126.996 412.009 127.04 412.117 127.04 412.256V413.605C127.864 413.719 128.567 413.966 129.149 414.346C129.745 414.713 130.194 415.144 130.498 415.638C130.815 416.132 130.986 416.613 131.011 417.082C131.011 417.196 130.973 417.291 130.897 417.367C130.821 417.443 130.726 417.481 130.612 417.481H128.807C128.541 417.481 128.358 417.367 128.256 417.139C128.18 416.734 127.927 416.398 127.496 416.132C127.078 415.853 126.553 415.714 125.919 415.714C125.223 415.714 124.672 415.847 124.266 416.113C123.874 416.379 123.677 416.765 123.677 417.272C123.677 417.614 123.772 417.899 123.962 418.127C124.165 418.355 124.482 418.558 124.912 418.735C125.356 418.912 125.983 419.102 126.793 419.305C127.921 419.558 128.814 419.843 129.472 420.16C130.144 420.477 130.638 420.876 130.954 421.357C131.271 421.838 131.429 422.453 131.429 423.2C131.429 424.302 131.03 425.195 130.232 425.879C129.447 426.563 128.383 426.975 127.04 427.114V428.444C127.04 428.583 126.996 428.691 126.907 428.767C126.831 428.856 126.724 428.9 126.584 428.9H125.406ZM138.204 427.19C137.14 427.19 136.203 426.987 135.392 426.582C134.594 426.177 133.973 425.619 133.53 424.91C133.099 424.201 132.884 423.403 132.884 422.516C132.884 421.401 133.378 420.173 134.366 418.83L137.824 414.08C137.925 413.953 138.02 413.858 138.109 413.795C138.198 413.732 138.324 413.7 138.489 413.7H140.294C140.408 413.7 140.497 413.744 140.56 413.833C140.636 413.909 140.674 414.004 140.674 414.118C140.674 414.207 140.649 414.289 140.598 414.365L137.938 418.032C138.141 417.981 138.407 417.956 138.736 417.956C139.585 417.969 140.364 418.178 141.073 418.583C141.795 418.976 142.365 419.514 142.783 420.198C143.214 420.882 143.429 421.642 143.429 422.478C143.429 423.339 143.214 424.131 142.783 424.853C142.365 425.562 141.757 426.132 140.959 426.563C140.174 426.981 139.255 427.19 138.204 427.19ZM138.166 424.986C138.875 424.986 139.477 424.771 139.971 424.34C140.465 423.897 140.712 423.289 140.712 422.516C140.712 421.756 140.465 421.161 139.971 420.73C139.49 420.287 138.888 420.065 138.166 420.065C137.457 420.065 136.855 420.287 136.361 420.73C135.88 421.161 135.639 421.756 135.639 422.516C135.639 423.289 135.88 423.897 136.361 424.34C136.855 424.771 137.457 424.986 138.166 424.986ZM150.306 427.19C148.608 427.19 147.342 426.721 146.506 425.784C145.682 424.847 145.233 423.618 145.157 422.098C145.144 421.756 145.138 421.173 145.138 420.35C145.138 419.514 145.144 418.919 145.157 418.564C145.22 417.069 145.676 415.853 146.525 414.916C147.373 413.979 148.634 413.51 150.306 413.51C151.978 413.51 153.238 413.979 154.087 414.916C154.935 415.853 155.391 417.069 155.455 418.564C155.48 419.273 155.493 419.869 155.493 420.35C155.493 420.831 155.48 421.414 155.455 422.098C155.379 423.618 154.923 424.847 154.087 425.784C153.263 426.721 152.003 427.19 150.306 427.19ZM150.306 424.967C151.091 424.967 151.68 424.714 152.073 424.207C152.465 423.688 152.674 422.953 152.7 422.003C152.712 421.636 152.719 421.072 152.719 420.312C152.719 419.552 152.712 419.001 152.7 418.659C152.674 417.734 152.465 417.012 152.073 416.493C151.68 415.974 151.091 415.708 150.306 415.695C149.52 415.708 148.931 415.974 148.539 416.493C148.146 417.012 147.937 417.734 147.912 418.659C147.899 419.001 147.893 419.552 147.893 420.312C147.893 421.072 147.899 421.636 147.912 422.003C147.937 422.953 148.146 423.688 148.539 424.207C148.931 424.714 149.52 424.967 150.306 424.967ZM162.83 427.19C161.133 427.19 159.866 426.721 159.03 425.784C158.207 424.847 157.757 423.618 157.681 422.098C157.668 421.756 157.662 421.173 157.662 420.35C157.662 419.514 157.668 418.919 157.681 418.564C157.744 417.069 158.2 415.853 159.049 414.916C159.898 413.979 161.158 413.51 162.83 413.51C164.502 413.51 165.762 413.979 166.611 414.916C167.46 415.853 167.916 417.069 167.979 418.564C168.004 419.273 168.017 419.869 168.017 420.35C168.017 420.831 168.004 421.414 167.979 422.098C167.903 423.618 167.447 424.847 166.611 425.784C165.788 426.721 164.527 427.19 162.83 427.19ZM162.83 424.967C163.615 424.967 164.204 424.714 164.597 424.207C164.99 423.688 165.199 422.953 165.224 422.003C165.237 421.636 165.243 421.072 165.243 420.312C165.243 419.552 165.237 419.001 165.224 418.659C165.199 417.734 164.99 417.012 164.597 416.493C164.204 415.974 163.615 415.708 162.83 415.695C162.045 415.708 161.456 415.974 161.063 416.493C160.67 417.012 160.461 417.734 160.436 418.659C160.423 419.001 160.417 419.552 160.417 420.312C160.417 421.072 160.423 421.636 160.436 422.003C160.461 422.953 160.67 423.688 161.063 424.207C161.456 424.714 162.045 424.967 162.83 424.967Z" fill="white"/>
<path d="M198 300C198 295.582 201.582 292 206 292H248C252.418 292 256 295.582 256 300V401H198V300Z" fill="url(#paint2_linear_134_6477)"/>
<path d="M217.119 326C217.005 326 216.91 325.962 216.834 325.886C216.758 325.797 216.72 325.696 216.72 325.582C216.72 325.544 216.733 325.487 216.758 325.411L221.318 314.98H215.371C215.245 314.98 215.137 314.936 215.048 314.847C214.96 314.758 214.915 314.651 214.915 314.524V313.175C214.915 313.036 214.953 312.922 215.029 312.833C215.118 312.744 215.232 312.7 215.371 312.7H223.731C223.871 312.7 223.985 312.744 224.073 312.833C224.162 312.922 224.206 313.036 224.206 313.175V314.372C224.206 314.638 224.143 314.91 224.016 315.189L219.494 325.544C219.418 325.683 219.336 325.797 219.247 325.886C219.159 325.962 219.038 326 218.886 326H217.119ZM228.366 319.388C227.53 319.388 226.858 319.166 226.352 318.723C225.858 318.28 225.585 317.678 225.535 316.918C225.522 316.703 225.516 316.418 225.516 316.063C225.516 315.683 225.522 315.379 225.535 315.151C225.585 314.366 225.851 313.745 226.333 313.289C226.814 312.833 227.492 312.605 228.366 312.605C229.24 312.605 229.917 312.833 230.399 313.289C230.893 313.745 231.165 314.366 231.216 315.151C231.241 315.607 231.254 315.911 231.254 316.063C231.254 316.202 231.241 316.487 231.216 316.918C231.165 317.678 230.886 318.28 230.38 318.723C229.886 319.166 229.214 319.388 228.366 319.388ZM226.827 326C226.7 326 226.599 325.968 226.523 325.905C226.447 325.829 226.409 325.734 226.409 325.62C226.409 325.544 226.434 325.474 226.485 325.411L235.852 313.061C235.953 312.934 236.048 312.846 236.137 312.795C236.225 312.732 236.352 312.7 236.517 312.7H237.524C237.65 312.7 237.745 312.738 237.809 312.814C237.885 312.877 237.923 312.966 237.923 313.08C237.923 313.156 237.897 313.226 237.847 313.289L228.48 325.639C228.378 325.766 228.283 325.861 228.195 325.924C228.106 325.975 227.986 326 227.834 326H226.827ZM228.366 317.963C228.733 317.963 228.999 317.855 229.164 317.64C229.341 317.425 229.449 317.152 229.487 316.823C229.512 316.392 229.525 316.126 229.525 316.025C229.525 315.886 229.512 315.626 229.487 315.246C229.461 314.917 229.36 314.644 229.183 314.429C229.005 314.201 228.733 314.087 228.366 314.087C228.011 314.087 227.745 314.201 227.568 314.429C227.39 314.644 227.289 314.917 227.264 315.246C227.251 315.436 227.245 315.696 227.245 316.025C227.245 316.342 227.251 316.608 227.264 316.823C227.289 317.14 227.384 317.412 227.549 317.64C227.726 317.855 227.998 317.963 228.366 317.963ZM235.966 326.114C235.13 326.114 234.458 325.886 233.952 325.43C233.458 324.961 233.185 324.341 233.135 323.568C233.122 323.353 233.116 323.068 233.116 322.713C233.116 322.346 233.122 322.048 233.135 321.82C233.185 321.035 233.451 320.414 233.933 319.958C234.414 319.502 235.092 319.274 235.966 319.274C236.852 319.274 237.536 319.502 238.018 319.958C238.499 320.414 238.765 321.035 238.816 321.82C238.841 322.276 238.854 322.574 238.854 322.713C238.854 322.852 238.841 323.137 238.816 323.568C238.765 324.341 238.486 324.961 237.98 325.43C237.486 325.886 236.814 326.114 235.966 326.114ZM235.966 324.632C236.346 324.632 236.618 324.524 236.783 324.309C236.96 324.081 237.061 323.809 237.087 323.492C237.112 323.061 237.125 322.789 237.125 322.675C237.125 322.548 237.112 322.295 237.087 321.915C237.061 321.586 236.96 321.313 236.783 321.098C236.605 320.87 236.333 320.756 235.966 320.756C235.611 320.756 235.345 320.87 235.168 321.098C234.99 321.313 234.889 321.586 234.864 321.915C234.851 322.105 234.845 322.358 234.845 322.675C234.845 323.004 234.851 323.277 234.864 323.492C234.889 323.809 234.984 324.081 235.149 324.309C235.326 324.524 235.598 324.632 235.966 324.632Z" fill="white"/>
<path d="M208.695 428.9C208.568 428.9 208.461 428.856 208.372 428.767C208.283 428.691 208.239 428.583 208.239 428.444V427.114C207.327 427.025 206.542 426.804 205.883 426.449C205.237 426.094 204.743 425.664 204.401 425.157C204.072 424.638 203.894 424.087 203.869 423.504C203.869 423.403 203.907 423.314 203.983 423.238C204.072 423.149 204.173 423.105 204.287 423.105H205.997C206.149 423.105 206.263 423.137 206.339 423.2C206.428 423.251 206.51 423.339 206.586 423.466C206.725 423.897 207.017 424.258 207.46 424.549C207.916 424.84 208.537 424.986 209.322 424.986C210.196 424.986 210.855 424.84 211.298 424.549C211.754 424.245 211.982 423.833 211.982 423.314C211.982 422.972 211.868 422.687 211.64 422.459C211.412 422.231 211.064 422.035 210.595 421.87C210.139 421.693 209.461 421.484 208.562 421.243C207.067 420.888 205.972 420.42 205.275 419.837C204.578 419.254 204.23 418.418 204.23 417.329C204.23 416.341 204.585 415.505 205.294 414.821C206.016 414.137 206.998 413.719 208.239 413.567V412.256C208.239 412.117 208.283 412.009 208.372 411.933C208.461 411.844 208.568 411.8 208.695 411.8H209.873C210.012 411.8 210.12 411.844 210.196 411.933C210.285 412.009 210.329 412.117 210.329 412.256V413.605C211.152 413.719 211.855 413.966 212.438 414.346C213.033 414.713 213.483 415.144 213.787 415.638C214.104 416.132 214.275 416.613 214.3 417.082C214.3 417.196 214.262 417.291 214.186 417.367C214.11 417.443 214.015 417.481 213.901 417.481H212.096C211.83 417.481 211.646 417.367 211.545 417.139C211.469 416.734 211.216 416.398 210.785 416.132C210.367 415.853 209.841 415.714 209.208 415.714C208.511 415.714 207.96 415.847 207.555 416.113C207.162 416.379 206.966 416.765 206.966 417.272C206.966 417.614 207.061 417.899 207.251 418.127C207.454 418.355 207.77 418.558 208.201 418.735C208.644 418.912 209.271 419.102 210.082 419.305C211.209 419.558 212.102 419.843 212.761 420.16C213.432 420.477 213.926 420.876 214.243 421.357C214.56 421.838 214.718 422.453 214.718 423.2C214.718 424.302 214.319 425.195 213.521 425.879C212.736 426.563 211.672 426.975 210.329 427.114V428.444C210.329 428.583 210.285 428.691 210.196 428.767C210.12 428.856 210.012 428.9 209.873 428.9H208.695ZM218.168 427C218.054 427 217.959 426.962 217.883 426.886C217.807 426.797 217.769 426.696 217.769 426.582C217.769 426.544 217.781 426.487 217.807 426.411L222.367 415.98H216.42C216.293 415.98 216.185 415.936 216.097 415.847C216.008 415.758 215.964 415.651 215.964 415.524V414.175C215.964 414.036 216.002 413.922 216.078 413.833C216.166 413.744 216.28 413.7 216.42 413.7H224.78C224.919 413.7 225.033 413.744 225.122 413.833C225.21 413.922 225.255 414.036 225.255 414.175V415.372C225.255 415.638 225.191 415.91 225.065 416.189L220.543 426.544C220.467 426.683 220.384 426.797 220.296 426.886C220.207 426.962 220.087 427 219.935 427H218.168ZM232.017 427.19C230.32 427.19 229.053 426.721 228.217 425.784C227.394 424.847 226.944 423.618 226.868 422.098C226.855 421.756 226.849 421.173 226.849 420.35C226.849 419.514 226.855 418.919 226.868 418.564C226.931 417.069 227.387 415.853 228.236 414.916C229.085 413.979 230.345 413.51 232.017 413.51C233.689 413.51 234.949 413.979 235.798 414.916C236.647 415.853 237.103 417.069 237.166 418.564C237.191 419.273 237.204 419.869 237.204 420.35C237.204 420.831 237.191 421.414 237.166 422.098C237.09 423.618 236.634 424.847 235.798 425.784C234.975 426.721 233.714 427.19 232.017 427.19ZM232.017 424.967C232.802 424.967 233.391 424.714 233.784 424.207C234.177 423.688 234.386 422.953 234.411 422.003C234.424 421.636 234.43 421.072 234.43 420.312C234.43 419.552 234.424 419.001 234.411 418.659C234.386 417.734 234.177 417.012 233.784 416.493C233.391 415.974 232.802 415.708 232.017 415.695C231.232 415.708 230.643 415.974 230.25 416.493C229.857 417.012 229.648 417.734 229.623 418.659C229.61 419.001 229.604 419.552 229.604 420.312C229.604 421.072 229.61 421.636 229.623 422.003C229.648 422.953 229.857 423.688 230.25 424.207C230.643 424.714 231.232 424.967 232.017 424.967ZM244.542 427.19C242.844 427.19 241.578 426.721 240.742 425.784C239.918 424.847 239.469 423.618 239.393 422.098C239.38 421.756 239.374 421.173 239.374 420.35C239.374 419.514 239.38 418.919 239.393 418.564C239.456 417.069 239.912 415.853 240.761 414.916C241.609 413.979 242.87 413.51 244.542 413.51C246.214 413.51 247.474 413.979 248.323 414.916C249.171 415.853 249.627 417.069 249.691 418.564C249.716 419.273 249.729 419.869 249.729 420.35C249.729 420.831 249.716 421.414 249.691 422.098C249.615 423.618 249.159 424.847 248.323 425.784C247.499 426.721 246.239 427.19 244.542 427.19ZM244.542 424.967C245.327 424.967 245.916 424.714 246.309 424.207C246.701 423.688 246.91 422.953 246.936 422.003C246.948 421.636 246.955 421.072 246.955 420.312C246.955 419.552 246.948 419.001 246.936 418.659C246.91 417.734 246.701 417.012 246.309 416.493C245.916 415.974 245.327 415.708 244.542 415.695C243.756 415.708 243.167 415.974 242.775 416.493C242.382 417.012 242.173 417.734 242.148 418.659C242.135 419.001 242.129 419.552 242.129 420.312C242.129 421.072 242.135 421.636 242.148 422.003C242.173 422.953 242.382 423.688 242.775 424.207C243.167 424.714 243.756 424.967 244.542 424.967Z" fill="white"/>
<path d="M280 280C280 275.582 283.582 272 288 272H332C336.418 272 340 275.582 340 280V401H280V280Z" fill="url(#paint3_linear_134_6477)"/>
<path d="M302.529 306.19C301.427 306.19 300.477 306.019 299.679 305.677C298.894 305.322 298.292 304.835 297.874 304.214C297.456 303.593 297.247 302.884 297.247 302.086C297.247 301.377 297.418 300.75 297.76 300.205C298.115 299.648 298.59 299.223 299.185 298.932C298.717 298.641 298.356 298.267 298.102 297.811C297.849 297.342 297.722 296.81 297.722 296.215C297.722 295.1 298.14 294.207 298.976 293.536C299.825 292.852 301.009 292.51 302.529 292.51C304.049 292.51 305.227 292.846 306.063 293.517C306.899 294.188 307.317 295.081 307.317 296.196C307.317 296.791 307.191 297.323 306.937 297.792C306.697 298.248 306.342 298.628 305.873 298.932C306.481 299.223 306.956 299.648 307.298 300.205C307.653 300.75 307.83 301.383 307.83 302.105C307.83 302.903 307.621 303.612 307.203 304.233C306.785 304.841 306.177 305.322 305.379 305.677C304.581 306.019 303.631 306.19 302.529 306.19ZM302.529 298.096C303.188 298.083 303.733 297.919 304.163 297.602C304.607 297.273 304.828 296.842 304.828 296.31C304.828 295.765 304.613 295.328 304.182 294.999C303.752 294.67 303.201 294.505 302.529 294.505C301.871 294.505 301.326 294.67 300.895 294.999C300.465 295.328 300.249 295.765 300.249 296.31C300.249 296.855 300.465 297.292 300.895 297.621C301.326 297.938 301.871 298.096 302.529 298.096ZM302.529 304.195C303.277 304.195 303.897 304.005 304.391 303.625C304.898 303.245 305.151 302.738 305.151 302.105C305.151 301.472 304.898 300.965 304.391 300.585C303.897 300.205 303.277 300.015 302.529 300.015C301.782 300.015 301.161 300.205 300.667 300.585C300.173 300.952 299.926 301.459 299.926 302.105C299.926 302.738 300.173 303.245 300.667 303.625C301.161 304.005 301.782 304.195 302.529 304.195ZM312.433 299.388C311.597 299.388 310.925 299.166 310.419 298.723C309.925 298.28 309.652 297.678 309.602 296.918C309.589 296.703 309.583 296.418 309.583 296.063C309.583 295.683 309.589 295.379 309.602 295.151C309.652 294.366 309.918 293.745 310.4 293.289C310.881 292.833 311.559 292.605 312.433 292.605C313.307 292.605 313.984 292.833 314.466 293.289C314.96 293.745 315.232 294.366 315.283 295.151C315.308 295.607 315.321 295.911 315.321 296.063C315.321 296.202 315.308 296.487 315.283 296.918C315.232 297.678 314.953 298.28 314.447 298.723C313.953 299.166 313.281 299.388 312.433 299.388ZM310.894 306C310.767 306 310.666 305.968 310.59 305.905C310.514 305.829 310.476 305.734 310.476 305.62C310.476 305.544 310.501 305.474 310.552 305.411L319.919 293.061C320.02 292.934 320.115 292.846 320.204 292.795C320.292 292.732 320.419 292.7 320.584 292.7H321.591C321.717 292.7 321.812 292.738 321.876 292.814C321.952 292.877 321.99 292.966 321.99 293.08C321.99 293.156 321.964 293.226 321.914 293.289L312.547 305.639C312.445 305.766 312.35 305.861 312.262 305.924C312.173 305.975 312.053 306 311.901 306H310.894ZM312.433 297.963C312.8 297.963 313.066 297.855 313.231 297.64C313.408 297.425 313.516 297.152 313.554 296.823C313.579 296.392 313.592 296.126 313.592 296.025C313.592 295.886 313.579 295.626 313.554 295.246C313.528 294.917 313.427 294.644 313.25 294.429C313.072 294.201 312.8 294.087 312.433 294.087C312.078 294.087 311.812 294.201 311.635 294.429C311.457 294.644 311.356 294.917 311.331 295.246C311.318 295.436 311.312 295.696 311.312 296.025C311.312 296.342 311.318 296.608 311.331 296.823C311.356 297.14 311.451 297.412 311.616 297.64C311.793 297.855 312.065 297.963 312.433 297.963ZM320.033 306.114C319.197 306.114 318.525 305.886 318.019 305.43C317.525 304.961 317.252 304.341 317.202 303.568C317.189 303.353 317.183 303.068 317.183 302.713C317.183 302.346 317.189 302.048 317.202 301.82C317.252 301.035 317.518 300.414 318 299.958C318.481 299.502 319.159 299.274 320.033 299.274C320.919 299.274 321.603 299.502 322.085 299.958C322.566 300.414 322.832 301.035 322.883 301.82C322.908 302.276 322.921 302.574 322.921 302.713C322.921 302.852 322.908 303.137 322.883 303.568C322.832 304.341 322.553 304.961 322.047 305.43C321.553 305.886 320.881 306.114 320.033 306.114ZM320.033 304.632C320.413 304.632 320.685 304.524 320.85 304.309C321.027 304.081 321.128 303.809 321.154 303.492C321.179 303.061 321.192 302.789 321.192 302.675C321.192 302.548 321.179 302.295 321.154 301.915C321.128 301.586 321.027 301.313 320.85 301.098C320.672 300.87 320.4 300.756 320.033 300.756C319.678 300.756 319.412 300.87 319.235 301.098C319.057 301.313 318.956 301.586 318.931 301.915C318.918 302.105 318.912 302.358 318.912 302.675C318.912 303.004 318.918 303.277 318.931 303.492C318.956 303.809 319.051 304.081 319.216 304.309C319.393 304.524 319.665 304.632 320.033 304.632Z" fill="white"/>
<path d="M290.628 428.9C290.501 428.9 290.394 428.856 290.305 428.767C290.216 428.691 290.172 428.583 290.172 428.444V427.114C289.26 427.025 288.475 426.804 287.816 426.449C287.17 426.094 286.676 425.664 286.334 425.157C286.005 424.638 285.827 424.087 285.802 423.504C285.802 423.403 285.84 423.314 285.916 423.238C286.005 423.149 286.106 423.105 286.22 423.105H287.93C288.082 423.105 288.196 423.137 288.272 423.2C288.361 423.251 288.443 423.339 288.519 423.466C288.658 423.897 288.95 424.258 289.393 424.549C289.849 424.84 290.47 424.986 291.255 424.986C292.129 424.986 292.788 424.84 293.231 424.549C293.687 424.245 293.915 423.833 293.915 423.314C293.915 422.972 293.801 422.687 293.573 422.459C293.345 422.231 292.997 422.035 292.528 421.87C292.072 421.693 291.394 421.484 290.495 421.243C289 420.888 287.905 420.42 287.208 419.837C286.511 419.254 286.163 418.418 286.163 417.329C286.163 416.341 286.518 415.505 287.227 414.821C287.949 414.137 288.931 413.719 290.172 413.567V412.256C290.172 412.117 290.216 412.009 290.305 411.933C290.394 411.844 290.501 411.8 290.628 411.8H291.806C291.945 411.8 292.053 411.844 292.129 411.933C292.218 412.009 292.262 412.117 292.262 412.256V413.605C293.085 413.719 293.788 413.966 294.371 414.346C294.966 414.713 295.416 415.144 295.72 415.638C296.037 416.132 296.208 416.613 296.233 417.082C296.233 417.196 296.195 417.291 296.119 417.367C296.043 417.443 295.948 417.481 295.834 417.481H294.029C293.763 417.481 293.579 417.367 293.478 417.139C293.402 416.734 293.149 416.398 292.718 416.132C292.3 415.853 291.774 415.714 291.141 415.714C290.444 415.714 289.893 415.847 289.488 416.113C289.095 416.379 288.899 416.765 288.899 417.272C288.899 417.614 288.994 417.899 289.184 418.127C289.387 418.355 289.703 418.558 290.134 418.735C290.577 418.912 291.204 419.102 292.015 419.305C293.142 419.558 294.035 419.843 294.694 420.16C295.365 420.477 295.859 420.876 296.176 421.357C296.493 421.838 296.651 422.453 296.651 423.2C296.651 424.302 296.252 425.195 295.454 425.879C294.669 426.563 293.605 426.975 292.262 427.114V428.444C292.262 428.583 292.218 428.691 292.129 428.767C292.053 428.856 291.945 428.9 291.806 428.9H290.628ZM303.578 427.19C302.476 427.19 301.526 427.019 300.728 426.677C299.942 426.322 299.341 425.835 298.923 425.214C298.505 424.593 298.296 423.884 298.296 423.086C298.296 422.377 298.467 421.75 298.809 421.205C299.163 420.648 299.638 420.223 300.234 419.932C299.765 419.641 299.404 419.267 299.151 418.811C298.897 418.342 298.771 417.81 298.771 417.215C298.771 416.1 299.189 415.207 300.025 414.536C300.873 413.852 302.058 413.51 303.578 413.51C305.098 413.51 306.276 413.846 307.112 414.517C307.948 415.188 308.366 416.081 308.366 417.196C308.366 417.791 308.239 418.323 307.986 418.792C307.745 419.248 307.39 419.628 306.922 419.932C307.53 420.223 308.005 420.648 308.347 421.205C308.701 421.75 308.879 422.383 308.879 423.105C308.879 423.903 308.67 424.612 308.252 425.233C307.834 425.841 307.226 426.322 306.428 426.677C305.63 427.019 304.68 427.19 303.578 427.19ZM303.578 419.096C304.236 419.083 304.781 418.919 305.212 418.602C305.655 418.273 305.877 417.842 305.877 417.31C305.877 416.765 305.661 416.328 305.231 415.999C304.8 415.67 304.249 415.505 303.578 415.505C302.919 415.505 302.374 415.67 301.944 415.999C301.513 416.328 301.298 416.765 301.298 417.31C301.298 417.855 301.513 418.292 301.944 418.621C302.374 418.938 302.919 419.096 303.578 419.096ZM303.578 425.195C304.325 425.195 304.946 425.005 305.44 424.625C305.946 424.245 306.2 423.738 306.2 423.105C306.2 422.472 305.946 421.965 305.44 421.585C304.946 421.205 304.325 421.015 303.578 421.015C302.83 421.015 302.21 421.205 301.716 421.585C301.222 421.952 300.975 422.459 300.975 423.105C300.975 423.738 301.222 424.245 301.716 424.625C302.21 425.005 302.83 425.195 303.578 425.195ZM316.084 427.19C314.387 427.19 313.12 426.721 312.284 425.784C311.461 424.847 311.011 423.618 310.935 422.098C310.922 421.756 310.916 421.173 310.916 420.35C310.916 419.514 310.922 418.919 310.935 418.564C310.998 417.069 311.454 415.853 312.303 414.916C313.152 413.979 314.412 413.51 316.084 413.51C317.756 413.51 319.016 413.979 319.865 414.916C320.714 415.853 321.17 417.069 321.233 418.564C321.258 419.273 321.271 419.869 321.271 420.35C321.271 420.831 321.258 421.414 321.233 422.098C321.157 423.618 320.701 424.847 319.865 425.784C319.042 426.721 317.781 427.19 316.084 427.19ZM316.084 424.967C316.869 424.967 317.458 424.714 317.851 424.207C318.244 423.688 318.453 422.953 318.478 422.003C318.491 421.636 318.497 421.072 318.497 420.312C318.497 419.552 318.491 419.001 318.478 418.659C318.453 417.734 318.244 417.012 317.851 416.493C317.458 415.974 316.869 415.708 316.084 415.695C315.299 415.708 314.71 415.974 314.317 416.493C313.924 417.012 313.715 417.734 313.69 418.659C313.677 419.001 313.671 419.552 313.671 420.312C313.671 421.072 313.677 421.636 313.69 422.003C313.715 422.953 313.924 423.688 314.317 424.207C314.71 424.714 315.299 424.967 316.084 424.967ZM328.608 427.19C326.911 427.19 325.644 426.721 324.808 425.784C323.985 424.847 323.535 423.618 323.459 422.098C323.447 421.756 323.44 421.173 323.44 420.35C323.44 419.514 323.447 418.919 323.459 418.564C323.523 417.069 323.979 415.853 324.827 414.916C325.676 413.979 326.936 413.51 328.608 413.51C330.28 413.51 331.541 413.979 332.389 414.916C333.238 415.853 333.694 417.069 333.757 418.564C333.783 419.273 333.795 419.869 333.795 420.35C333.795 420.831 333.783 421.414 333.757 422.098C333.681 423.618 333.225 424.847 332.389 425.784C331.566 426.721 330.306 427.19 328.608 427.19ZM328.608 424.967C329.394 424.967 329.983 424.714 330.375 424.207C330.768 423.688 330.977 422.953 331.002 422.003C331.015 421.636 331.021 421.072 331.021 420.312C331.021 419.552 331.015 419.001 331.002 418.659C330.977 417.734 330.768 417.012 330.375 416.493C329.983 415.974 329.394 415.708 328.608 415.695C327.823 415.708 327.234 415.974 326.841 416.493C326.449 417.012 326.24 417.734 326.214 418.659C326.202 419.001 326.195 419.552 326.195 420.312C326.195 421.072 326.202 421.636 326.214 422.003C326.24 422.953 326.449 423.688 326.841 424.207C327.234 424.714 327.823 424.967 328.608 424.967Z" fill="white"/>
<path d="M364 260C364 255.582 367.582 252 372 252H415C419.418 252 423 255.582 423 260V401H364V260Z" fill="url(#paint4_linear_134_6477)"/>
<path d="M383.645 286C383.531 286 383.436 285.962 383.36 285.886C383.284 285.797 383.246 285.696 383.246 285.582C383.246 285.506 383.278 285.424 383.341 285.335L386.134 281.497C385.919 281.548 385.653 281.573 385.336 281.573C384.5 281.548 383.734 281.339 383.037 280.946C382.353 280.541 381.809 280.009 381.403 279.35C380.998 278.679 380.795 277.938 380.795 277.127C380.795 276.329 380.992 275.582 381.384 274.885C381.777 274.176 382.36 273.606 383.132 273.175C383.905 272.732 384.836 272.51 385.925 272.51C387.027 272.51 387.971 272.719 388.756 273.137C389.542 273.542 390.131 274.093 390.523 274.79C390.929 275.474 391.131 276.228 391.131 277.051C391.131 277.57 391.049 278.058 390.884 278.514C390.72 278.97 390.53 279.369 390.314 279.711C390.112 280.04 389.82 280.471 389.44 281.003L386.115 285.62C386.014 285.747 385.919 285.842 385.83 285.905C385.742 285.968 385.621 286 385.469 286H383.645ZM385.944 279.521C386.641 279.521 387.224 279.306 387.692 278.875C388.161 278.432 388.395 277.849 388.395 277.127C388.395 276.392 388.161 275.81 387.692 275.379C387.224 274.936 386.641 274.714 385.944 274.714C385.26 274.714 384.684 274.936 384.215 275.379C383.747 275.81 383.512 276.392 383.512 277.127C383.512 277.849 383.74 278.432 384.196 278.875C384.665 279.306 385.248 279.521 385.944 279.521ZM395.562 279.388C394.726 279.388 394.054 279.166 393.548 278.723C393.054 278.28 392.781 277.678 392.731 276.918C392.718 276.703 392.712 276.418 392.712 276.063C392.712 275.683 392.718 275.379 392.731 275.151C392.781 274.366 393.047 273.745 393.529 273.289C394.01 272.833 394.688 272.605 395.562 272.605C396.436 272.605 397.113 272.833 397.595 273.289C398.089 273.745 398.361 274.366 398.412 275.151C398.437 275.607 398.45 275.911 398.45 276.063C398.45 276.202 398.437 276.487 398.412 276.918C398.361 277.678 398.082 278.28 397.576 278.723C397.082 279.166 396.41 279.388 395.562 279.388ZM394.023 286C393.896 286 393.795 285.968 393.719 285.905C393.643 285.829 393.605 285.734 393.605 285.62C393.605 285.544 393.63 285.474 393.681 285.411L403.048 273.061C403.149 272.934 403.244 272.846 403.333 272.795C403.421 272.732 403.548 272.7 403.713 272.7H404.72C404.846 272.7 404.941 272.738 405.005 272.814C405.081 272.877 405.119 272.966 405.119 273.08C405.119 273.156 405.093 273.226 405.043 273.289L395.676 285.639C395.574 285.766 395.479 285.861 395.391 285.924C395.302 285.975 395.182 286 395.03 286H394.023ZM395.562 277.963C395.929 277.963 396.195 277.855 396.36 277.64C396.537 277.425 396.645 277.152 396.683 276.823C396.708 276.392 396.721 276.126 396.721 276.025C396.721 275.886 396.708 275.626 396.683 275.246C396.657 274.917 396.556 274.644 396.379 274.429C396.201 274.201 395.929 274.087 395.562 274.087C395.207 274.087 394.941 274.201 394.764 274.429C394.586 274.644 394.485 274.917 394.46 275.246C394.447 275.436 394.441 275.696 394.441 276.025C394.441 276.342 394.447 276.608 394.46 276.823C394.485 277.14 394.58 277.412 394.745 277.64C394.922 277.855 395.194 277.963 395.562 277.963ZM403.162 286.114C402.326 286.114 401.654 285.886 401.148 285.43C400.654 284.961 400.381 284.341 400.331 283.568C400.318 283.353 400.312 283.068 400.312 282.713C400.312 282.346 400.318 282.048 400.331 281.82C400.381 281.035 400.647 280.414 401.129 279.958C401.61 279.502 402.288 279.274 403.162 279.274C404.048 279.274 404.732 279.502 405.214 279.958C405.695 280.414 405.961 281.035 406.012 281.82C406.037 282.276 406.05 282.574 406.05 282.713C406.05 282.852 406.037 283.137 406.012 283.568C405.961 284.341 405.682 284.961 405.176 285.43C404.682 285.886 404.01 286.114 403.162 286.114ZM403.162 284.632C403.542 284.632 403.814 284.524 403.979 284.309C404.156 284.081 404.257 283.809 404.283 283.492C404.308 283.061 404.321 282.789 404.321 282.675C404.321 282.548 404.308 282.295 404.283 281.915C404.257 281.586 404.156 281.313 403.979 281.098C403.801 280.87 403.529 280.756 403.162 280.756C402.807 280.756 402.541 280.87 402.364 281.098C402.186 281.313 402.085 281.586 402.06 281.915C402.047 282.105 402.041 282.358 402.041 282.675C402.041 283.004 402.047 283.277 402.06 283.492C402.085 283.809 402.18 284.081 402.345 284.309C402.522 284.524 402.794 284.632 403.162 284.632Z" fill="white"/>
<path d="M374.499 428.9C374.373 428.9 374.265 428.856 374.176 428.767C374.088 428.691 374.043 428.583 374.043 428.444V427.114C373.131 427.025 372.346 426.804 371.687 426.449C371.041 426.094 370.547 425.664 370.205 425.157C369.876 424.638 369.699 424.087 369.673 423.504C369.673 423.403 369.711 423.314 369.787 423.238C369.876 423.149 369.977 423.105 370.091 423.105H371.801C371.953 423.105 372.067 423.137 372.143 423.2C372.232 423.251 372.314 423.339 372.39 423.466C372.53 423.897 372.821 424.258 373.264 424.549C373.72 424.84 374.341 424.986 375.126 424.986C376 424.986 376.659 424.84 377.102 424.549C377.558 424.245 377.786 423.833 377.786 423.314C377.786 422.972 377.672 422.687 377.444 422.459C377.216 422.231 376.868 422.035 376.399 421.87C375.943 421.693 375.266 421.484 374.366 421.243C372.872 420.888 371.776 420.42 371.079 419.837C370.383 419.254 370.034 418.418 370.034 417.329C370.034 416.341 370.389 415.505 371.098 414.821C371.82 414.137 372.802 413.719 374.043 413.567V412.256C374.043 412.117 374.088 412.009 374.176 411.933C374.265 411.844 374.373 411.8 374.499 411.8H375.677C375.817 411.8 375.924 411.844 376 411.933C376.089 412.009 376.133 412.117 376.133 412.256V413.605C376.957 413.719 377.66 413.966 378.242 414.346C378.838 414.713 379.287 415.144 379.591 415.638C379.908 416.132 380.079 416.613 380.104 417.082C380.104 417.196 380.066 417.291 379.99 417.367C379.914 417.443 379.819 417.481 379.705 417.481H377.9C377.634 417.481 377.451 417.367 377.349 417.139C377.273 416.734 377.02 416.398 376.589 416.132C376.171 415.853 375.646 415.714 375.012 415.714C374.316 415.714 373.765 415.847 373.359 416.113C372.967 416.379 372.77 416.765 372.77 417.272C372.77 417.614 372.865 417.899 373.055 418.127C373.258 418.355 373.575 418.558 374.005 418.735C374.449 418.912 375.076 419.102 375.886 419.305C377.014 419.558 377.907 419.843 378.565 420.16C379.237 420.477 379.731 420.876 380.047 421.357C380.364 421.838 380.522 422.453 380.522 423.2C380.522 424.302 380.123 425.195 379.325 425.879C378.54 426.563 377.476 426.975 376.133 427.114V428.444C376.133 428.583 376.089 428.691 376 428.767C375.924 428.856 375.817 428.9 375.677 428.9H374.499ZM384.694 427C384.58 427 384.485 426.962 384.409 426.886C384.333 426.797 384.295 426.696 384.295 426.582C384.295 426.506 384.326 426.424 384.39 426.335L387.183 422.497C386.967 422.548 386.701 422.573 386.385 422.573C385.549 422.548 384.782 422.339 384.086 421.946C383.402 421.541 382.857 421.009 382.452 420.35C382.046 419.679 381.844 418.938 381.844 418.127C381.844 417.329 382.04 416.582 382.433 415.885C382.825 415.176 383.408 414.606 384.181 414.175C384.953 413.732 385.884 413.51 386.974 413.51C388.076 413.51 389.019 413.719 389.805 414.137C390.59 414.542 391.179 415.093 391.572 415.79C391.977 416.474 392.18 417.228 392.18 418.051C392.18 418.57 392.097 419.058 391.933 419.514C391.768 419.97 391.578 420.369 391.363 420.711C391.16 421.04 390.869 421.471 390.489 422.003L387.164 426.62C387.062 426.747 386.967 426.842 386.879 426.905C386.79 426.968 386.67 427 386.518 427H384.694ZM386.993 420.521C387.689 420.521 388.272 420.306 388.741 419.875C389.209 419.432 389.444 418.849 389.444 418.127C389.444 417.392 389.209 416.81 388.741 416.379C388.272 415.936 387.689 415.714 386.993 415.714C386.309 415.714 385.732 415.936 385.264 416.379C384.795 416.81 384.561 417.392 384.561 418.127C384.561 418.849 384.789 419.432 385.245 419.875C385.713 420.306 386.296 420.521 386.993 420.521ZM399.213 427.19C397.516 427.19 396.249 426.721 395.413 425.784C394.59 424.847 394.14 423.618 394.064 422.098C394.051 421.756 394.045 421.173 394.045 420.35C394.045 419.514 394.051 418.919 394.064 418.564C394.127 417.069 394.583 415.853 395.432 414.916C396.281 413.979 397.541 413.51 399.213 413.51C400.885 413.51 402.145 413.979 402.994 414.916C403.843 415.853 404.299 417.069 404.362 418.564C404.387 419.273 404.4 419.869 404.4 420.35C404.4 420.831 404.387 421.414 404.362 422.098C404.286 423.618 403.83 424.847 402.994 425.784C402.171 426.721 400.91 427.19 399.213 427.19ZM399.213 424.967C399.998 424.967 400.587 424.714 400.98 424.207C401.373 423.688 401.582 422.953 401.607 422.003C401.62 421.636 401.626 421.072 401.626 420.312C401.626 419.552 401.62 419.001 401.607 418.659C401.582 417.734 401.373 417.012 400.98 416.493C400.587 415.974 399.998 415.708 399.213 415.695C398.428 415.708 397.839 415.974 397.446 416.493C397.053 417.012 396.844 417.734 396.819 418.659C396.806 419.001 396.8 419.552 396.8 420.312C396.8 421.072 396.806 421.636 396.819 422.003C396.844 422.953 397.053 423.688 397.446 424.207C397.839 424.714 398.428 424.967 399.213 424.967ZM411.737 427.19C410.04 427.19 408.773 426.721 407.937 425.784C407.114 424.847 406.664 423.618 406.588 422.098C406.576 421.756 406.569 421.173 406.569 420.35C406.569 419.514 406.576 418.919 406.588 418.564C406.652 417.069 407.108 415.853 407.956 414.916C408.805 413.979 410.065 413.51 411.737 413.51C413.409 413.51 414.67 413.979 415.518 414.916C416.367 415.853 416.823 417.069 416.886 418.564C416.912 419.273 416.924 419.869 416.924 420.35C416.924 420.831 416.912 421.414 416.886 422.098C416.81 423.618 416.354 424.847 415.518 425.784C414.695 426.721 413.435 427.19 411.737 427.19ZM411.737 424.967C412.523 424.967 413.112 424.714 413.504 424.207C413.897 423.688 414.106 422.953 414.131 422.003C414.144 421.636 414.15 421.072 414.15 420.312C414.15 419.552 414.144 419.001 414.131 418.659C414.106 417.734 413.897 417.012 413.504 416.493C413.112 415.974 412.523 415.708 411.737 415.695C410.952 415.708 410.363 415.974 409.97 416.493C409.578 417.012 409.369 417.734 409.343 418.659C409.331 419.001 409.324 419.552 409.324 420.312C409.324 421.072 409.331 421.636 409.343 422.003C409.369 422.953 409.578 423.688 409.97 424.207C410.363 424.714 410.952 424.967 411.737 424.967Z" fill="white"/>
<path d="M447 240C447 235.582 450.582 232 455 232H508C512.418 232 516 235.582 516 240V401H447V240Z" fill="url(#paint5_linear_134_6477)"/>
<path d="M468.635 266C468.508 266 468.401 265.956 468.312 265.867C468.223 265.778 468.179 265.671 468.179 265.544V255.74L465.31 257.944C465.234 258.007 465.139 258.039 465.025 258.039C464.873 258.039 464.753 257.976 464.664 257.849L463.847 256.785C463.784 256.696 463.752 256.608 463.752 256.519C463.752 256.367 463.822 256.24 463.961 256.139L468.217 252.833C468.356 252.744 468.515 252.7 468.692 252.7H470.402C470.529 252.7 470.636 252.744 470.725 252.833C470.814 252.922 470.858 253.029 470.858 253.156V265.544C470.858 265.671 470.814 265.778 470.725 265.867C470.636 265.956 470.529 266 470.402 266H468.635ZM478.437 266.19C476.739 266.19 475.473 265.721 474.637 264.784C473.813 263.847 473.364 262.618 473.288 261.098C473.275 260.756 473.269 260.173 473.269 259.35C473.269 258.514 473.275 257.919 473.288 257.564C473.351 256.069 473.807 254.853 474.656 253.916C475.504 252.979 476.765 252.51 478.437 252.51C480.109 252.51 481.369 252.979 482.218 253.916C483.066 254.853 483.522 256.069 483.586 257.564C483.611 258.273 483.624 258.869 483.624 259.35C483.624 259.831 483.611 260.414 483.586 261.098C483.51 262.618 483.054 263.847 482.218 264.784C481.394 265.721 480.134 266.19 478.437 266.19ZM478.437 263.967C479.222 263.967 479.811 263.714 480.204 263.207C480.596 262.688 480.805 261.953 480.831 261.003C480.843 260.636 480.85 260.072 480.85 259.312C480.85 258.552 480.843 258.001 480.831 257.659C480.805 256.734 480.596 256.012 480.204 255.493C479.811 254.974 479.222 254.708 478.437 254.695C477.651 254.708 477.062 254.974 476.67 255.493C476.277 256.012 476.068 256.734 476.043 257.659C476.03 258.001 476.024 258.552 476.024 259.312C476.024 260.072 476.03 260.636 476.043 261.003C476.068 261.953 476.277 262.688 476.67 263.207C477.062 263.714 477.651 263.967 478.437 263.967ZM488.358 259.388C487.522 259.388 486.851 259.166 486.344 258.723C485.85 258.28 485.578 257.678 485.527 256.918C485.514 256.703 485.508 256.418 485.508 256.063C485.508 255.683 485.514 255.379 485.527 255.151C485.578 254.366 485.844 253.745 486.325 253.289C486.806 252.833 487.484 252.605 488.358 252.605C489.232 252.605 489.91 252.833 490.391 253.289C490.885 253.745 491.157 254.366 491.208 255.151C491.233 255.607 491.246 255.911 491.246 256.063C491.246 256.202 491.233 256.487 491.208 256.918C491.157 257.678 490.879 258.28 490.372 258.723C489.878 259.166 489.207 259.388 488.358 259.388ZM486.819 266C486.692 266 486.591 265.968 486.515 265.905C486.439 265.829 486.401 265.734 486.401 265.62C486.401 265.544 486.426 265.474 486.477 265.411L495.844 253.061C495.945 252.934 496.04 252.846 496.129 252.795C496.218 252.732 496.344 252.7 496.509 252.7H497.516C497.643 252.7 497.738 252.738 497.801 252.814C497.877 252.877 497.915 252.966 497.915 253.08C497.915 253.156 497.89 253.226 497.839 253.289L488.472 265.639C488.371 265.766 488.276 265.861 488.187 265.924C488.098 265.975 487.978 266 487.826 266H486.819ZM488.358 257.963C488.725 257.963 488.991 257.855 489.156 257.64C489.333 257.425 489.441 257.152 489.479 256.823C489.504 256.392 489.517 256.126 489.517 256.025C489.517 255.886 489.504 255.626 489.479 255.246C489.454 254.917 489.352 254.644 489.175 254.429C488.998 254.201 488.725 254.087 488.358 254.087C488.003 254.087 487.737 254.201 487.56 254.429C487.383 254.644 487.281 254.917 487.256 255.246C487.243 255.436 487.237 255.696 487.237 256.025C487.237 256.342 487.243 256.608 487.256 256.823C487.281 257.14 487.376 257.412 487.541 257.64C487.718 257.855 487.991 257.963 488.358 257.963ZM495.958 266.114C495.122 266.114 494.451 265.886 493.944 265.43C493.45 264.961 493.178 264.341 493.127 263.568C493.114 263.353 493.108 263.068 493.108 262.713C493.108 262.346 493.114 262.048 493.127 261.82C493.178 261.035 493.444 260.414 493.925 259.958C494.406 259.502 495.084 259.274 495.958 259.274C496.845 259.274 497.529 259.502 498.01 259.958C498.491 260.414 498.757 261.035 498.808 261.82C498.833 262.276 498.846 262.574 498.846 262.713C498.846 262.852 498.833 263.137 498.808 263.568C498.757 264.341 498.479 264.961 497.972 265.43C497.478 265.886 496.807 266.114 495.958 266.114ZM495.958 264.632C496.338 264.632 496.61 264.524 496.775 264.309C496.952 264.081 497.054 263.809 497.079 263.492C497.104 263.061 497.117 262.789 497.117 262.675C497.117 262.548 497.104 262.295 497.079 261.915C497.054 261.586 496.952 261.313 496.775 261.098C496.598 260.87 496.325 260.756 495.958 260.756C495.603 260.756 495.337 260.87 495.16 261.098C494.983 261.313 494.881 261.586 494.856 261.915C494.843 262.105 494.837 262.358 494.837 262.675C494.837 263.004 494.843 263.277 494.856 263.492C494.881 263.809 494.976 264.081 495.141 264.309C495.318 264.524 495.591 264.632 495.958 264.632Z" fill="white"/>
<path d="M455.254 428.9C455.127 428.9 455.019 428.856 454.931 428.767C454.842 428.691 454.798 428.583 454.798 428.444V427.114C453.886 427.025 453.1 426.804 452.442 426.449C451.796 426.094 451.302 425.664 450.96 425.157C450.63 424.638 450.453 424.087 450.428 423.504C450.428 423.403 450.466 423.314 450.542 423.238C450.63 423.149 450.732 423.105 450.846 423.105H452.556C452.708 423.105 452.822 423.137 452.898 423.2C452.986 423.251 453.069 423.339 453.145 423.466C453.284 423.897 453.575 424.258 454.019 424.549C454.475 424.84 455.095 424.986 455.881 424.986C456.755 424.986 457.413 424.84 457.857 424.549C458.313 424.245 458.541 423.833 458.541 423.314C458.541 422.972 458.427 422.687 458.199 422.459C457.971 422.231 457.622 422.035 457.154 421.87C456.698 421.693 456.02 421.484 455.121 421.243C453.626 420.888 452.53 420.42 451.834 419.837C451.137 419.254 450.789 418.418 450.789 417.329C450.789 416.341 451.143 415.505 451.853 414.821C452.575 414.137 453.556 413.719 454.798 413.567V412.256C454.798 412.117 454.842 412.009 454.931 411.933C455.019 411.844 455.127 411.8 455.254 411.8H456.432C456.571 411.8 456.679 411.844 456.755 411.933C456.843 412.009 456.888 412.117 456.888 412.256V413.605C457.711 413.719 458.414 413.966 458.997 414.346C459.592 414.713 460.042 415.144 460.346 415.638C460.662 416.132 460.833 416.613 460.859 417.082C460.859 417.196 460.821 417.291 460.745 417.367C460.669 417.443 460.574 417.481 460.46 417.481H458.655C458.389 417.481 458.205 417.367 458.104 417.139C458.028 416.734 457.774 416.398 457.344 416.132C456.926 415.853 456.4 415.714 455.767 415.714C455.07 415.714 454.519 415.847 454.114 416.113C453.721 416.379 453.525 416.765 453.525 417.272C453.525 417.614 453.62 417.899 453.81 418.127C454.012 418.355 454.329 418.558 454.76 418.735C455.203 418.912 455.83 419.102 456.641 419.305C457.768 419.558 458.661 419.843 459.32 420.16C459.991 420.477 460.485 420.876 460.802 421.357C461.118 421.838 461.277 422.453 461.277 423.2C461.277 424.302 460.878 425.195 460.08 425.879C459.294 426.563 458.23 426.975 456.888 427.114V428.444C456.888 428.583 456.843 428.691 456.755 428.767C456.679 428.856 456.571 428.9 456.432 428.9H455.254ZM467.234 427C467.108 427 467 426.956 466.911 426.867C466.823 426.778 466.778 426.671 466.778 426.544V416.74L463.909 418.944C463.833 419.007 463.738 419.039 463.624 419.039C463.472 419.039 463.352 418.976 463.263 418.849L462.446 417.785C462.383 417.696 462.351 417.608 462.351 417.519C462.351 417.367 462.421 417.24 462.56 417.139L466.816 413.833C466.956 413.744 467.114 413.7 467.291 413.7H469.001C469.128 413.7 469.236 413.744 469.324 413.833C469.413 413.922 469.457 414.029 469.457 414.156V426.544C469.457 426.671 469.413 426.778 469.324 426.867C469.236 426.956 469.128 427 469.001 427H467.234ZM472.381 427C472.254 427 472.146 426.956 472.058 426.867C471.969 426.778 471.925 426.671 471.925 426.544V424.625C471.925 424.498 471.969 424.391 472.058 424.302C472.146 424.213 472.254 424.169 472.381 424.169H474.3C474.426 424.169 474.534 424.213 474.623 424.302C474.711 424.391 474.756 424.498 474.756 424.625V426.544C474.756 426.671 474.711 426.778 474.623 426.867C474.547 426.956 474.439 427 474.3 427H472.381ZM481.934 427.19C480.237 427.19 478.97 426.721 478.134 425.784C477.311 424.847 476.861 423.618 476.785 422.098C476.772 421.756 476.766 421.173 476.766 420.35C476.766 419.514 476.772 418.919 476.785 418.564C476.848 417.069 477.304 415.853 478.153 414.916C479.002 413.979 480.262 413.51 481.934 413.51C483.606 413.51 484.866 413.979 485.715 414.916C486.564 415.853 487.02 417.069 487.083 418.564C487.108 419.273 487.121 419.869 487.121 420.35C487.121 420.831 487.108 421.414 487.083 422.098C487.007 423.618 486.551 424.847 485.715 425.784C484.892 426.721 483.631 427.19 481.934 427.19ZM481.934 424.967C482.719 424.967 483.308 424.714 483.701 424.207C484.094 423.688 484.303 422.953 484.328 422.003C484.341 421.636 484.347 421.072 484.347 420.312C484.347 419.552 484.341 419.001 484.328 418.659C484.303 417.734 484.094 417.012 483.701 416.493C483.308 415.974 482.719 415.708 481.934 415.695C481.149 415.708 480.56 415.974 480.167 416.493C479.774 417.012 479.565 417.734 479.54 418.659C479.527 419.001 479.521 419.552 479.521 420.312C479.521 421.072 479.527 421.636 479.54 422.003C479.565 422.953 479.774 423.688 480.167 424.207C480.56 424.714 481.149 424.967 481.934 424.967ZM494.459 427.19C492.761 427.19 491.495 426.721 490.659 425.784C489.835 424.847 489.386 423.618 489.31 422.098C489.297 421.756 489.291 421.173 489.291 420.35C489.291 419.514 489.297 418.919 489.31 418.564C489.373 417.069 489.829 415.853 490.678 414.916C491.526 413.979 492.787 413.51 494.459 413.51C496.131 413.51 497.391 413.979 498.24 414.916C499.088 415.853 499.544 417.069 499.608 418.564C499.633 419.273 499.646 419.869 499.646 420.35C499.646 420.831 499.633 421.414 499.608 422.098C499.532 423.618 499.076 424.847 498.24 425.784C497.416 426.721 496.156 427.19 494.459 427.19ZM494.459 424.967C495.244 424.967 495.833 424.714 496.226 424.207C496.618 423.688 496.827 422.953 496.853 422.003C496.865 421.636 496.872 421.072 496.872 420.312C496.872 419.552 496.865 419.001 496.853 418.659C496.827 417.734 496.618 417.012 496.226 416.493C495.833 415.974 495.244 415.708 494.459 415.695C493.673 415.708 493.084 415.974 492.692 416.493C492.299 417.012 492.09 417.734 492.065 418.659C492.052 419.001 492.046 419.552 492.046 420.312C492.046 421.072 492.052 421.636 492.065 422.003C492.09 422.953 492.299 423.688 492.692 424.207C493.084 424.714 493.673 424.967 494.459 424.967ZM506.983 427.19C505.286 427.19 504.019 426.721 503.183 425.784C502.36 424.847 501.91 423.618 501.834 422.098C501.821 421.756 501.815 421.173 501.815 420.35C501.815 419.514 501.821 418.919 501.834 418.564C501.897 417.069 502.353 415.853 503.202 414.916C504.051 413.979 505.311 413.51 506.983 413.51C508.655 413.51 509.915 413.979 510.764 414.916C511.613 415.853 512.069 417.069 512.132 418.564C512.157 419.273 512.17 419.869 512.17 420.35C512.17 420.831 512.157 421.414 512.132 422.098C512.056 423.618 511.6 424.847 510.764 425.784C509.941 426.721 508.68 427.19 506.983 427.19ZM506.983 424.967C507.768 424.967 508.357 424.714 508.75 424.207C509.143 423.688 509.352 422.953 509.377 422.003C509.39 421.636 509.396 421.072 509.396 420.312C509.396 419.552 509.39 419.001 509.377 418.659C509.352 417.734 509.143 417.012 508.75 416.493C508.357 415.974 507.768 415.708 506.983 415.695C506.198 415.708 505.609 415.974 505.216 416.493C504.823 417.012 504.614 417.734 504.589 418.659C504.576 419.001 504.57 419.552 504.57 420.312C504.57 421.072 504.576 421.636 504.589 422.003C504.614 422.953 504.823 423.688 505.216 424.207C505.609 424.714 506.198 424.967 506.983 424.967Z" fill="white"/>
<path d="M545.5 140C545.5 135.582 549.082 132 553.5 132H605.5C609.918 132 613.5 135.582 613.5 140V401H545.5V140Z" fill="url(#paint6_linear_134_6477)"/>
<path d="M566.997 166C566.87 166 566.763 165.956 566.674 165.867C566.585 165.778 566.541 165.671 566.541 165.544V155.74L563.672 157.944C563.596 158.007 563.501 158.039 563.387 158.039C563.235 158.039 563.115 157.976 563.026 157.849L562.209 156.785C562.146 156.696 562.114 156.608 562.114 156.519C562.114 156.367 562.184 156.24 562.323 156.139L566.579 152.833C566.718 152.744 566.877 152.7 567.054 152.7H568.764C568.891 152.7 568.998 152.744 569.087 152.833C569.176 152.922 569.22 153.029 569.22 153.156V165.544C569.22 165.671 569.176 165.778 569.087 165.867C568.998 165.956 568.891 166 568.764 166H566.997ZM576.38 166.209C575.329 166.209 574.417 166.032 573.644 165.677C572.884 165.322 572.308 164.854 571.915 164.271C571.523 163.688 571.314 163.061 571.288 162.39V162.352C571.288 162.251 571.326 162.168 571.402 162.105C571.491 162.029 571.586 161.991 571.687 161.991H573.492C573.784 161.991 573.967 162.118 574.043 162.371C574.221 162.928 574.512 163.34 574.917 163.606C575.335 163.872 575.823 164.005 576.38 164.005C577.09 164.005 577.672 163.79 578.128 163.359C578.597 162.928 578.831 162.333 578.831 161.573C578.831 160.889 578.597 160.338 578.128 159.92C577.672 159.489 577.09 159.274 576.38 159.274C576 159.274 575.69 159.325 575.449 159.426C575.209 159.527 574.974 159.667 574.746 159.844C574.721 159.857 574.664 159.895 574.575 159.958C574.487 160.021 574.404 160.066 574.328 160.091C574.265 160.116 574.195 160.129 574.119 160.129H572.333C572.219 160.129 572.118 160.091 572.029 160.015C571.953 159.926 571.915 159.825 571.915 159.711L572.561 153.232C572.574 153.067 572.631 152.941 572.732 152.852C572.846 152.751 572.979 152.7 573.131 152.7H580.275C580.415 152.7 580.522 152.744 580.598 152.833C580.687 152.909 580.731 153.017 580.731 153.156V154.448C580.731 154.575 580.687 154.682 580.598 154.771C580.522 154.86 580.415 154.904 580.275 154.904H574.784L574.48 157.982C574.772 157.792 575.107 157.64 575.487 157.526C575.867 157.399 576.361 157.336 576.969 157.336C577.793 157.336 578.553 157.513 579.249 157.868C579.959 158.21 580.522 158.71 580.94 159.369C581.371 160.015 581.586 160.769 581.586 161.63C581.586 162.555 581.371 163.365 580.94 164.062C580.51 164.746 579.902 165.278 579.116 165.658C578.331 166.025 577.419 166.209 576.38 166.209ZM585.996 159.388C585.16 159.388 584.489 159.166 583.982 158.723C583.488 158.28 583.216 157.678 583.165 156.918C583.152 156.703 583.146 156.418 583.146 156.063C583.146 155.683 583.152 155.379 583.165 155.151C583.216 154.366 583.482 153.745 583.963 153.289C584.444 152.833 585.122 152.605 585.996 152.605C586.87 152.605 587.548 152.833 588.029 153.289C588.523 153.745 588.795 154.366 588.846 155.151C588.871 155.607 588.884 155.911 588.884 156.063C588.884 156.202 588.871 156.487 588.846 156.918C588.795 157.678 588.517 158.28 588.01 158.723C587.516 159.166 586.845 159.388 585.996 159.388ZM584.457 166C584.33 166 584.229 165.968 584.153 165.905C584.077 165.829 584.039 165.734 584.039 165.62C584.039 165.544 584.064 165.474 584.115 165.411L593.482 153.061C593.583 152.934 593.678 152.846 593.767 152.795C593.856 152.732 593.982 152.7 594.147 152.7H595.154C595.281 152.7 595.376 152.738 595.439 152.814C595.515 152.877 595.553 152.966 595.553 153.08C595.553 153.156 595.528 153.226 595.477 153.289L586.11 165.639C586.009 165.766 585.914 165.861 585.825 165.924C585.736 165.975 585.616 166 585.464 166H584.457ZM585.996 157.963C586.363 157.963 586.629 157.855 586.794 157.64C586.971 157.425 587.079 157.152 587.117 156.823C587.142 156.392 587.155 156.126 587.155 156.025C587.155 155.886 587.142 155.626 587.117 155.246C587.092 154.917 586.99 154.644 586.813 154.429C586.636 154.201 586.363 154.087 585.996 154.087C585.641 154.087 585.375 154.201 585.198 154.429C585.021 154.644 584.919 154.917 584.894 155.246C584.881 155.436 584.875 155.696 584.875 156.025C584.875 156.342 584.881 156.608 584.894 156.823C584.919 157.14 585.014 157.412 585.179 157.64C585.356 157.855 585.629 157.963 585.996 157.963ZM593.596 166.114C592.76 166.114 592.089 165.886 591.582 165.43C591.088 164.961 590.816 164.341 590.765 163.568C590.752 163.353 590.746 163.068 590.746 162.713C590.746 162.346 590.752 162.048 590.765 161.82C590.816 161.035 591.082 160.414 591.563 159.958C592.044 159.502 592.722 159.274 593.596 159.274C594.483 159.274 595.167 159.502 595.648 159.958C596.129 160.414 596.395 161.035 596.446 161.82C596.471 162.276 596.484 162.574 596.484 162.713C596.484 162.852 596.471 163.137 596.446 163.568C596.395 164.341 596.117 164.961 595.61 165.43C595.116 165.886 594.445 166.114 593.596 166.114ZM593.596 164.632C593.976 164.632 594.248 164.524 594.413 164.309C594.59 164.081 594.692 163.809 594.717 163.492C594.742 163.061 594.755 162.789 594.755 162.675C594.755 162.548 594.742 162.295 594.717 161.915C594.692 161.586 594.59 161.313 594.413 161.098C594.236 160.87 593.963 160.756 593.596 160.756C593.241 160.756 592.975 160.87 592.798 161.098C592.621 161.313 592.519 161.586 592.494 161.915C592.481 162.105 592.475 162.358 592.475 162.675C592.475 163.004 592.481 163.277 592.494 163.492C592.519 163.809 592.614 164.081 592.779 164.309C592.956 164.524 593.229 164.632 593.596 164.632Z" fill="white"/>
<path d="M545.6 428.9C545.473 428.9 545.366 428.856 545.277 428.767C545.188 428.691 545.144 428.583 545.144 428.444V427.114C544.232 427.025 543.447 426.804 542.788 426.449C542.142 426.094 541.648 425.664 541.306 425.157C540.977 424.638 540.799 424.087 540.774 423.504C540.774 423.403 540.812 423.314 540.888 423.238C540.977 423.149 541.078 423.105 541.192 423.105H542.902C543.054 423.105 543.168 423.137 543.244 423.2C543.333 423.251 543.415 423.339 543.491 423.466C543.63 423.897 543.922 424.258 544.365 424.549C544.821 424.84 545.442 424.986 546.227 424.986C547.101 424.986 547.76 424.84 548.203 424.549C548.659 424.245 548.887 423.833 548.887 423.314C548.887 422.972 548.773 422.687 548.545 422.459C548.317 422.231 547.969 422.035 547.5 421.87C547.044 421.693 546.366 421.484 545.467 421.243C543.972 420.888 542.877 420.42 542.18 419.837C541.483 419.254 541.135 418.418 541.135 417.329C541.135 416.341 541.49 415.505 542.199 414.821C542.921 414.137 543.903 413.719 545.144 413.567V412.256C545.144 412.117 545.188 412.009 545.277 411.933C545.366 411.844 545.473 411.8 545.6 411.8H546.778C546.917 411.8 547.025 411.844 547.101 411.933C547.19 412.009 547.234 412.117 547.234 412.256V413.605C548.057 413.719 548.76 413.966 549.343 414.346C549.938 414.713 550.388 415.144 550.692 415.638C551.009 416.132 551.18 416.613 551.205 417.082C551.205 417.196 551.167 417.291 551.091 417.367C551.015 417.443 550.92 417.481 550.806 417.481H549.001C548.735 417.481 548.551 417.367 548.45 417.139C548.374 416.734 548.121 416.398 547.69 416.132C547.272 415.853 546.746 415.714 546.113 415.714C545.416 415.714 544.865 415.847 544.46 416.113C544.067 416.379 543.871 416.765 543.871 417.272C543.871 417.614 543.966 417.899 544.156 418.127C544.359 418.355 544.675 418.558 545.106 418.735C545.549 418.912 546.176 419.102 546.987 419.305C548.114 419.558 549.007 419.843 549.666 420.16C550.337 420.477 550.831 420.876 551.148 421.357C551.465 421.838 551.623 422.453 551.623 423.2C551.623 424.302 551.224 425.195 550.426 425.879C549.641 426.563 548.577 426.975 547.234 427.114V428.444C547.234 428.583 547.19 428.691 547.101 428.767C547.025 428.856 546.917 428.9 546.778 428.9H545.6ZM558.15 427.209C557.099 427.209 556.187 427.032 555.414 426.677C554.654 426.322 554.078 425.854 553.685 425.271C553.293 424.688 553.084 424.061 553.058 423.39V423.352C553.058 423.251 553.096 423.168 553.172 423.105C553.261 423.029 553.356 422.991 553.457 422.991H555.262C555.554 422.991 555.737 423.118 555.813 423.371C555.991 423.928 556.282 424.34 556.687 424.606C557.105 424.872 557.593 425.005 558.15 425.005C558.86 425.005 559.442 424.79 559.898 424.359C560.367 423.928 560.601 423.333 560.601 422.573C560.601 421.889 560.367 421.338 559.898 420.92C559.442 420.489 558.86 420.274 558.15 420.274C557.77 420.274 557.46 420.325 557.219 420.426C556.979 420.527 556.744 420.667 556.516 420.844C556.491 420.857 556.434 420.895 556.345 420.958C556.257 421.021 556.174 421.066 556.098 421.091C556.035 421.116 555.965 421.129 555.889 421.129H554.103C553.989 421.129 553.888 421.091 553.799 421.015C553.723 420.926 553.685 420.825 553.685 420.711L554.331 414.232C554.344 414.067 554.401 413.941 554.502 413.852C554.616 413.751 554.749 413.7 554.901 413.7H562.045C562.185 413.7 562.292 413.744 562.368 413.833C562.457 413.909 562.501 414.017 562.501 414.156V415.448C562.501 415.575 562.457 415.682 562.368 415.771C562.292 415.86 562.185 415.904 562.045 415.904H556.554L556.25 418.982C556.542 418.792 556.877 418.64 557.257 418.526C557.637 418.399 558.131 418.336 558.739 418.336C559.563 418.336 560.323 418.513 561.019 418.868C561.729 419.21 562.292 419.71 562.71 420.369C563.141 421.015 563.356 421.769 563.356 422.63C563.356 423.555 563.141 424.365 562.71 425.062C562.28 425.746 561.672 426.278 560.886 426.658C560.101 427.025 559.189 427.209 558.15 427.209ZM570.369 427.19C568.672 427.19 567.405 426.721 566.569 425.784C565.746 424.847 565.296 423.618 565.22 422.098C565.207 421.756 565.201 421.173 565.201 420.35C565.201 419.514 565.207 418.919 565.22 418.564C565.283 417.069 565.739 415.853 566.588 414.916C567.437 413.979 568.697 413.51 570.369 413.51C572.041 413.51 573.301 413.979 574.15 414.916C574.999 415.853 575.455 417.069 575.518 418.564C575.543 419.273 575.556 419.869 575.556 420.35C575.556 420.831 575.543 421.414 575.518 422.098C575.442 423.618 574.986 424.847 574.15 425.784C573.327 426.721 572.066 427.19 570.369 427.19ZM570.369 424.967C571.154 424.967 571.743 424.714 572.136 424.207C572.529 423.688 572.738 422.953 572.763 422.003C572.776 421.636 572.782 421.072 572.782 420.312C572.782 419.552 572.776 419.001 572.763 418.659C572.738 417.734 572.529 417.012 572.136 416.493C571.743 415.974 571.154 415.708 570.369 415.695C569.584 415.708 568.995 415.974 568.602 416.493C568.209 417.012 568 417.734 567.975 418.659C567.962 419.001 567.956 419.552 567.956 420.312C567.956 421.072 567.962 421.636 567.975 422.003C568 422.953 568.209 423.688 568.602 424.207C568.995 424.714 569.584 424.967 570.369 424.967ZM578.034 427C577.908 427 577.8 426.956 577.711 426.867C577.623 426.778 577.578 426.671 577.578 426.544V424.625C577.578 424.498 577.623 424.391 577.711 424.302C577.8 424.213 577.908 424.169 578.034 424.169H579.953C580.08 424.169 580.188 424.213 580.276 424.302C580.365 424.391 580.409 424.498 580.409 424.625V426.544C580.409 426.671 580.365 426.778 580.276 426.867C580.2 426.956 580.093 427 579.953 427H578.034ZM587.588 427.19C585.891 427.19 584.624 426.721 583.788 425.784C582.965 424.847 582.515 423.618 582.439 422.098C582.426 421.756 582.42 421.173 582.42 420.35C582.42 419.514 582.426 418.919 582.439 418.564C582.502 417.069 582.958 415.853 583.807 414.916C584.656 413.979 585.916 413.51 587.588 413.51C589.26 413.51 590.52 413.979 591.369 414.916C592.218 415.853 592.674 417.069 592.737 418.564C592.762 419.273 592.775 419.869 592.775 420.35C592.775 420.831 592.762 421.414 592.737 422.098C592.661 423.618 592.205 424.847 591.369 425.784C590.546 426.721 589.285 427.19 587.588 427.19ZM587.588 424.967C588.373 424.967 588.962 424.714 589.355 424.207C589.748 423.688 589.957 422.953 589.982 422.003C589.995 421.636 590.001 421.072 590.001 420.312C590.001 419.552 589.995 419.001 589.982 418.659C589.957 417.734 589.748 417.012 589.355 416.493C588.962 415.974 588.373 415.708 587.588 415.695C586.803 415.708 586.214 415.974 585.821 416.493C585.428 417.012 585.219 417.734 585.194 418.659C585.181 419.001 585.175 419.552 585.175 420.312C585.175 421.072 585.181 421.636 585.194 422.003C585.219 422.953 585.428 423.688 585.821 424.207C586.214 424.714 586.803 424.967 587.588 424.967ZM600.112 427.19C598.415 427.19 597.148 426.721 596.312 425.784C595.489 424.847 595.039 423.618 594.963 422.098C594.951 421.756 594.944 421.173 594.944 420.35C594.944 419.514 594.951 418.919 594.963 418.564C595.027 417.069 595.483 415.853 596.331 414.916C597.18 413.979 598.44 413.51 600.112 413.51C601.784 413.51 603.045 413.979 603.893 414.916C604.742 415.853 605.198 417.069 605.261 418.564C605.287 419.273 605.299 419.869 605.299 420.35C605.299 420.831 605.287 421.414 605.261 422.098C605.185 423.618 604.729 424.847 603.893 425.784C603.07 426.721 601.81 427.19 600.112 427.19ZM600.112 424.967C600.898 424.967 601.487 424.714 601.879 424.207C602.272 423.688 602.481 422.953 602.506 422.003C602.519 421.636 602.525 421.072 602.525 420.312C602.525 419.552 602.519 419.001 602.506 418.659C602.481 417.734 602.272 417.012 601.879 416.493C601.487 415.974 600.898 415.708 600.112 415.695C599.327 415.708 598.738 415.974 598.345 416.493C597.953 417.012 597.744 417.734 597.718 418.659C597.706 419.001 597.699 419.552 597.699 420.312C597.699 421.072 597.706 421.636 597.718 422.003C597.744 422.953 597.953 423.688 598.345 424.207C598.738 424.714 599.327 424.967 600.112 424.967ZM612.637 427.19C610.939 427.19 609.673 426.721 608.837 425.784C608.013 424.847 607.564 423.618 607.488 422.098C607.475 421.756 607.469 421.173 607.469 420.35C607.469 419.514 607.475 418.919 607.488 418.564C607.551 417.069 608.007 415.853 608.856 414.916C609.704 413.979 610.965 413.51 612.637 413.51C614.309 413.51 615.569 413.979 616.418 414.916C617.266 415.853 617.722 417.069 617.786 418.564C617.811 419.273 617.824 419.869 617.824 420.35C617.824 420.831 617.811 421.414 617.786 422.098C617.71 423.618 617.254 424.847 616.418 425.784C615.594 426.721 614.334 427.19 612.637 427.19ZM612.637 424.967C613.422 424.967 614.011 424.714 614.404 424.207C614.796 423.688 615.005 422.953 615.031 422.003C615.043 421.636 615.05 421.072 615.05 420.312C615.05 419.552 615.043 419.001 615.031 418.659C615.005 417.734 614.796 417.012 614.404 416.493C614.011 415.974 613.422 415.708 612.637 415.695C611.851 415.708 611.262 415.974 610.87 416.493C610.477 417.012 610.268 417.734 610.243 418.659C610.23 419.001 610.224 419.552 610.224 420.312C610.224 421.072 610.23 421.636 610.243 422.003C610.268 422.953 610.477 423.688 610.87 424.207C611.262 424.714 611.851 424.967 612.637 424.967Z" fill="white"/>
<path d="M646.5 40C646.5 35.5817 650.082 32 654.5 32H710.5C714.918 32 718.5 35.5817 718.5 40V401H646.5V40Z" fill="url(#paint7_linear_134_6477)"/>
<path d="M664.199 66C664.072 66 663.964 65.9557 663.876 65.867C663.787 65.7783 663.743 65.6707 663.743 65.544V64.556C663.743 64.2013 663.901 63.9037 664.218 63.663L667.182 60.718C668.081 60.0087 668.771 59.4323 669.253 58.989C669.747 58.533 670.114 58.115 670.355 57.735C670.595 57.355 670.716 56.9813 670.716 56.614C670.716 56.0187 670.557 55.55 670.241 55.208C669.924 54.866 669.443 54.695 668.797 54.695C668.163 54.695 667.663 54.885 667.296 55.265C666.941 55.6323 666.719 56.1137 666.631 56.709C666.593 56.861 666.517 56.975 666.403 57.051C666.301 57.1143 666.187 57.146 666.061 57.146H664.351C664.237 57.146 664.142 57.108 664.066 57.032C663.99 56.956 663.952 56.861 663.952 56.747C663.977 55.9997 664.18 55.303 664.56 54.657C664.952 53.9983 665.51 53.4727 666.232 53.08C666.954 52.6747 667.802 52.472 668.778 52.472C669.791 52.472 670.652 52.6493 671.362 53.004C672.071 53.346 672.603 53.821 672.958 54.429C673.312 55.037 673.49 55.7273 673.49 56.5C673.49 57.3487 673.249 58.1213 672.768 58.818C672.299 59.502 671.564 60.2367 670.564 61.022L667.923 63.701H673.3C673.439 63.701 673.553 63.7453 673.642 63.834C673.73 63.9227 673.775 64.0367 673.775 64.176V65.544C673.775 65.6833 673.73 65.7973 673.642 65.886C673.553 65.962 673.439 66 673.3 66H664.199ZM680.921 66.19C679.224 66.19 677.957 65.7213 677.121 64.784C676.298 63.8467 675.848 62.618 675.772 61.098C675.759 60.756 675.753 60.1733 675.753 59.35C675.753 58.514 675.759 57.9187 675.772 57.564C675.835 56.0693 676.291 54.8533 677.14 53.916C677.989 52.9787 679.249 52.51 680.921 52.51C682.593 52.51 683.853 52.9787 684.702 53.916C685.551 54.8533 686.007 56.0693 686.07 57.564C686.095 58.2733 686.108 58.8687 686.108 59.35C686.108 59.8313 686.095 60.414 686.07 61.098C685.994 62.618 685.538 63.8467 684.702 64.784C683.879 65.7213 682.618 66.19 680.921 66.19ZM680.921 63.967C681.706 63.967 682.295 63.7137 682.688 63.207C683.081 62.6877 683.29 61.953 683.315 61.003C683.328 60.6357 683.334 60.072 683.334 59.312C683.334 58.552 683.328 58.001 683.315 57.659C683.29 56.7343 683.081 56.0123 682.688 55.493C682.295 54.9737 681.706 54.7077 680.921 54.695C680.136 54.7077 679.547 54.9737 679.154 55.493C678.761 56.0123 678.552 56.7343 678.527 57.659C678.514 58.001 678.508 58.552 678.508 59.312C678.508 60.072 678.514 60.6357 678.527 61.003C678.552 61.953 678.761 62.6877 679.154 63.207C679.547 63.7137 680.136 63.967 680.921 63.967ZM690.842 59.388C690.006 59.388 689.335 59.1663 688.828 58.723C688.334 58.2797 688.062 57.678 688.011 56.918C687.999 56.7027 687.992 56.4177 687.992 56.063C687.992 55.683 687.999 55.379 688.011 55.151C688.062 54.3657 688.328 53.745 688.809 53.289C689.291 52.833 689.968 52.605 690.842 52.605C691.716 52.605 692.394 52.833 692.875 53.289C693.369 53.745 693.642 54.3657 693.692 55.151C693.718 55.607 693.73 55.911 693.73 56.063C693.73 56.2023 693.718 56.4873 693.692 56.918C693.642 57.678 693.363 58.2797 692.856 58.723C692.362 59.1663 691.691 59.388 690.842 59.388ZM689.303 66C689.177 66 689.075 65.9683 688.999 65.905C688.923 65.829 688.885 65.734 688.885 65.62C688.885 65.544 688.911 65.4743 688.961 65.411L698.328 53.061C698.43 52.9343 698.525 52.8457 698.613 52.795C698.702 52.7317 698.829 52.7 698.993 52.7H700C700.127 52.7 700.222 52.738 700.285 52.814C700.361 52.8773 700.399 52.966 700.399 53.08C700.399 53.156 700.374 53.2257 700.323 53.289L690.956 65.639C690.855 65.7657 690.76 65.8607 690.671 65.924C690.583 65.9747 690.462 66 690.31 66H689.303ZM690.842 57.963C691.21 57.963 691.476 57.8553 691.64 57.64C691.818 57.4247 691.925 57.1523 691.963 56.823C691.989 56.3923 692.001 56.1263 692.001 56.025C692.001 55.8857 691.989 55.626 691.963 55.246C691.938 54.9167 691.837 54.6443 691.659 54.429C691.482 54.201 691.21 54.087 690.842 54.087C690.488 54.087 690.222 54.201 690.044 54.429C689.867 54.6443 689.766 54.9167 689.74 55.246C689.728 55.436 689.721 55.6957 689.721 56.025C689.721 56.3417 689.728 56.6077 689.74 56.823C689.766 57.1397 689.861 57.412 690.025 57.64C690.203 57.8553 690.475 57.963 690.842 57.963ZM698.442 66.114C697.606 66.114 696.935 65.886 696.428 65.43C695.934 64.9613 695.662 64.3407 695.611 63.568C695.599 63.3527 695.592 63.0677 695.592 62.713C695.592 62.3457 695.599 62.048 695.611 61.82C695.662 61.0347 695.928 60.414 696.409 59.958C696.891 59.502 697.568 59.274 698.442 59.274C699.329 59.274 700.013 59.502 700.494 59.958C700.976 60.414 701.242 61.0347 701.292 61.82C701.318 62.276 701.33 62.5737 701.33 62.713C701.33 62.8523 701.318 63.1373 701.292 63.568C701.242 64.3407 700.963 64.9613 700.456 65.43C699.962 65.886 699.291 66.114 698.442 66.114ZM698.442 64.632C698.822 64.632 699.095 64.5243 699.259 64.309C699.437 64.081 699.538 63.8087 699.563 63.492C699.589 63.0613 699.601 62.789 699.601 62.675C699.601 62.5483 699.589 62.295 699.563 61.915C699.538 61.5857 699.437 61.3133 699.259 61.098C699.082 60.87 698.81 60.756 698.442 60.756C698.088 60.756 697.822 60.87 697.644 61.098C697.467 61.3133 697.366 61.5857 697.34 61.915C697.328 62.105 697.321 62.3583 697.321 62.675C697.321 63.0043 697.328 63.2767 697.34 63.492C697.366 63.8087 697.461 64.081 697.625 64.309C697.803 64.5243 698.075 64.632 698.442 64.632Z" fill="white"/>
<path d="M648.609 428.9C648.482 428.9 648.375 428.856 648.286 428.767C648.197 428.691 648.153 428.583 648.153 428.444V427.114C647.241 427.025 646.456 426.804 645.797 426.449C645.151 426.094 644.657 425.664 644.315 425.157C643.986 424.638 643.808 424.087 643.783 423.504C643.783 423.403 643.821 423.314 643.897 423.238C643.986 423.149 644.087 423.105 644.201 423.105H645.911C646.063 423.105 646.177 423.137 646.253 423.2C646.342 423.251 646.424 423.339 646.5 423.466C646.639 423.897 646.931 424.258 647.374 424.549C647.83 424.84 648.451 424.986 649.236 424.986C650.11 424.986 650.769 424.84 651.212 424.549C651.668 424.245 651.896 423.833 651.896 423.314C651.896 422.972 651.782 422.687 651.554 422.459C651.326 422.231 650.978 422.035 650.509 421.87C650.053 421.693 649.375 421.484 648.476 421.243C646.981 420.888 645.886 420.42 645.189 419.837C644.492 419.254 644.144 418.418 644.144 417.329C644.144 416.341 644.499 415.505 645.208 414.821C645.93 414.137 646.912 413.719 648.153 413.567V412.256C648.153 412.117 648.197 412.009 648.286 411.933C648.375 411.844 648.482 411.8 648.609 411.8H649.787C649.926 411.8 650.034 411.844 650.11 411.933C650.199 412.009 650.243 412.117 650.243 412.256V413.605C651.066 413.719 651.769 413.966 652.352 414.346C652.947 414.713 653.397 415.144 653.701 415.638C654.018 416.132 654.189 416.613 654.214 417.082C654.214 417.196 654.176 417.291 654.1 417.367C654.024 417.443 653.929 417.481 653.815 417.481H652.01C651.744 417.481 651.56 417.367 651.459 417.139C651.383 416.734 651.13 416.398 650.699 416.132C650.281 415.853 649.755 415.714 649.122 415.714C648.425 415.714 647.874 415.847 647.469 416.113C647.076 416.379 646.88 416.765 646.88 417.272C646.88 417.614 646.975 417.899 647.165 418.127C647.368 418.355 647.684 418.558 648.115 418.735C648.558 418.912 649.185 419.102 649.996 419.305C651.123 419.558 652.016 419.843 652.675 420.16C653.346 420.477 653.84 420.876 654.157 421.357C654.474 421.838 654.632 422.453 654.632 423.2C654.632 424.302 654.233 425.195 653.435 425.879C652.65 426.563 651.586 426.975 650.243 427.114V428.444C650.243 428.583 650.199 428.691 650.11 428.767C650.034 428.856 649.926 428.9 649.787 428.9H648.609ZM656.638 427C656.511 427 656.403 426.956 656.315 426.867C656.226 426.778 656.182 426.671 656.182 426.544V425.556C656.182 425.201 656.34 424.904 656.657 424.663L659.621 421.718C660.52 421.009 661.21 420.432 661.692 419.989C662.186 419.533 662.553 419.115 662.794 418.735C663.034 418.355 663.155 417.981 663.155 417.614C663.155 417.019 662.996 416.55 662.68 416.208C662.363 415.866 661.882 415.695 661.236 415.695C660.602 415.695 660.102 415.885 659.735 416.265C659.38 416.632 659.158 417.114 659.07 417.709C659.032 417.861 658.956 417.975 658.842 418.051C658.74 418.114 658.626 418.146 658.5 418.146H656.79C656.676 418.146 656.581 418.108 656.505 418.032C656.429 417.956 656.391 417.861 656.391 417.747C656.416 417 656.619 416.303 656.999 415.657C657.391 414.998 657.949 414.473 658.671 414.08C659.393 413.675 660.241 413.472 661.217 413.472C662.23 413.472 663.091 413.649 663.801 414.004C664.51 414.346 665.042 414.821 665.397 415.429C665.751 416.037 665.929 416.727 665.929 417.5C665.929 418.349 665.688 419.121 665.207 419.818C664.738 420.502 664.003 421.237 663.003 422.022L660.362 424.701H665.739C665.878 424.701 665.992 424.745 666.081 424.834C666.169 424.923 666.214 425.037 666.214 425.176V426.544C666.214 426.683 666.169 426.797 666.081 426.886C665.992 426.962 665.878 427 665.739 427H656.638ZM673.36 427.19C671.663 427.19 670.396 426.721 669.56 425.784C668.737 424.847 668.287 423.618 668.211 422.098C668.198 421.756 668.192 421.173 668.192 420.35C668.192 419.514 668.198 418.919 668.211 418.564C668.274 417.069 668.73 415.853 669.579 414.916C670.428 413.979 671.688 413.51 673.36 413.51C675.032 413.51 676.292 413.979 677.141 414.916C677.99 415.853 678.446 417.069 678.509 418.564C678.534 419.273 678.547 419.869 678.547 420.35C678.547 420.831 678.534 421.414 678.509 422.098C678.433 423.618 677.977 424.847 677.141 425.784C676.318 426.721 675.057 427.19 673.36 427.19ZM673.36 424.967C674.145 424.967 674.734 424.714 675.127 424.207C675.52 423.688 675.729 422.953 675.754 422.003C675.767 421.636 675.773 421.072 675.773 420.312C675.773 419.552 675.767 419.001 675.754 418.659C675.729 417.734 675.52 417.012 675.127 416.493C674.734 415.974 674.145 415.708 673.36 415.695C672.575 415.708 671.986 415.974 671.593 416.493C671.2 417.012 670.991 417.734 670.966 418.659C670.953 419.001 670.947 419.552 670.947 420.312C670.947 421.072 670.953 421.636 670.966 422.003C670.991 422.953 671.2 423.688 671.593 424.207C671.986 424.714 672.575 424.967 673.36 424.967ZM681.025 427C680.899 427 680.791 426.956 680.702 426.867C680.614 426.778 680.569 426.671 680.569 426.544V424.625C680.569 424.498 680.614 424.391 680.702 424.302C680.791 424.213 680.899 424.169 681.025 424.169H682.944C683.071 424.169 683.179 424.213 683.267 424.302C683.356 424.391 683.4 424.498 683.4 424.625V426.544C683.4 426.671 683.356 426.778 683.267 426.867C683.191 426.956 683.084 427 682.944 427H681.025ZM690.579 427.19C688.881 427.19 687.615 426.721 686.779 425.784C685.955 424.847 685.506 423.618 685.43 422.098C685.417 421.756 685.411 421.173 685.411 420.35C685.411 419.514 685.417 418.919 685.43 418.564C685.493 417.069 685.949 415.853 686.798 414.916C687.646 413.979 688.907 413.51 690.579 413.51C692.251 413.51 693.511 413.979 694.36 414.916C695.208 415.853 695.664 417.069 695.728 418.564C695.753 419.273 695.766 419.869 695.766 420.35C695.766 420.831 695.753 421.414 695.728 422.098C695.652 423.618 695.196 424.847 694.36 425.784C693.536 426.721 692.276 427.19 690.579 427.19ZM690.579 424.967C691.364 424.967 691.953 424.714 692.346 424.207C692.738 423.688 692.947 422.953 692.973 422.003C692.985 421.636 692.992 421.072 692.992 420.312C692.992 419.552 692.985 419.001 692.973 418.659C692.947 417.734 692.738 417.012 692.346 416.493C691.953 415.974 691.364 415.708 690.579 415.695C689.793 415.708 689.204 415.974 688.812 416.493C688.419 417.012 688.21 417.734 688.185 418.659C688.172 419.001 688.166 419.552 688.166 420.312C688.166 421.072 688.172 421.636 688.185 422.003C688.21 422.953 688.419 423.688 688.812 424.207C689.204 424.714 689.793 424.967 690.579 424.967ZM703.103 427.19C701.406 427.19 700.139 426.721 699.303 425.784C698.48 424.847 698.03 423.618 697.954 422.098C697.941 421.756 697.935 421.173 697.935 420.35C697.935 419.514 697.941 418.919 697.954 418.564C698.017 417.069 698.473 415.853 699.322 414.916C700.171 413.979 701.431 413.51 703.103 413.51C704.775 413.51 706.035 413.979 706.884 414.916C707.733 415.853 708.189 417.069 708.252 418.564C708.277 419.273 708.29 419.869 708.29 420.35C708.29 420.831 708.277 421.414 708.252 422.098C708.176 423.618 707.72 424.847 706.884 425.784C706.061 426.721 704.8 427.19 703.103 427.19ZM703.103 424.967C703.888 424.967 704.477 424.714 704.87 424.207C705.263 423.688 705.472 422.953 705.497 422.003C705.51 421.636 705.516 421.072 705.516 420.312C705.516 419.552 705.51 419.001 705.497 418.659C705.472 417.734 705.263 417.012 704.87 416.493C704.477 415.974 703.888 415.708 703.103 415.695C702.318 415.708 701.729 415.974 701.336 416.493C700.943 417.012 700.734 417.734 700.709 418.659C700.696 419.001 700.69 419.552 700.69 420.312C700.69 421.072 700.696 421.636 700.709 422.003C700.734 422.953 700.943 423.688 701.336 424.207C701.729 424.714 702.318 424.967 703.103 424.967ZM715.627 427.19C713.93 427.19 712.663 426.721 711.827 425.784C711.004 424.847 710.554 423.618 710.478 422.098C710.466 421.756 710.459 421.173 710.459 420.35C710.459 419.514 710.466 418.919 710.478 418.564C710.542 417.069 710.998 415.853 711.846 414.916C712.695 413.979 713.955 413.51 715.627 413.51C717.299 413.51 718.56 413.979 719.408 414.916C720.257 415.853 720.713 417.069 720.776 418.564C720.802 419.273 720.814 419.869 720.814 420.35C720.814 420.831 720.802 421.414 720.776 422.098C720.7 423.618 720.244 424.847 719.408 425.784C718.585 426.721 717.325 427.19 715.627 427.19ZM715.627 424.967C716.413 424.967 717.002 424.714 717.394 424.207C717.787 423.688 717.996 422.953 718.021 422.003C718.034 421.636 718.04 421.072 718.04 420.312C718.04 419.552 718.034 419.001 718.021 418.659C717.996 417.734 717.787 417.012 717.394 416.493C717.002 415.974 716.413 415.708 715.627 415.695C714.842 415.708 714.253 415.974 713.86 416.493C713.468 417.012 713.259 417.734 713.233 418.659C713.221 419.001 713.214 419.552 713.214 420.312C713.214 421.072 713.221 421.636 713.233 422.003C713.259 422.953 713.468 423.688 713.86 424.207C714.253 424.714 714.842 424.967 715.627 424.967Z" fill="white"/>
<defs>
<linearGradient id="paint0_linear_134_6477" x1="61.5" y1="332" x2="61.5" y2="401" gradientUnits="userSpaceOnUse">
<stop stop-color="#5F73FA"/>
<stop offset="1" stop-color="#7947E4" stop-opacity="0"/>
</linearGradient>
<linearGradient id="paint1_linear_134_6477" x1="144.5" y1="312" x2="144.5" y2="401" gradientUnits="userSpaceOnUse">
<stop stop-color="#5F73FA"/>
<stop offset="1" stop-color="#7947E4" stop-opacity="0"/>
</linearGradient>
<linearGradient id="paint2_linear_134_6477" x1="227" y1="292" x2="227" y2="401" gradientUnits="userSpaceOnUse">
<stop stop-color="#5F73FA"/>
<stop offset="1" stop-color="#7947E4" stop-opacity="0"/>
</linearGradient>
<linearGradient id="paint3_linear_134_6477" x1="310" y1="272" x2="310" y2="401" gradientUnits="userSpaceOnUse">
<stop stop-color="#5F73FA"/>
<stop offset="1" stop-color="#7947E4" stop-opacity="0"/>
</linearGradient>
<linearGradient id="paint4_linear_134_6477" x1="393.5" y1="252" x2="393.5" y2="401" gradientUnits="userSpaceOnUse">
<stop stop-color="#5F73FA"/>
<stop offset="1" stop-color="#7947E4" stop-opacity="0"/>
</linearGradient>
<linearGradient id="paint5_linear_134_6477" x1="481.5" y1="232" x2="481.5" y2="401" gradientUnits="userSpaceOnUse">
<stop stop-color="#5F73FA"/>
<stop offset="1" stop-color="#7947E4" stop-opacity="0"/>
</linearGradient>
<linearGradient id="paint6_linear_134_6477" x1="579.5" y1="132" x2="579.5" y2="401" gradientUnits="userSpaceOnUse">
<stop stop-color="#5F73FA"/>
<stop offset="1" stop-color="#7947E4" stop-opacity="0"/>
</linearGradient>
<linearGradient id="paint7_linear_134_6477" x1="682.5" y1="32" x2="682.5" y2="401" gradientUnits="userSpaceOnUse">
<stop stop-color="#5F73FA"/>
<stop offset="1" stop-color="#7947E4" stop-opacity="0"/>
</linearGradient>
</defs>
</svg>
