<svg width="40" height="40" viewBox="0 0 40 40" fill="none" xmlns="http://www.w3.org/2000/svg">
<path d="M39.9111 21.8706H0.0898438V21.8712H39.9111V21.8706Z" fill="#C42126"/>
<path d="M37.8361 10.9526H2.16455V10.9532H37.8361V10.9526Z" fill="#C42126"/>
<path d="M39.2529 14.5913H0.745605V14.5919H39.2529V14.5913Z" fill="#C42126"/>
<path d="M8.59599 36.4266H31.4044L31.4055 36.4253H8.59473L8.59599 36.4266Z" fill="#C42126"/>
<path d="M20 0C19.6071 0 19.2174 0.0141869 18.8306 0.0363117H21.1696C20.7824 0.0141869 20.3928 0 20 0Z" fill="#C42126"/>
<path d="M39.9164 18.231H0.0825195V18.2315H39.9164V18.231Z" fill="#C42126"/>
<path d="M25.9109 7.3138H35.4611C34.3267 5.93286 33.0083 4.71042 31.5478 3.67554H24.3765C24.9699 4.71954 25.4802 5.95143 25.9109 7.3138Z" fill="#E7E7E7"/>
<path d="M24.3767 3.67557H31.548C28.5833 1.57464 25.024 0.258976 21.1695 0.036377H20.5537C22.3679 0.264718 23.2013 1.60741 24.3767 3.67557Z" fill="#DC3027"/>
<path d="M39.2542 14.5916C38.8986 13.3234 38.4217 12.1066 37.8357 10.9534H26.8486C27.0712 12.1215 27.2469 13.3417 27.3769 14.5916H39.2542Z" fill="#E7E7E7"/>
<path d="M26.2303 10.9528H37.835C37.1737 9.6521 36.3793 8.43152 35.4609 7.31396H25.3237C25.6812 8.44545 25.9847 9.66603 26.2303 10.9528Z" fill="#DC3027"/>
<path d="M27.7979 21.8697H39.91C39.9675 21.2543 40 20.6306 40 20.0003C40 19.4037 39.9688 18.8148 39.9176 18.2312H27.8007C27.8402 19.4413 27.8395 20.6603 27.7979 21.8697Z" fill="#E7E7E7"/>
<path d="M39.9172 18.2305C39.8076 16.9809 39.5825 15.7652 39.2537 14.5923H26.8662C26.9906 15.7837 27.0728 17.0027 27.1129 18.2305H39.9172Z" fill="#DC3027"/>
<path d="M26.6392 29.1479H37.7828C38.3771 27.9959 38.8615 26.7782 39.2247 25.509H27.1779C27.0453 26.7609 26.8652 27.9808 26.6392 29.1479Z" fill="#E7E7E7"/>
<path d="M39.2255 25.5086C39.5611 24.3361 39.7942 23.1203 39.9101 21.8704H27.4202C27.3776 23.0991 27.2929 24.3178 27.166 25.5086H39.2255Z" fill="#DC3027"/>
<path d="M31.4053 36.4251C32.887 35.3944 34.2241 34.1707 35.3764 32.7869H25.9927C25.5541 34.1549 25.0333 35.3848 24.4292 36.4251H31.4053Z" fill="#E7E7E7"/>
<path d="M25.6396 32.7868H35.3764C36.3055 31.6705 37.112 30.4499 37.783 29.1479H26.5577C26.3085 30.4357 26.0019 31.6568 25.6396 32.7868Z" fill="#DC3027"/>
<path d="M19.2751 39.9858C19.2346 39.9846 19.1943 39.9827 19.1538 39.9814C19.1943 39.9826 19.2347 39.9846 19.2751 39.9858Z" fill="#DC3027"/>
<path d="M20 40C24.2401 40 28.1689 38.6765 31.4045 36.4265H24.1662C22.8815 38.6398 22.034 40 20 40Z" fill="#DC3027"/>
<path d="M19.9996 40C19.7568 40 19.5155 39.9944 19.2749 39.9858C19.518 39.994 19.7595 40 19.9996 40Z" fill="#C42126"/>
<path d="M25.0383 3.67554H8.45172C6.9909 4.71042 5.67278 5.93277 4.53809 7.3138H26.5724C26.1417 5.95143 25.6317 4.71954 25.0383 3.67554Z" fill="#F3F4F5"/>
<path d="M8.45215 3.67557H25.0387C23.8631 1.60741 22.3678 0.264718 20.5536 0.036377H18.8303C14.9757 0.258976 11.4164 1.57464 8.45215 3.67557Z" fill="#E73625"/>
<path d="M0.746094 14.5916H28.0077C27.8776 13.3414 27.702 12.1215 27.4794 10.9534H2.16461C1.57848 12.1067 1.10169 13.3234 0.746094 14.5916Z" fill="#F3F4F5"/>
<path d="M4.53881 7.31372C3.62114 8.43128 2.826 9.65177 2.16504 10.9526H27.4795C27.2341 9.66604 26.9307 8.44555 26.5731 7.31372C26.5731 7.31372 4.53881 7.31372 4.53881 7.31372Z" fill="#E73625"/>
<path d="M0 20.0002C0 20.6305 0.0328494 21.2543 0.0900192 21.8697H28.2519C28.2936 20.6602 28.2942 19.4416 28.2548 18.2314H0.082419C0.0312449 18.8148 0 19.4037 0 20.0002Z" fill="#F3F4F5"/>
<path d="M0.0825195 18.2305H28.2545C28.2144 17.0024 28.132 15.7838 28.0079 14.5923H0.745672C0.416925 15.7654 0.191792 16.9809 0.0825195 18.2305Z" fill="#E73625"/>
<path d="M27.9975 25.5088H0.774414C1.13762 26.7783 1.62233 27.9956 2.21632 29.1476H27.4588C27.6849 27.9808 27.8645 26.7609 27.9975 25.5088Z" fill="#F3F4F5"/>
<path d="M0.774445 25.5086H27.9976C28.1242 24.3178 28.2091 23.0988 28.2517 21.8704H0.0898438C0.205703 23.1206 0.439111 24.3361 0.774445 25.5086Z" fill="#E73625"/>
<path d="M8.5946 36.4251H24.9778C25.5819 35.3846 26.103 34.1549 26.5413 32.7869H4.62354C5.77588 34.1707 7.11257 35.3944 8.5946 36.4251Z" fill="#F3F4F5"/>
<path d="M2.2168 29.1477C2.88789 30.4497 3.69434 31.6703 4.62342 32.7866H26.5412C26.9032 31.6567 27.2098 30.4355 27.4589 29.1477H2.2168Z" fill="#E73625"/>
<path d="M19.1535 39.9812C19.194 39.9824 19.2343 39.9843 19.2748 39.9856C19.5155 39.9941 19.7567 39.9998 19.9995 39.9998C22.0336 39.9998 23.6921 38.6397 24.977 36.4263H8.5957C11.6144 38.5258 15.2378 39.8179 19.1535 39.9812Z" fill="#E73625"/>
<path d="M19.5863 0.0102539C9.33734 0.21875 0.98397 8.13208 0.0849609 18.1979H19.5866V0.0102539H19.5863Z" fill="#283991"/>
<path d="M4.00141 11.3315L4.30609 12.2697H5.29326L4.49466 12.8499L4.79967 13.7887L4.00141 13.2083L3.2034 13.7887L3.50782 12.8499L2.70947 12.2697H3.69664L4.00141 11.3315Z" fill="#EFEFEF"/>
<path d="M4.00141 14.646L4.30609 15.5848H5.29326L4.49466 16.1649L4.79967 17.1038L4.00141 16.5233L3.2034 17.1038L3.50782 16.1649L2.70947 15.5848H3.69664L4.00141 14.646Z" fill="#EFEFEF"/>
<path d="M7.31669 6.3584L7.62145 7.29693H8.60828L7.80993 7.87741L8.1147 8.8156L7.31669 8.2358L6.51834 8.8156L6.8231 7.87741L6.02441 7.29693H7.01158L7.31669 6.3584Z" fill="#EFEFEF"/>
<path d="M7.31669 9.67358L7.62145 10.6121H8.60828L7.80993 11.1919L8.1147 12.1308L7.31669 11.551L6.51834 12.1308L6.8231 11.1919L6.02441 10.6121H7.01158L7.31669 9.67358Z" fill="#EFEFEF"/>
<path d="M7.31669 12.9888L7.62145 13.9276H8.60828L7.80993 14.5071L8.1147 15.446L7.31669 14.8656L6.51834 15.446L6.8231 14.5071L6.02441 13.9276H7.01158L7.31669 12.9888Z" fill="#EFEFEF"/>
<path d="M1.48471 15.446L1.17969 14.5072L1.97804 13.9274H0.991465L0.96934 13.8589C0.860997 14.194 0.763124 14.5331 0.672852 14.876L0.686785 14.8656L1.48471 15.446Z" fill="#EFEFEF"/>
<path d="M3.20369 10.4736L4.0017 9.89318L4.80005 10.4736L4.49504 9.53471L5.29339 8.95431H4.30622L4.00145 8.01611L3.69669 8.95431H3.33289C3.26534 9.05666 3.19998 9.1596 3.13428 9.26347L3.5082 9.53471L3.20369 10.4736Z" fill="#EFEFEF"/>
<path d="M7.3166 4.92072L8.11462 5.50052L7.80985 4.56233L8.60786 3.98193H8.03785C7.55373 4.34387 7.08666 4.72691 6.63791 5.13107L6.51758 5.50052L7.3166 4.92072Z" fill="#EFEFEF"/>
<path d="M9.8335 3.84325L10.6319 3.26285L11.4299 3.84325L11.1251 2.90438L11.9231 2.32457H10.9363L10.8949 2.19824C10.5605 2.36908 10.2295 2.54683 9.90612 2.73599L10.1379 2.90429L9.8335 3.84325Z" fill="#EFEFEF"/>
<path d="M10.632 4.70117L10.9368 5.63911H11.9236L11.1253 6.2195L11.4301 7.15837L10.632 6.57789L9.83369 7.15837L10.1385 6.2195L9.33984 5.63911H10.3269L10.632 4.70117Z" fill="#EFEFEF"/>
<path d="M10.632 8.01636L10.9368 8.9543H11.9236L11.1253 9.5347L11.4301 10.4736L10.632 9.89309L9.83369 10.4736L10.1385 9.5347L9.33984 8.9543H10.3269L10.632 8.01636Z" fill="#EFEFEF"/>
<path d="M10.632 11.3315L10.9368 12.2697H11.9236L11.1253 12.8499L11.4301 13.7887L10.632 13.2083L9.83369 13.7887L10.1385 12.8499L9.33984 12.2697H10.3269L10.632 11.3315Z" fill="#EFEFEF"/>
<path d="M10.632 14.646L10.9368 15.5848H11.9236L11.1253 16.1649L11.4301 17.1038L10.632 16.5233L9.83369 17.1038L10.1385 16.1649L9.33984 15.5848H10.3269L10.632 14.646Z" fill="#EFEFEF"/>
<path d="M13.947 3.04321L14.2517 3.98175H15.2386L14.4406 4.56223L14.745 5.50042L13.947 4.92062L13.1484 5.50042L13.4534 4.56223L12.6548 3.98175H13.6419L13.947 3.04321Z" fill="#EFEFEF"/>
<path d="M13.947 6.3584L14.2517 7.29693H15.2386L14.4406 7.87741L14.745 8.8156L13.947 8.2358L13.1484 8.8156L13.4534 7.87741L12.6548 7.29693H13.6419L13.947 6.3584Z" fill="#EFEFEF"/>
<path d="M13.947 9.67358L14.2517 10.6121H15.2386L14.4406 11.1919L14.745 12.1308L13.947 11.551L13.1484 12.1308L13.4534 11.1919L12.6548 10.6121H13.6419L13.947 9.67358Z" fill="#EFEFEF"/>
<path d="M13.947 12.9888L14.2517 13.9276H15.2386L14.4406 14.5071L14.745 15.446L13.947 14.8656L13.1484 15.446L13.4534 14.5071L12.6548 13.9276H13.6419L13.947 12.9888Z" fill="#EFEFEF"/>
<path d="M17.2624 1.38599L17.5672 2.32452H18.554L17.7556 2.90432L18.0604 3.84319L17.2624 3.26271L16.4638 3.84319L16.7688 2.90432L15.9702 2.32452H16.957L17.2624 1.38599Z" fill="#EFEFEF"/>
<path d="M17.2624 4.70117L17.5672 5.63911H18.554L17.7556 6.2195L18.0604 7.15837L17.2624 6.57789L16.4638 7.15837L16.7688 6.2195L15.9702 5.63911H16.957L17.2624 4.70117Z" fill="#EFEFEF"/>
<path d="M17.2624 8.01636L17.5672 8.9543H18.554L17.7556 9.5347L18.0604 10.4736L17.2624 9.89309L16.4638 10.4736L16.7688 9.5347L15.9702 8.9543H16.957L17.2624 8.01636Z" fill="#EFEFEF"/>
<path d="M17.2624 11.3315L17.5672 12.2697H18.554L17.7556 12.8499L18.0604 13.7887L17.2624 13.2083L16.4638 13.7887L16.7688 12.8499L15.9702 12.2697H16.957L17.2624 11.3315Z" fill="#EFEFEF"/>
<path d="M17.2624 14.646L17.5672 15.5848H18.554L17.7556 16.1649L18.0604 17.1038L17.2624 16.5233L16.4638 17.1038L16.7688 16.1649L15.9702 15.5848H16.957L17.2624 14.646Z" fill="#EFEFEF"/>
</svg>
