<svg width="116" height="25" viewBox="0 0 116 25" fill="none" xmlns="http://www.w3.org/2000/svg">
<path fill-rule="evenodd" clip-rule="evenodd" d="M19.3156 9.71146L6.14683 6.06206V5.01826C7.64365 4.73939 9.50946 4.52062 11.6535 4.5588C13.3756 4.58976 14.9001 4.77989 16.1785 5.01826V7.66954H19.5746C19.6153 7.14274 19.6364 6.61233 19.6364 6.07908V2.09559C13.2358 0.190141 6.4003 0.190141 0 2.09559V6.07908C0 7.02665 0.0654115 7.96519 0.192014 8.89005L18.4611 12.9592C18.8314 11.9053 19.1183 10.8197 19.3156 9.71146Z" fill="#5F73FA"/>
<path fill-rule="evenodd" clip-rule="evenodd" d="M9.8876 19.2865C8.04811 18.1059 6.55826 16.5254 5.50447 14.7031C7.44584 14.5051 9.38721 14.3074 11.3286 14.1094C7.75045 13.1406 4.17284 12.1719 0.594971 11.2031C1.2348 13.8853 2.78744 18.4804 6.86081 22.3092C7.87754 23.2653 8.90843 24.0391 9.8876 24.6665C13.5002 22.3477 16.2453 19.0379 17.8512 15.231L14.2648 14.7125C13.2113 16.5305 11.7243 18.1079 9.8876 19.2865Z" fill="#4EB80D"/>
<path d="M33.3478 24.6665C31.2037 24.6665 29.6551 24.1362 28.7021 23.0756C27.7492 22.0151 27.2727 20.3054 27.2727 17.9465V15.6425H31.9184V18.5774C31.9184 19.7476 32.2941 20.3328 33.0454 20.3328C33.4669 20.3328 33.7602 20.2139 33.9251 19.9762C34.09 19.7202 34.1725 19.2996 34.1725 18.7145C34.1725 17.9465 34.0809 17.3156 33.8976 16.8219C33.7143 16.3099 33.4761 15.8894 33.1829 15.5602C32.908 15.2128 32.404 14.6825 31.671 13.9694L29.6368 11.9396C28.0607 10.4036 27.2727 8.70308 27.2727 6.83793C27.2727 4.8265 27.7309 3.29965 28.6472 2.25736C29.5818 1.19679 30.9379 0.666504 32.7156 0.666504C34.8414 0.666504 36.3716 1.23336 37.3063 2.36707C38.2409 3.4825 38.7082 5.23793 38.7082 7.63336H33.8976L33.8701 6.01507C33.8701 5.70422 33.7785 5.45736 33.5952 5.2745C33.4303 5.09165 33.1921 5.00022 32.8805 5.00022C32.514 5.00022 32.2391 5.10079 32.0558 5.30193C31.8726 5.50308 31.7809 5.77736 31.7809 6.12479C31.7809 6.89279 32.2208 7.68822 33.1004 8.51108L35.8493 11.1442C36.4908 11.7659 37.0222 12.3602 37.4437 12.9271C37.8652 13.4756 38.2043 14.1339 38.4608 14.9019C38.7174 15.6516 38.8457 16.5476 38.8457 17.5899C38.8457 19.9122 38.415 21.6768 37.5537 22.8836C36.7107 24.0722 35.3087 24.6665 33.3478 24.6665Z" fill="white"/>
<path d="M40.4108 24.4471V0.885933H45.084V10.3214L47.2831 0.885933H52.0388L49.3998 11.6654L52.5886 24.4471H47.6955L45.1115 13.0368V24.4471H40.4108Z" fill="white"/>
<path d="M56.2358 24.4471V16.6848L52.4698 0.885933H57.143L58.4625 8.86765L59.7819 0.885933H64.4551L60.6891 16.6848V24.4471H56.2358Z" fill="white"/>
<path d="M70.5838 24.6665C68.8555 24.6665 67.5639 24.0722 66.709 22.8836C65.8727 21.6768 65.4546 19.8574 65.4546 17.4254V7.27679C65.4546 5.10079 65.9471 3.45508 66.932 2.33965C67.917 1.22422 69.3851 0.666504 71.3365 0.666504C72.9161 0.666504 74.1427 0.977361 75.0162 1.59907C75.8896 2.22079 76.4936 3.12593 76.8281 4.3145C77.1626 5.50308 77.3299 7.02993 77.3299 8.89508H72.6467V6.78308C72.6467 6.21622 72.563 5.77736 72.3958 5.4665C72.2471 5.15565 71.9683 5.00022 71.5595 5.00022C70.6489 5.00022 70.1936 5.58536 70.1936 6.75565V18.1659C70.1936 18.8791 70.2865 19.4185 70.4723 19.7842C70.6582 20.1499 70.9834 20.3328 71.448 20.3328C71.9126 20.3328 72.2378 20.1499 72.4237 19.7842C72.6095 19.4185 72.7024 18.8791 72.7024 18.1659V14.7922H71.4201V10.7328H77.2741V24.4471H75.3507L74.5423 22.4722C73.6874 23.9351 72.3679 24.6665 70.5838 24.6665Z" fill="white"/>
<path d="M84.8942 24.6665C82.9614 24.6665 81.4932 24.0905 80.4897 22.9385C79.4862 21.7682 78.9844 20.1316 78.9844 18.0288V6.8105C78.9844 4.78079 79.4862 3.25393 80.4897 2.22993C81.4932 1.18765 82.9614 0.666504 84.8942 0.666504C86.8269 0.666504 88.2951 1.18765 89.2986 2.22993C90.3021 3.25393 90.8039 4.78079 90.8039 6.8105V18.0288C90.8039 20.1499 90.3021 21.7865 89.2986 22.9385C88.2951 24.0905 86.8269 24.6665 84.8942 24.6665ZM84.8942 20.3328C85.3216 20.3328 85.6096 20.1499 85.7583 19.7842C85.907 19.4185 85.9813 18.9065 85.9813 18.2482V6.72822C85.9813 6.21622 85.907 5.80479 85.7583 5.49393C85.6282 5.16479 85.3495 5.00022 84.922 5.00022C84.1229 5.00022 83.7233 5.5945 83.7233 6.78308V18.2756C83.7233 18.9522 83.807 19.4642 83.9742 19.8116C84.1415 20.1591 84.4481 20.3328 84.8942 20.3328Z" fill="white"/>
<path d="M92.7365 24.4471V0.885933H97.5312V20.4425H102.465V24.4471H92.7365Z" fill="white"/>
<path d="M103.816 0.885933H110.423C112.133 0.885933 113.415 1.35222 114.27 2.28479C115.125 3.21736 115.561 4.59793 115.58 6.42651L115.636 17.4528C115.654 19.7751 115.246 21.5214 114.409 22.6916C113.573 23.8619 112.188 24.4471 110.256 24.4471H103.816V0.885933ZM109.475 20.2779C110.349 20.2779 110.785 19.8574 110.785 19.0162V6.86536C110.785 6.33508 110.739 5.94193 110.646 5.68593C110.572 5.41165 110.423 5.22879 110.2 5.13736C109.977 5.04593 109.633 5.00022 109.168 5.00022H108.639V20.2779H109.475Z" fill="white"/>
</svg>
