<svg width="133" height="41" viewBox="0 0 133 41" fill="none" xmlns="http://www.w3.org/2000/svg">
<g clip-path="url(#clip0_204_516)">
<path d="M35.1872 11.8501L48.5441 11.8501L48.5441 14.3049L43.2849 14.3049L43.2849 28.1434L40.4023 28.1434L40.4023 14.3049L35.1652 14.3049L35.1872 11.8501ZM47.9719 16.347L50.4365 16.347L50.4365 18.6281L50.4805 18.6281C50.5685 18.3022 50.7225 17.9981 50.9426 17.694C51.1626 17.3898 51.4267 17.1074 51.7568 16.8684C52.0648 16.6077 52.4169 16.4122 52.813 16.2601C53.1871 16.1081 53.5832 16.0212 53.9792 16.0212C54.2873 16.0212 54.5074 16.0429 54.6174 16.0429C54.7274 16.0646 54.8594 16.0864 54.9695 16.0864L54.9695 18.5847C54.7934 18.5412 54.5954 18.5195 54.3973 18.4978C54.1993 18.476 54.0232 18.4543 53.8252 18.4543C53.3851 18.4543 52.967 18.5412 52.5709 18.715C52.1749 18.8888 51.8448 19.1495 51.5367 19.4753C51.2506 19.8229 51.0086 20.2357 50.8326 20.7354C50.6565 21.235 50.5685 21.8216 50.5685 22.4733L50.5685 28.0782L47.9279 28.0782L47.9719 16.347ZM67.0721 28.1434L64.4755 28.1434L64.4755 26.4923L64.4315 26.4923C64.1014 27.1006 63.6173 27.5568 62.9792 27.9261C62.3411 28.2954 61.6809 28.4692 61.0208 28.4692C59.4584 28.4692 58.3142 28.0999 57.61 27.3178C56.9059 26.5575 56.5538 25.3844 56.5538 23.8419L56.5538 16.347L59.1944 16.347L59.1944 23.5813C59.1944 24.624 59.3924 25.3627 59.8105 25.7754C60.2066 26.2099 60.7787 26.4271 61.5049 26.4271C62.055 26.4271 62.5171 26.3403 62.8912 26.1665C63.2653 25.9927 63.5733 25.7754 63.7934 25.493C64.0354 25.2106 64.1895 24.863 64.2995 24.472C64.4095 24.0809 64.4535 23.6464 64.4535 23.1902L64.4535 16.347L67.0941 16.347L67.0941 28.1434L67.0721 28.1434ZM71.5611 24.3633C71.6491 25.1237 71.9351 25.6451 72.4412 25.9709C72.9474 26.2751 73.5635 26.4271 74.2676 26.4271C74.5097 26.4271 74.7958 26.4054 75.1038 26.362C75.4119 26.3185 75.72 26.2534 75.984 26.1447C76.2701 26.0361 76.4901 25.884 76.6662 25.6668C76.8422 25.4495 76.9302 25.1889 76.9082 24.863C76.8862 24.5371 76.7762 24.2547 76.5341 24.0375C76.2921 23.8202 76.006 23.6682 75.6539 23.5161C75.3019 23.3857 74.8838 23.2771 74.4217 23.1902C73.9596 23.1033 73.4975 22.9947 73.0134 22.8861C72.5293 22.7775 72.0452 22.6471 71.5831 22.495C71.121 22.343 70.7249 22.1474 70.3508 21.865C69.9987 21.6043 69.6907 21.2785 69.4926 20.8657C69.2726 20.4529 69.1625 19.975 69.1625 19.3667C69.1625 18.715 69.3166 18.1936 69.6466 17.7591C69.9547 17.3246 70.3728 16.9771 70.8569 16.7164C71.341 16.4557 71.8911 16.2601 72.4853 16.1515C73.0794 16.0429 73.6515 15.9994 74.1796 15.9994C74.7958 15.9994 75.3899 16.0646 75.94 16.195C76.4901 16.3253 77.0182 16.5208 77.4583 16.825C77.9204 17.1074 78.2945 17.4984 78.5806 17.9546C78.8886 18.4109 79.0647 18.9757 79.1527 19.6274L76.4021 19.6274C76.2701 18.9974 75.984 18.5847 75.5439 18.3674C75.0818 18.1502 74.5757 18.0415 73.9816 18.0415C73.8055 18.0415 73.5635 18.0633 73.3214 18.085C73.0574 18.1284 72.8373 18.1719 72.5953 18.2588C72.3752 18.3457 72.1772 18.476 72.0232 18.6281C71.8691 18.7802 71.7811 18.9974 71.7811 19.2581C71.7811 19.584 71.8911 19.8229 72.1112 20.0185C72.3312 20.214 72.6173 20.3661 72.9914 20.5181C73.3434 20.6485 73.7615 20.7571 74.2236 20.844C74.6857 20.9309 75.1698 21.0395 75.6539 21.1481C76.138 21.2567 76.6001 21.3871 77.0622 21.5392C77.5243 21.6912 77.9424 21.8868 78.2945 22.1692C78.6466 22.4299 78.9547 22.7557 79.1747 23.1468C79.3948 23.5378 79.5048 24.0375 79.5048 24.6023C79.5048 25.2975 79.3507 25.884 79.0207 26.3837C78.6906 26.8616 78.2725 27.2744 77.7664 27.5785C77.2603 27.8827 76.6662 28.0999 76.05 28.252C75.4119 28.3823 74.7958 28.4692 74.1796 28.4692C73.4315 28.4692 72.7273 28.3823 72.0892 28.2085C71.451 28.0348 70.8789 27.7741 70.4168 27.4482C69.9547 27.1006 69.5806 26.6878 69.3166 26.1665C69.0525 25.6668 68.8985 25.0585 68.8765 24.3416L71.539 24.3416L71.539 24.3633L71.5611 24.3633ZM80.2529 16.347L82.2554 16.347L82.2554 12.7842L84.8959 12.7842L84.8959 16.3253L87.2725 16.3253L87.2725 18.2588L84.8959 18.2588L84.8959 24.5589C84.8959 24.8413 84.9179 25.0585 84.94 25.2758C84.962 25.4713 85.028 25.6451 85.094 25.7754C85.182 25.9058 85.314 26.0144 85.4681 26.0796C85.6441 26.1447 85.8642 26.1882 86.1722 26.1882C86.3483 26.1882 86.5463 26.1882 86.7223 26.1665C86.8984 26.1447 87.0964 26.123 87.2725 26.0796L87.2725 28.0999C86.9864 28.1434 86.7003 28.1651 86.4143 28.1868C86.1282 28.2303 85.8642 28.2303 85.5561 28.2303C84.8519 28.2303 84.3018 28.1651 83.8837 28.0348C83.4656 27.9044 83.1356 27.7089 82.8935 27.4699C82.6515 27.2092 82.4974 26.9051 82.4094 26.5358C82.3214 26.1665 82.2774 25.7102 82.2554 25.2323L82.2554 18.2805L80.2529 18.2805L80.2529 16.3036L80.2529 16.347ZM89.1209 16.347L91.6074 16.347L91.6074 17.9546L91.6514 17.9546C92.0255 17.2595 92.5316 16.7815 93.1917 16.4774C93.8519 16.1732 94.556 16.0212 95.3482 16.0212C96.2944 16.0212 97.1086 16.1733 97.8127 16.5208C98.5169 16.8467 99.089 17.2812 99.5511 17.8677C100.013 18.4326 100.365 19.106 100.585 19.8664C100.805 20.6267 100.937 21.4523 100.937 22.2995C100.937 23.1033 100.827 23.8637 100.629 24.6023C100.409 25.3409 100.101 26.0144 99.6831 26.5792C99.2651 27.1441 98.7369 27.6003 98.0768 27.9479C97.4167 28.2954 96.6685 28.4692 95.7883 28.4692C95.4142 28.4692 95.0181 28.4258 94.6441 28.3606C94.27 28.2954 93.8959 28.1868 93.5438 28.0348C93.1917 27.8827 92.8617 27.6872 92.5756 27.4482C92.2675 27.2092 92.0255 26.9268 91.8274 26.6227L91.7834 26.6227L91.7834 32.51L89.1429 32.51L89.1429 16.347L89.1209 16.347ZM98.3409 22.2561C98.3409 21.7347 98.2748 21.2133 98.1208 20.7136C97.9888 20.214 97.7687 19.7795 97.4827 19.3885C97.1966 18.9974 96.8445 18.6933 96.4485 18.4543C96.0304 18.2153 95.5463 18.1067 95.0181 18.1067C93.9179 18.1067 93.0817 18.476 92.5096 19.2364C91.9595 19.9967 91.6734 21.0178 91.6734 22.2778C91.6734 22.8861 91.7394 23.4292 91.8935 23.9288C92.0475 24.4285 92.2455 24.863 92.5536 25.2323C92.8397 25.6016 93.1917 25.884 93.6098 26.1013C94.0279 26.3185 94.49 26.4271 95.0401 26.4271C95.6563 26.4271 96.1404 26.2968 96.5585 26.0578C96.9766 25.8189 97.3066 25.493 97.5927 25.1237C97.8568 24.7326 98.0548 24.2982 98.1648 23.7985C98.2748 23.2771 98.3409 22.7775 98.3409 22.2561ZM102.984 11.8501L105.624 11.8501L105.624 14.305L102.984 14.305L102.984 11.8501ZM102.984 16.347L105.624 16.347L105.624 28.1434L102.984 28.1434L102.984 16.347ZM107.979 11.8501L110.62 11.8501L110.62 28.1434L107.979 28.1434L107.979 11.8501ZM118.673 28.4692C117.727 28.4692 116.869 28.3172 116.121 27.9913C115.373 27.6654 114.756 27.2527 114.228 26.7096C113.722 26.1665 113.326 25.493 113.062 24.7327C112.798 23.9723 112.644 23.125 112.644 22.2343C112.644 21.3436 112.776 20.5181 113.062 19.7578C113.326 18.9974 113.722 18.3457 114.228 17.7809C114.734 17.2377 115.373 16.8033 116.121 16.4991C116.869 16.195 117.727 16.0212 118.673 16.0212C119.619 16.0212 120.478 16.1733 121.226 16.4991C121.974 16.8033 122.59 17.2377 123.118 17.7809C123.624 18.324 124.02 18.9974 124.284 19.7578C124.549 20.5181 124.703 21.3437 124.703 22.2344C124.703 23.1468 124.571 23.9723 124.284 24.7327C123.998 25.493 123.624 26.1447 123.118 26.7096C122.612 27.2527 121.974 27.6872 121.226 27.9913C120.478 28.2954 119.641 28.4692 118.673 28.4692ZM118.673 26.4054C119.245 26.4054 119.774 26.2751 120.192 26.0361C120.632 25.7971 120.962 25.4713 121.248 25.0802C121.534 24.6892 121.732 24.233 121.864 23.7551C121.996 23.2554 122.062 22.7557 122.062 22.2344C122.062 21.7347 121.996 21.235 121.864 20.7354C121.732 20.2357 121.534 19.8012 121.248 19.4102C120.962 19.0191 120.61 18.715 120.192 18.476C119.752 18.2371 119.245 18.1067 118.673 18.1067C118.101 18.1067 117.573 18.2371 117.155 18.476C116.715 18.715 116.385 19.0409 116.099 19.4102C115.813 19.8012 115.615 20.2357 115.483 20.7354C115.351 21.235 115.285 21.7347 115.285 22.2343C115.285 22.7557 115.351 23.2554 115.483 23.7551C115.615 24.2547 115.813 24.6892 116.099 25.0802C116.385 25.4713 116.737 25.7971 117.155 26.0361C117.595 26.2968 118.101 26.4054 118.673 26.4054ZM125.495 16.347L127.497 16.347L127.497 12.7843L130.138 12.7843L130.138 16.3253L132.514 16.3253L132.514 18.2588L130.138 18.2588L130.138 24.5589C130.138 24.8413 130.16 25.0585 130.182 25.2758C130.204 25.4713 130.27 25.6451 130.336 25.7754C130.424 25.9058 130.556 26.0144 130.71 26.0796C130.886 26.1447 131.106 26.1882 131.414 26.1882C131.59 26.1882 131.788 26.1882 131.964 26.1665C132.14 26.1447 132.338 26.123 132.514 26.0796L132.514 28.0999C132.228 28.1434 131.942 28.1651 131.656 28.1868C131.37 28.2303 131.106 28.2303 130.798 28.2303C130.094 28.2303 129.544 28.1651 129.126 28.0348C128.707 27.9044 128.377 27.7089 128.135 27.4699C127.893 27.2092 127.739 26.9051 127.651 26.5358C127.563 26.1665 127.519 25.7102 127.497 25.2323L127.497 18.2805L125.495 18.2805L125.495 16.3036L125.495 16.347Z" fill="white"/>
<path d="M32.1065 11.8499L20.0258 11.8499L16.307 0.509767L12.5662 11.8499L0.485595 11.8282L10.2557 18.8451L6.51491 30.1853L16.285 23.1683L26.0552 30.1853L22.3363 18.8451L32.1065 11.8499Z" fill="#00B67A"/>
<path d="M23.1725 21.4087L22.3363 18.8452L16.307 23.1684L23.1725 21.4087Z" fill="#005128"/>
</g>
<defs>
<clipPath id="clip0_204_516">
<rect width="132.174" height="32" fill="white" transform="translate(132.587 32.5098) rotate(-180)"/>
</clipPath>
</defs>
</svg>
