<svg width="56" height="14" viewBox="0 0 56 14" fill="none" xmlns="http://www.w3.org/2000/svg">
<path d="M20.9394 3.22461H17.8405C17.7379 3.22454 17.6387 3.26112 17.5607 3.32775C17.4826 3.39438 17.431 3.48668 17.415 3.58802L16.1617 11.5345C16.1559 11.5714 16.1582 11.609 16.1684 11.645C16.1786 11.6809 16.1965 11.7141 16.2207 11.7425C16.245 11.7708 16.2752 11.7935 16.3091 11.8091C16.343 11.8247 16.3799 11.8327 16.4172 11.8326H17.8967C17.9993 11.8327 18.0986 11.7961 18.1767 11.7293C18.2547 11.6626 18.3063 11.5702 18.3222 11.4688L18.6602 9.3255C18.6761 9.22416 18.7276 9.13181 18.8055 9.0651C18.8835 8.99839 18.9827 8.9617 19.0852 8.96164H20.0663C22.1076 8.96164 23.2857 7.97382 23.5934 6.01632C23.732 5.15991 23.5993 4.48702 23.1983 4.01577C22.7578 3.4983 21.9766 3.22461 20.9394 3.22461ZM21.2969 6.12688C21.1275 7.23885 20.2779 7.23885 19.4563 7.23885H18.9887L19.3168 5.16218C19.3264 5.10142 19.3574 5.04609 19.4041 5.00613C19.4509 4.96618 19.5104 4.94422 19.5719 4.94422H19.7862C20.3458 4.94422 20.8737 4.94422 21.1465 5.26322C21.3092 5.45354 21.359 5.73629 21.2969 6.12688ZM30.2027 6.09109H28.7187C28.6572 6.09109 28.5977 6.11304 28.5509 6.15299C28.5042 6.19295 28.4732 6.24828 28.4636 6.30904L28.3979 6.7241L28.2941 6.57366C27.9729 6.1074 27.2565 5.95152 26.5414 5.95152C24.9016 5.95152 23.501 7.19354 23.2282 8.93581C23.0863 9.80491 23.288 10.6359 23.781 11.2155C24.2332 11.7484 24.8803 11.9704 25.6501 11.9704C26.9714 11.9704 27.7041 11.1208 27.7041 11.1208L27.638 11.5331C27.6321 11.57 27.6343 11.6077 27.6443 11.6437C27.6544 11.6796 27.6722 11.7129 27.6964 11.7414C27.7206 11.7698 27.7507 11.7926 27.7846 11.8083C27.8184 11.824 27.8553 11.8321 27.8926 11.8322H29.2294C29.332 11.8322 29.4313 11.7956 29.5093 11.7289C29.5874 11.6622 29.639 11.5698 29.6549 11.4683L30.4569 6.38924C30.4628 6.35246 30.4606 6.31483 30.4506 6.27896C30.4405 6.24309 30.4228 6.20983 30.3986 6.18148C30.3744 6.15313 30.3444 6.13036 30.3106 6.11476C30.2768 6.09915 30.2399 6.09107 30.2027 6.09109ZM28.1342 8.97931C27.991 9.82711 27.3181 10.3962 26.4599 10.3962C26.0289 10.3962 25.6846 10.258 25.4634 9.99613C25.2441 9.73603 25.1608 9.36583 25.2305 8.95348C25.3642 8.11293 26.0484 7.52523 26.8935 7.52523C27.3149 7.52523 27.6575 7.66525 27.8831 7.92942C28.1092 8.19631 28.199 8.56878 28.1342 8.97931ZM38.1061 6.09109H36.6149C36.5445 6.0912 36.4753 6.10847 36.4132 6.14139C36.351 6.17432 36.2979 6.22191 36.2583 6.28004L34.2015 9.30964L33.3297 6.39831C33.3029 6.30951 33.2483 6.23169 33.1739 6.17636C33.0995 6.12103 33.0092 6.09113 32.9165 6.09109H31.451C31.4099 6.09098 31.3694 6.10069 31.3327 6.11943C31.2961 6.13816 31.2645 6.16537 31.2405 6.1988C31.2165 6.23222 31.2009 6.27088 31.1949 6.31158C31.1888 6.35227 31.1926 6.39381 31.2059 6.43274L32.8485 11.2531L31.3042 13.4331C31.2768 13.4717 31.2605 13.5172 31.2572 13.5645C31.2539 13.6118 31.2636 13.6591 31.2854 13.7012C31.3071 13.7433 31.3401 13.7786 31.3805 13.8033C31.421 13.8279 31.4675 13.8409 31.5149 13.8409H33.0044C33.0739 13.841 33.1424 13.8242 33.2041 13.792C33.2657 13.7598 33.3186 13.7132 33.3583 13.656L38.3182 6.49663C38.3451 6.4579 38.3608 6.41255 38.3638 6.36549C38.3667 6.31843 38.3567 6.27147 38.3349 6.22969C38.313 6.1879 38.2802 6.1529 38.2398 6.12847C38.1995 6.10404 38.1533 6.09111 38.1061 6.09109Z" fill="white"/>
<path d="M43.0433 3.22457H39.9439C39.8414 3.22462 39.7422 3.26124 39.6643 3.32786C39.5864 3.39448 39.5348 3.48672 39.5188 3.58798L38.2655 11.5345C38.2597 11.5713 38.2619 11.6089 38.272 11.6448C38.2821 11.6806 38.2999 11.7139 38.3241 11.7422C38.3483 11.7706 38.3784 11.7933 38.4122 11.8089C38.4461 11.8245 38.4829 11.8326 38.5202 11.8326H40.1106C40.1824 11.8325 40.2517 11.8068 40.3062 11.7601C40.3607 11.7134 40.3968 11.6488 40.4079 11.578L40.7636 9.32546C40.7795 9.22412 40.831 9.13178 40.9089 9.06507C40.9869 8.99835 41.086 8.96166 41.1886 8.9616H42.1692C44.211 8.9616 45.3886 7.97379 45.6968 6.01628C45.8359 5.15988 45.7022 4.48698 45.3012 4.01573C44.8612 3.49826 44.0805 3.22457 43.0433 3.22457ZM43.4008 6.12685C43.2318 7.23882 42.3822 7.23882 41.5602 7.23882H41.093L41.4215 5.16214C41.4309 5.10138 41.4618 5.046 41.5085 5.00603C41.5552 4.96605 41.6147 4.94411 41.6762 4.94419H41.8905C42.4497 4.94419 42.978 4.94419 43.2508 5.26319C43.4135 5.4535 43.4629 5.73625 43.4008 6.12685ZM52.3061 6.09105H50.823C50.7615 6.09088 50.702 6.11278 50.6552 6.15278C50.6085 6.19277 50.5777 6.24821 50.5683 6.309L50.5026 6.72407L50.3984 6.57363C50.0771 6.10736 49.3612 5.95149 48.6462 5.95149C47.0063 5.95149 45.6061 7.19351 45.3334 8.93578C45.192 9.80487 45.3927 10.6359 45.8857 11.2155C46.3389 11.7483 46.985 11.9704 47.7549 11.9704C49.0762 11.9704 49.8089 11.1207 49.8089 11.1207L49.7427 11.5331C49.7368 11.57 49.739 11.6078 49.7491 11.6438C49.7593 11.6798 49.7771 11.7132 49.8014 11.7417C49.8257 11.7701 49.8559 11.7929 49.8899 11.8086C49.9239 11.8242 49.9609 11.8322 49.9983 11.8322H51.3346C51.4371 11.8321 51.5363 11.7954 51.6143 11.7287C51.6922 11.662 51.7437 11.5696 51.7596 11.4683L52.5621 6.38921C52.5678 6.35231 52.5654 6.31461 52.5552 6.27871C52.5449 6.24281 52.527 6.20956 52.5027 6.18123C52.4783 6.1529 52.4482 6.13018 52.4142 6.11461C52.3803 6.09904 52.3434 6.09101 52.3061 6.09105ZM50.2375 8.97928C50.0953 9.82708 49.4215 10.3962 48.5632 10.3962C48.1332 10.3962 47.7879 10.258 47.5668 9.99609C47.3475 9.736 47.265 9.36579 47.3339 8.95345C47.4685 8.1129 48.1518 7.52519 48.9969 7.52519C49.4183 7.52519 49.7609 7.66521 49.9865 7.92938C50.2135 8.19627 50.3033 8.56874 50.2375 8.97928ZM54.0556 3.44253L52.7837 11.5345C52.7778 11.5713 52.7801 11.6089 52.7902 11.6448C52.8003 11.6806 52.8181 11.7139 52.8423 11.7422C52.8665 11.7706 52.8965 11.7933 52.9304 11.8089C52.9642 11.8245 53.0011 11.8326 53.0383 11.8326H54.317C54.5296 11.8326 54.7099 11.6785 54.7425 11.4688L55.9968 3.52273C56.0026 3.4859 56.0004 3.44824 55.9903 3.41235C55.9802 3.37646 55.9624 3.34318 55.9382 3.31481C55.914 3.28643 55.8839 3.26364 55.8501 3.24798C55.8163 3.23233 55.7794 3.22419 55.7421 3.22412H54.3102C54.2488 3.22434 54.1894 3.24644 54.1427 3.28646C54.0961 3.32648 54.0652 3.38181 54.0556 3.44253Z" fill="white"/>
<path d="M10.4436 3.64062C10.4309 3.72173 10.4164 3.80466 10.4001 3.88984C9.83961 6.76765 7.92198 7.76181 5.47283 7.76181H4.22583C3.92631 7.76181 3.67392 7.97931 3.62725 8.27475L2.98879 12.3239L2.808 13.4717C2.80079 13.5172 2.80354 13.5637 2.81606 13.6081C2.82857 13.6525 2.85055 13.6936 2.88048 13.7286C2.91041 13.7637 2.94758 13.7918 2.98943 13.8111C3.03128 13.8305 3.07682 13.8405 3.12292 13.8405H5.33463C5.59653 13.8405 5.81902 13.6502 5.86025 13.3919L5.882 13.2795L6.29843 10.6369L6.32516 10.4919C6.36594 10.2327 6.58888 10.0424 6.85079 10.0424H7.18157C9.3244 10.0424 11.0019 9.17239 11.4922 6.65482C11.697 5.60311 11.5909 4.72496 11.049 4.10734C10.8772 3.91629 10.6721 3.75813 10.4436 3.64062Z" fill="white"/>
<path d="M4.35631 3.65512C4.37562 3.52981 4.43923 3.41558 4.5356 3.33318C4.63197 3.25078 4.7547 3.20568 4.88149 3.20607H8.21287C8.60754 3.20607 8.97593 3.2319 9.31215 3.28628C9.53967 3.32204 9.76405 3.37552 9.98323 3.44623C10.1486 3.50106 10.3022 3.56586 10.4441 3.64062C10.6108 2.57714 10.4427 1.85304 9.86769 1.19737C9.23376 0.475536 8.08962 0.166504 6.62557 0.166504H2.37525C2.07618 0.166504 1.82107 0.384004 1.77485 0.679896L0.00449035 11.9016C-0.00375571 11.9537 -0.000618365 12.0069 0.0136866 12.0577C0.0279915 12.1085 0.0531245 12.1555 0.0873568 12.1957C0.121589 12.2358 0.164108 12.2681 0.211989 12.2902C0.259871 12.3123 0.311977 12.3238 0.364726 12.3239H2.98878L3.64762 8.14379L4.35631 3.65512Z" fill="white"/>
<path d="M5.10637 3.95378C4.91466 4.1702 4.91466 4.80931 4.53125 7.18991C5.68149 6.97349 5.94291 7.25619 7.47657 6.73678C9.39364 6.08753 9.51564 4.38661 9.51564 3.95378C8.83595 3.79146 5.29808 3.73736 5.10637 3.95378Z" fill="white"/>
</svg>
