<svg width="40" height="16" viewBox="0 0 40 16" fill="none" xmlns="http://www.w3.org/2000/svg">
<g clip-path="url(#clip0_187_3606)">
<path d="M14.9566 5.35107H12.7431C12.6698 5.35103 12.599 5.37715 12.5432 5.42475C12.4875 5.47234 12.4506 5.53827 12.4392 5.61065L11.544 11.2867C11.5398 11.313 11.5415 11.34 11.5488 11.3656C11.5561 11.3912 11.5688 11.415 11.5862 11.4352C11.6035 11.4555 11.625 11.4717 11.6493 11.4829C11.6735 11.494 11.6998 11.4997 11.7265 11.4997H12.7833C12.8566 11.4997 12.9275 11.4735 12.9832 11.4259C13.039 11.3782 13.0758 11.3122 13.0872 11.2398L13.3286 9.70885C13.34 9.63646 13.3768 9.5705 13.4324 9.52285C13.4881 9.4752 13.559 9.449 13.6322 9.44895H14.333C15.791 9.44895 16.6326 8.74337 16.8523 7.34515C16.9514 6.73343 16.8565 6.2528 16.5701 5.91619C16.2555 5.54657 15.6975 5.35107 14.9566 5.35107ZM15.212 7.42413C15.091 8.21839 14.4841 8.21839 13.8973 8.21839H13.5633L13.7976 6.73505C13.8045 6.69165 13.8266 6.65213 13.86 6.62359C13.8934 6.59505 13.9359 6.57937 13.9798 6.57937H14.1329C14.5327 6.57937 14.9097 6.57937 15.1046 6.80723C15.2208 6.94317 15.2564 7.14513 15.212 7.42413ZM21.5733 7.39856H20.5133C20.4693 7.39856 20.4268 7.41424 20.3934 7.44278C20.36 7.47132 20.3379 7.51084 20.331 7.55424L20.2841 7.85071L20.21 7.74326C19.9805 7.41021 19.4688 7.29887 18.9581 7.29887C17.7867 7.29887 16.7863 8.18603 16.5915 9.4305C16.4902 10.0513 16.6342 10.6449 16.9863 11.0588C17.3093 11.4395 17.7715 11.5981 18.3214 11.5981C19.2652 11.5981 19.7886 10.9912 19.7886 10.9912L19.7413 11.2857C19.7371 11.3121 19.7387 11.339 19.7459 11.3647C19.7531 11.3904 19.7658 11.4142 19.783 11.4345C19.8003 11.4548 19.8218 11.4711 19.846 11.4823C19.8702 11.4935 19.8966 11.4993 19.9232 11.4993H20.878C20.9514 11.4994 21.0223 11.4732 21.078 11.4256C21.1337 11.3779 21.1706 11.3119 21.182 11.2394L21.7548 7.61153C21.7591 7.58525 21.7575 7.55837 21.7503 7.53275C21.7431 7.50713 21.7305 7.48337 21.7132 7.46312C21.6959 7.44287 21.6745 7.42661 21.6503 7.41547C21.6262 7.40432 21.5999 7.39855 21.5733 7.39856ZM20.0957 9.46158C19.9935 10.0671 19.5128 10.4737 18.8998 10.4737C18.592 10.4737 18.346 10.3749 18.1881 10.1879C18.0314 10.0021 17.9719 9.73766 18.0217 9.44313C18.1172 8.84274 18.6059 8.42295 19.2096 8.42295C19.5106 8.42295 19.7553 8.52296 19.9164 8.71165C20.0779 8.90229 20.142 9.16834 20.0957 9.46158ZM27.2186 7.39856H26.1534C26.1032 7.39864 26.0537 7.41097 26.0093 7.43449C25.9649 7.45801 25.927 7.492 25.8987 7.53352L24.4296 9.69753L23.8069 7.618C23.7877 7.55458 23.7487 7.49899 23.6955 7.45947C23.6424 7.41995 23.5779 7.39859 23.5117 7.39856H22.4649C22.4356 7.39848 22.4066 7.40542 22.3804 7.4188C22.3543 7.43218 22.3317 7.45162 22.3146 7.47549C22.2974 7.49937 22.2863 7.52698 22.282 7.55605C22.2777 7.58512 22.2804 7.61479 22.2898 7.6426L23.4631 11.0857L22.3601 12.6428C22.3405 12.6705 22.3289 12.7029 22.3265 12.7367C22.3241 12.7705 22.3311 12.8043 22.3466 12.8343C22.3621 12.8644 22.3857 12.8896 22.4146 12.9072C22.4435 12.9249 22.4767 12.9342 22.5106 12.9341H23.5745C23.6241 12.9342 23.6731 12.9222 23.7171 12.8992C23.7611 12.8762 23.7989 12.8429 23.8272 12.8021L27.37 7.68823C27.3892 7.66057 27.4005 7.62817 27.4026 7.59456C27.4047 7.56095 27.3976 7.5274 27.382 7.49756C27.3664 7.46771 27.3429 7.44271 27.3141 7.42526C27.2853 7.40781 27.2522 7.39857 27.2186 7.39856Z" fill="white"/>
<path d="M30.7453 5.35091H28.5314C28.4582 5.35094 28.3874 5.3771 28.3317 5.42469C28.2761 5.47227 28.2392 5.53816 28.2278 5.61049L27.3326 11.2865C27.3284 11.3128 27.33 11.3397 27.3372 11.3653C27.3445 11.391 27.3572 11.4147 27.3744 11.435C27.3917 11.4552 27.4132 11.4714 27.4374 11.4826C27.4616 11.4937 27.4879 11.4995 27.5145 11.4995H28.6505C28.7018 11.4994 28.7513 11.4811 28.7903 11.4477C28.8292 11.4144 28.8549 11.3682 28.8629 11.3176L29.1169 9.70869C29.1283 9.6363 29.1651 9.57034 29.2208 9.52269C29.2764 9.47504 29.3473 9.44883 29.4205 9.44879H30.1209C31.5794 9.44879 32.4205 8.74321 32.6406 7.34499C32.74 6.73327 32.6445 6.25263 32.3581 5.91602C32.0438 5.5464 31.4861 5.35091 30.7453 5.35091ZM31.0006 7.42396C30.8799 8.21823 30.2731 8.21823 29.6859 8.21823H29.3522L29.5869 6.73489C29.5936 6.69149 29.6157 6.65193 29.649 6.62338C29.6824 6.59482 29.7249 6.57915 29.7688 6.57921H29.9219C30.3213 6.57921 30.6987 6.57921 30.8935 6.80706C31.0097 6.943 31.045 7.14497 31.0006 7.42396ZM37.3616 7.39839H36.3022C36.2583 7.39827 36.2158 7.41392 36.1824 7.44248C36.149 7.47105 36.127 7.51065 36.1203 7.55407L36.0734 7.85055L35.9989 7.74309C35.7695 7.41004 35.2581 7.2987 34.7474 7.2987C33.576 7.2987 32.5759 8.18586 32.3811 9.43034C32.2801 10.0511 32.4235 10.6447 32.7756 11.0587C33.0993 11.4393 33.5608 11.5979 34.1107 11.5979C35.0545 11.5979 35.5779 10.991 35.5779 10.991L35.5306 11.2856C35.5264 11.312 35.528 11.3389 35.5352 11.3647C35.5424 11.3904 35.5552 11.4142 35.5725 11.4346C35.5899 11.4549 35.6115 11.4712 35.6357 11.4823C35.66 11.4935 35.6864 11.4992 35.7132 11.4992H36.6676C36.7409 11.4991 36.8118 11.4729 36.8674 11.4253C36.9231 11.3776 36.9599 11.3117 36.9712 11.2393L37.5444 7.61136C37.5485 7.585 37.5468 7.55808 37.5395 7.53244C37.5322 7.50679 37.5194 7.48304 37.502 7.46281C37.4846 7.44257 37.4631 7.42634 37.4388 7.41522C37.4146 7.4041 37.3882 7.39836 37.3616 7.39839ZM35.8841 9.46141C35.7824 10.067 35.3011 10.4735 34.6881 10.4735C34.381 10.4735 34.1343 10.3748 33.9764 10.1877C33.8197 10.0019 33.7608 9.73749 33.81 9.44296C33.9062 8.84257 34.3942 8.42278 34.9979 8.42278C35.2989 8.42278 35.5436 8.52279 35.7047 8.71149C35.8669 8.90212 35.931 9.16817 35.8841 9.46141ZM38.6112 5.50659L37.7027 11.2865C37.6985 11.3128 37.7001 11.3397 37.7074 11.3653C37.7146 11.391 37.7273 11.4147 37.7446 11.435C37.7619 11.4552 37.7833 11.4714 37.8075 11.4826C37.8317 11.4937 37.858 11.4995 37.8846 11.4995H38.798C38.9498 11.4995 39.0786 11.3895 39.1019 11.2396L39.9978 5.56388C40.0019 5.53757 40.0004 5.51067 39.9931 5.48503C39.9859 5.4594 39.9732 5.43563 39.9559 5.41536C39.9387 5.39509 39.9172 5.37881 39.893 5.36763C39.8688 5.35645 39.8425 5.35063 39.8159 5.35059H38.7931C38.7492 5.35074 38.7068 5.36653 38.6735 5.39511C38.6401 5.4237 38.6181 5.46322 38.6112 5.50659Z" fill="white"/>
<path d="M7.45975 5.64795C7.45069 5.70588 7.44033 5.76511 7.42868 5.82596C7.02831 7.88154 5.65857 8.59165 3.90918 8.59165H3.01847C2.80453 8.59165 2.62425 8.74701 2.59091 8.95804L2.13487 11.8503L2.00573 12.6701C2.00058 12.7026 2.00255 12.7359 2.01149 12.7676C2.02042 12.7993 2.03612 12.8286 2.0575 12.8537C2.07888 12.8787 2.10543 12.8988 2.13532 12.9126C2.16522 12.9264 2.19775 12.9336 2.23067 12.9336H3.81046C3.99754 12.9336 4.15646 12.7976 4.18591 12.6131L4.20145 12.5329L4.49889 10.6453L4.51799 10.5417C4.54712 10.3566 4.70636 10.2206 4.89344 10.2206H5.12971C6.66031 10.2206 7.8585 9.59921 8.2087 7.80095C8.355 7.04973 8.27926 6.42247 7.89216 5.98132C7.76947 5.84485 7.62294 5.73188 7.45975 5.64795Z" fill="white"/>
<path d="M3.11165 5.65837C3.12544 5.56886 3.17088 5.48727 3.23972 5.42841C3.30855 5.36956 3.39621 5.33734 3.48678 5.33763H5.86634C6.14825 5.33763 6.41138 5.35607 6.65154 5.39491C6.81405 5.42045 6.97432 5.45866 7.13088 5.50917C7.24902 5.54833 7.35874 5.59461 7.46005 5.64802C7.57915 4.88838 7.45907 4.37117 7.04835 3.90283C6.59555 3.38724 5.7783 3.1665 4.73255 3.1665H1.6966C1.48299 3.1665 1.30077 3.32186 1.26775 3.53321L0.00320739 11.5487C-0.00268265 11.5859 -0.00044169 11.624 0.00977612 11.6602C0.0199939 11.6965 0.0379461 11.7301 0.0623977 11.7588C0.0868494 11.7874 0.11722 11.8105 0.151421 11.8263C0.185622 11.8421 0.222841 11.8503 0.260518 11.8503H2.13484L2.60545 8.86457L3.11165 5.65837Z" fill="white"/>
<path d="M3.64737 5.87198C3.51044 6.02656 3.51044 6.48307 3.23657 8.1835C4.05817 8.02892 4.2449 8.23084 5.34037 7.85984C6.70971 7.39609 6.79685 6.18115 6.79685 5.87198C6.31136 5.75604 3.78431 5.71739 3.64737 5.87198Z" fill="white"/>
</g>
<defs>
<clipPath id="clip0_187_3606">
<rect width="40" height="15" fill="white" transform="translate(0 0.666504)"/>
</clipPath>
</defs>
</svg>
