<svg width="56" height="22" viewBox="0 0 56 22" fill="none" xmlns="http://www.w3.org/2000/svg">
<path d="M31.339 9.55273L30.084 12.8831H30.8222L31.0847 12.1448H32.3316L32.5858 12.8831H33.3487L32.1019 9.55273H31.339ZM31.2816 11.596L31.7163 10.3738H31.7246L32.1429 11.596H31.2816Z" fill="white"/>
<path d="M26.1957 9.95506C26.0563 9.82382 25.9004 9.71718 25.7118 9.65156C25.5231 9.58594 25.3262 9.55312 25.113 9.55312V9.54492H23.6931V12.8753H25.1286C25.3829 12.8753 25.6044 12.8261 25.793 12.744C25.9817 12.6538 26.1376 12.539 26.2606 12.3913C26.3836 12.2437 26.4739 12.0632 26.5395 11.8581C26.5969 11.6531 26.6297 11.4316 26.6297 11.1855C26.6297 10.9066 26.5887 10.6687 26.5149 10.4636C26.4336 10.2668 26.327 10.0945 26.1957 9.95506ZM25.8259 11.7358C25.7766 11.8671 25.711 11.9655 25.6372 12.0475C25.5634 12.1296 25.4731 12.187 25.3747 12.2198C25.2681 12.2526 25.1696 12.269 25.063 12.269V12.2772H24.415V10.1773H24.9399C25.1204 10.1773 25.2681 10.2019 25.3911 10.2511C25.5141 10.3003 25.6126 10.3824 25.6864 10.4726C25.7602 10.5628 25.8176 10.6859 25.8505 10.8171C25.8833 10.9484 25.8997 11.1042 25.8997 11.2683C25.8997 11.4569 25.8751 11.6046 25.8259 11.7358Z" fill="white"/>
<path d="M27.8363 11.4487H29.4522V10.882H27.8363V10.1683H29.5917V9.55312V9.54492H27.1062V12.876H29.6327V12.2608H27.8363V11.4487Z" fill="white"/>
<path d="M34.5382 12.2686V9.55273H33.8081V12.8838H36.1623V12.2686H34.5382Z" fill="white"/>
<path d="M28.3449 2.4165H18.55C17.9676 2.4165 17.5 2.88407 17.5 3.46647V19.4381C17.5 20.0205 17.9676 20.4881 18.55 20.4881H28.3449C34.8908 20.4881 38.5007 17.2726 38.5007 11.4314C38.5 3.58951 32.1346 2.4165 28.3449 2.4165ZM21.4045 18.9378H21.3963C20.1085 18.9378 19.0749 17.896 19.0749 16.6164V14.8035C19.0749 14.1637 19.5917 13.6387 20.2397 13.6387C20.8796 13.6387 21.4045 14.1555 21.4045 14.8035V18.9378ZM20.2397 12.7528C19.3926 12.7528 18.7058 12.066 18.7058 11.2189C18.7058 10.3718 19.3926 9.68496 20.2397 9.68496C21.0869 9.68496 21.7737 10.3718 21.7737 11.2189C21.7737 12.066 21.0869 12.7528 20.2397 12.7528ZM29.0421 18.9378H22.9795V5.0086C22.9795 4.4344 23.4471 3.95864 24.0295 3.95864H29.0414C34.5455 3.95864 36.9325 7.22336 36.9325 11.4314C36.9333 15.8289 34.5462 18.9378 29.0421 18.9378Z" fill="white"/>
</svg>
