<svg width="40" height="16" viewBox="0 0 40 16" fill="none" xmlns="http://www.w3.org/2000/svg">
<path d="M22.385 7.01416L21.4885 9.39298H22.0158L22.2033 8.86566H23.0939L23.2756 9.39298H23.8205L22.9299 7.01416H22.385ZM22.344 8.47363L22.6545 7.60061H22.6604L22.9592 8.47363H22.344Z" fill="white"/>
<path d="M18.7112 7.30126C18.6116 7.20751 18.5002 7.13134 18.3655 7.08447C18.2307 7.0376 18.0901 7.01416 17.9378 7.01416V7.0083H16.9236V9.38712H17.9489C18.1306 9.38712 18.2888 9.35197 18.4235 9.29338C18.5583 9.22893 18.6696 9.1469 18.7575 9.04143C18.8454 8.93597 18.9098 8.80707 18.9567 8.66059C18.9977 8.51411 19.0212 8.35591 19.0212 8.18013C19.0212 7.98092 18.9919 7.81101 18.9391 7.66453C18.8811 7.52391 18.8049 7.40087 18.7112 7.30126ZM18.447 8.57323C18.4118 8.66698 18.3649 8.73729 18.3122 8.79588C18.2595 8.85447 18.195 8.89549 18.1247 8.91892C18.0485 8.94236 17.9782 8.95408 17.9021 8.95408V8.95994H17.4392V7.45999H17.8142C17.9431 7.45999 18.0485 7.47757 18.1364 7.51272C18.2243 7.54788 18.2946 7.60647 18.3474 7.67092C18.4001 7.73537 18.4411 7.82326 18.4645 7.917C18.488 8.01075 18.4997 8.12208 18.4997 8.23926C18.4997 8.37402 18.4821 8.47948 18.447 8.57323Z" fill="white"/>
<path d="M19.883 8.36816H21.0373V7.96335H19.883V7.4536H21.1369V7.01416V7.0083H19.3616V9.38766H21.1662V8.94822H19.883V8.36816Z" fill="white"/>
<path d="M24.6701 8.95408V7.01416H24.1487V9.39351H25.8303V8.95408H24.6701Z" fill="white"/>
<path d="M20.2464 1.9165H13.25C12.834 1.9165 12.5 2.25048 12.5 2.66648V14.0748C12.5 14.4908 12.834 14.8248 13.25 14.8248H20.2464C24.922 14.8248 27.5005 12.528 27.5005 8.35573C27.5 2.75436 22.9533 1.9165 20.2464 1.9165ZM15.289 13.7174H15.2831C14.3632 13.7174 13.625 12.9733 13.625 12.0593V10.7644C13.625 10.3074 13.9941 9.93238 14.457 9.93238C14.914 9.93238 15.289 10.3015 15.289 10.7644V13.7174ZM14.457 9.29959C13.8519 9.29959 13.3613 8.80901 13.3613 8.20392C13.3613 7.59883 13.8519 7.10826 14.457 7.10826C15.0621 7.10826 15.5526 7.59883 15.5526 8.20392C15.5526 8.80901 15.0621 9.29959 14.457 9.29959ZM20.7444 13.7174H16.4139V3.768C16.4139 3.35786 16.7479 3.01803 17.1639 3.01803H20.7438C24.6753 3.01803 26.3804 5.34998 26.3804 8.35573C26.3809 11.4968 24.6759 13.7174 20.7444 13.7174Z" fill="white"/>
</svg>
