<svg width="57" height="21" viewBox="0 0 57 21" fill="none" xmlns="http://www.w3.org/2000/svg">
<path d="M25.3929 15.8965H22.4868L24.3045 4.65723H27.2105L25.3929 15.8965Z" fill="white"/>
<path d="M35.9279 4.93211C35.3547 4.7047 34.4455 4.45361 33.3213 4.45361C30.4514 4.45361 28.4305 5.98399 28.4181 8.17196C28.3943 9.78624 29.865 10.6829 30.9651 11.2211C32.0894 11.7711 32.4716 12.1301 32.4716 12.6204C32.4602 13.3733 31.5631 13.7204 30.7264 13.7204C29.5661 13.7204 28.9444 13.5415 27.9997 13.1226L27.617 12.943L27.2103 15.466C27.8919 15.7765 29.1477 16.052 30.4514 16.0641C33.5008 16.0641 35.4859 14.5574 35.5095 12.2258C35.5211 10.9463 34.7444 9.96598 33.0701 9.16488C32.0536 8.65062 31.4312 8.30386 31.4312 7.77769C31.4431 7.29935 31.9577 6.8094 33.105 6.8094C34.0498 6.78541 34.744 7.0125 35.2698 7.23975L35.5327 7.3591L35.9279 4.93211Z" fill="white"/>
<path d="M39.7904 11.9148C40.0298 11.2691 40.9507 8.77017 40.9507 8.77017C40.9386 8.79416 41.1895 8.11257 41.333 7.69414L41.5361 8.66258C41.5361 8.66258 42.0865 11.3529 42.206 11.9148C41.7518 11.9148 40.3644 11.9148 39.7904 11.9148ZM43.3777 4.65723H41.1298C40.4366 4.65723 39.9099 4.86032 39.6109 5.58975L35.2942 15.8963H38.3435C38.3435 15.8963 38.8455 14.5091 38.9534 14.2104C39.2879 14.2104 42.2543 14.2104 42.6846 14.2104C42.7681 14.605 43.0314 15.8963 43.0314 15.8963H45.7222L43.3777 4.65723Z" fill="white"/>
<path d="M20.0595 4.65723L17.2135 12.3213C16.6873 10.5278 15.1235 7.91354 13.282 6.94462L15.4914 15.8846H18.5646L23.1325 4.65723H20.0595Z" fill="white"/>
<path d="M14.5707 4.65723H9.895L9.84717 4.88432C13.4945 5.81701 15.91 8.06521 16.9025 10.7674L15.886 5.60199C15.7187 4.88416 15.2044 4.68091 14.5707 4.65723Z" fill="white"/>
</svg>
