<svg width="40" height="16" viewBox="0 0 40 16" fill="none" xmlns="http://www.w3.org/2000/svg">
<path d="M17.9791 12.2595H15.9033L17.2017 4.23145H19.2774L17.9791 12.2595Z" fill="white"/>
<path d="M25.5041 4.42772C25.0946 4.26529 24.4452 4.08594 23.6422 4.08594C21.5923 4.08594 20.1488 5.17906 20.1399 6.7419C20.1229 7.89496 21.1734 8.5354 21.9592 8.91986C22.7623 9.31273 23.0353 9.56915 23.0353 9.91934C23.0271 10.4572 22.3863 10.7051 21.7887 10.7051C20.9599 10.7051 20.5159 10.5773 19.841 10.278L19.5677 10.1498L19.2772 11.9519C19.7641 12.1737 20.6611 12.3705 21.5923 12.3792C23.7704 12.3792 25.1884 11.3029 25.2052 9.63749C25.2135 8.7236 24.6587 8.02334 23.4628 7.45113C22.7367 7.0838 22.2921 6.83612 22.2921 6.46028C22.3006 6.1186 22.6682 5.76864 23.4877 5.76864C24.1626 5.7515 24.6584 5.91371 25.034 6.07604L25.2217 6.16128L25.5041 4.42772Z" fill="white"/>
<path d="M28.263 9.41544C28.4339 8.95424 29.0918 7.16926 29.0918 7.16926C29.0831 7.1864 29.2624 6.69954 29.3649 6.40067L29.5099 7.09241C29.5099 7.09241 29.903 9.01406 29.9884 9.41544C29.664 9.41544 28.673 9.41544 28.263 9.41544ZM30.8253 4.23145H29.2197C28.7245 4.23145 28.3484 4.37651 28.1347 4.89754L25.0514 12.2594H27.2295C27.2295 12.2594 27.5881 11.2685 27.6651 11.0551C27.9041 11.0551 30.0229 11.0551 30.3303 11.0551C30.3899 11.337 30.578 12.2594 30.578 12.2594H32.5L30.8253 4.23145Z" fill="white"/>
<path d="M14.1696 4.23145L12.1367 9.70581C11.7608 8.42471 10.6439 6.55738 9.32849 5.8653L10.9067 12.251H13.1018L16.3646 4.23145H14.1696Z" fill="white"/>
<path d="M10.2489 4.23145H6.90917L6.875 4.39365C9.48022 5.05986 11.2056 6.66572 11.9145 8.59588L11.1885 4.90628C11.0689 4.39354 10.7016 4.24836 10.2489 4.23145Z" fill="white"/>
</svg>
