<svg width="57" height="22" viewBox="0 0 57 22" fill="none" xmlns="http://www.w3.org/2000/svg">
<g clip-path="url(#clip0_204_2232)">
<path d="M20.2594 21.5507V20.1624C20.2675 20.0456 20.2506 19.9285 20.2099 19.8188C20.1692 19.7091 20.1055 19.6093 20.0232 19.5261C19.9409 19.4429 19.8418 19.3782 19.7325 19.3363C19.6232 19.2944 19.5063 19.2763 19.3894 19.2832C19.2365 19.2731 19.0837 19.3043 18.9469 19.3735C18.8102 19.4427 18.6945 19.5474 18.612 19.6765C18.5368 19.5512 18.4292 19.4486 18.3005 19.3793C18.1718 19.3101 18.0268 19.2769 17.8808 19.2832C17.7536 19.2767 17.6269 19.3037 17.5132 19.3613C17.3996 19.4189 17.303 19.5053 17.233 19.6117V19.3387H16.7517V21.5507H17.2376V20.3336C17.2273 20.258 17.2338 20.181 17.2566 20.1082C17.2795 20.0353 17.3182 19.9684 17.3699 19.9123C17.4217 19.8561 17.4852 19.8121 17.5559 19.7833C17.6266 19.7546 17.7028 19.7418 17.779 19.7459C18.0983 19.7459 18.2603 19.9542 18.2603 20.329V21.5599H18.7462V20.3336C18.7363 20.2581 18.7431 20.1812 18.7661 20.1086C18.7892 20.0359 18.8279 19.9692 18.8795 19.9132C18.9311 19.8571 18.9944 19.8131 19.065 19.7842C19.1355 19.7553 19.2115 19.7422 19.2876 19.7459C19.6162 19.7459 19.7735 19.9542 19.7735 20.329V21.5599L20.2594 21.5507ZM27.4484 19.3387H26.6571V18.6677H26.1712V19.3387H25.7315V19.7783H26.1804V20.7964C26.1804 21.31 26.3794 21.6155 26.9486 21.6155C27.1613 21.6162 27.3698 21.5568 27.5502 21.4442L27.4114 21.0324C27.2823 21.1094 27.1358 21.1524 26.9856 21.1573C26.7542 21.1573 26.6663 21.0093 26.6663 20.7871V19.7783H27.453L27.4484 19.3387ZM31.5531 19.2832C31.4357 19.2797 31.3196 19.308 31.217 19.365C31.1144 19.422 31.029 19.5056 30.97 19.6071V19.3387H30.4933V21.5507H30.9746V20.3105C30.9746 19.9449 31.1319 19.7413 31.4374 19.7413C31.5403 19.7399 31.6425 19.7588 31.7382 19.7968L31.8862 19.3341C31.7763 19.2947 31.6605 19.2744 31.5438 19.2739L31.5531 19.2832ZM25.3475 19.5145C25.075 19.3526 24.7618 19.2723 24.4451 19.2832C23.8851 19.2832 23.5196 19.5516 23.5196 19.9912C23.5196 20.3521 23.788 20.5743 24.2831 20.6437L24.5145 20.6761C24.7783 20.7131 24.9032 20.7825 24.9032 20.9074C24.9032 21.0787 24.7274 21.1758 24.3988 21.1758C24.1345 21.1835 23.8753 21.102 23.663 20.9445L23.4316 21.3193C23.712 21.515 24.0478 21.6156 24.3895 21.6062C25.0282 21.6062 25.3984 21.3054 25.3984 20.8843C25.3984 20.4632 25.1068 20.292 24.6256 20.2226L24.3942 20.1902C24.1859 20.1624 24.0193 20.1208 24.0193 19.9727C24.0193 19.8246 24.1767 19.7135 24.4404 19.7135C24.6842 19.7164 24.9232 19.7817 25.1346 19.9033L25.3475 19.5145ZM38.2376 19.2832C38.1203 19.2797 38.0042 19.308 37.9015 19.365C37.7989 19.422 37.7136 19.5056 37.6545 19.6071V19.3387H37.1779V21.5507H37.6592V20.3105C37.6592 19.9449 37.8165 19.7413 38.1219 19.7413C38.2248 19.7399 38.3271 19.7588 38.4227 19.7968L38.5708 19.3341C38.4609 19.2947 38.3451 19.2744 38.2283 19.2739L38.2376 19.2832ZM32.0366 20.4401C32.0309 20.5955 32.0577 20.7504 32.1153 20.8949C32.1729 21.0394 32.26 21.1703 32.3711 21.2792C32.4821 21.3881 32.6147 21.4726 32.7603 21.5273C32.9059 21.582 33.0614 21.6058 33.2167 21.597C33.5056 21.6117 33.7896 21.5175 34.0126 21.3332L33.7812 20.9445C33.6149 21.0713 33.412 21.1411 33.2028 21.1435C33.0249 21.1291 32.8589 21.0482 32.7379 20.917C32.6169 20.7858 32.5497 20.6139 32.5497 20.4354C32.5497 20.257 32.6169 20.085 32.7379 19.9538C32.8589 19.8226 33.0249 19.7418 33.2028 19.7274C33.412 19.7297 33.6149 19.7995 33.7812 19.9264L34.0126 19.5377C33.7896 19.3533 33.5056 19.2592 33.2167 19.2739C33.0614 19.2651 32.9059 19.2888 32.7603 19.3435C32.6147 19.3983 32.4821 19.4828 32.3711 19.5917C32.26 19.7006 32.1729 19.8314 32.1153 19.9759C32.0577 20.1204 32.0309 20.2754 32.0366 20.4308V20.4401ZM36.5439 20.4401V19.3387H36.0626V19.6071C35.9809 19.5019 35.8753 19.4177 35.7546 19.3614C35.634 19.3051 35.5016 19.2783 35.3685 19.2832C35.0617 19.2832 34.7674 19.405 34.5504 19.622C34.3335 19.839 34.2116 20.1332 34.2116 20.4401C34.2116 20.7469 34.3335 21.0411 34.5504 21.2581C34.7674 21.4751 35.0617 21.597 35.3685 21.597C35.5016 21.6019 35.634 21.5751 35.7546 21.5187C35.8753 21.4624 35.9809 21.3782 36.0626 21.273V21.5414H36.5439V20.4401ZM34.753 20.4401C34.7607 20.3099 34.8063 20.1847 34.8842 20.0801C34.9621 19.9755 35.0688 19.8959 35.1914 19.8512C35.3139 19.8065 35.4468 19.7986 35.5738 19.8285C35.7007 19.8584 35.8162 19.9248 35.9059 20.0194C35.9956 20.1141 36.0557 20.2329 36.0787 20.3613C36.1018 20.4897 36.0868 20.622 36.0355 20.742C35.9843 20.8619 35.8991 20.9643 35.7905 21.0364C35.6818 21.1086 35.5545 21.1474 35.424 21.1481C35.3324 21.1492 35.2416 21.1314 35.1572 21.0958C35.0728 21.0601 34.9967 21.0074 34.9336 20.9409C34.8706 20.8744 34.822 20.7955 34.7909 20.7094C34.7599 20.6232 34.747 20.5315 34.753 20.4401ZM28.9454 19.2832C28.6386 19.2875 28.346 19.4135 28.1321 19.6335C27.9182 19.8535 27.8004 20.1494 27.8047 20.4563C27.809 20.7631 27.935 21.0556 28.155 21.2696C28.375 21.4835 28.671 21.6013 28.9778 21.597C29.3107 21.614 29.6381 21.5068 29.8964 21.2962L29.665 20.9398C29.4823 21.0864 29.2559 21.1678 29.0218 21.1712C28.8627 21.1849 28.7045 21.136 28.5809 21.0349C28.4574 20.9338 28.3781 20.7884 28.36 20.6298H30.0028C30.0028 20.5696 30.0028 20.5095 30.0028 20.4447C30.0028 19.7505 29.5724 19.2878 28.9523 19.2878L28.9454 19.2832ZM28.9454 19.7135C29.0174 19.712 29.089 19.7247 29.1562 19.7508C29.2233 19.777 29.2846 19.8161 29.3366 19.8659C29.3886 19.9158 29.4302 19.9754 29.4592 20.0413C29.4882 20.1073 29.5038 20.1783 29.5053 20.2503H28.3484C28.3568 20.1018 28.423 19.9624 28.5329 19.8621C28.6427 19.7618 28.7875 19.7085 28.9361 19.7135H28.9454ZM41.0026 20.4447V18.4502H40.5398V19.6071C40.4581 19.5019 40.3525 19.4177 40.2318 19.3614C40.1111 19.3051 39.9788 19.2783 39.8457 19.2832C39.5389 19.2832 39.2446 19.405 39.0276 19.622C38.8107 19.839 38.6888 20.1332 38.6888 20.4401C38.6888 20.7469 38.8107 21.0411 39.0276 21.2581C39.2446 21.4751 39.5389 21.597 39.8457 21.597C39.9788 21.6019 40.1111 21.5751 40.2318 21.5187C40.3525 21.4624 40.4581 21.3782 40.5398 21.273V21.5414H41.0026V20.4447ZM41.8055 21.2291C41.8356 21.2287 41.8654 21.2342 41.8934 21.2453C41.92 21.2561 41.9443 21.2718 41.9651 21.2915C41.9855 21.3115 42.0019 21.335 42.0137 21.3609C42.0254 21.388 42.0315 21.4171 42.0315 21.4466C42.0315 21.476 42.0254 21.5051 42.0137 21.5322C42.0019 21.5581 41.9855 21.5816 41.9651 21.6016C41.9443 21.6213 41.92 21.637 41.8934 21.6479C41.8657 21.6601 41.8357 21.6664 41.8055 21.6664C41.7616 21.666 41.7187 21.6532 41.6819 21.6295C41.645 21.6057 41.6157 21.572 41.5972 21.5322C41.5856 21.5051 41.5797 21.476 41.5797 21.4466C41.5797 21.4171 41.5856 21.388 41.5972 21.3609C41.609 21.335 41.6255 21.3115 41.6458 21.2915C41.6667 21.2718 41.691 21.2561 41.7175 21.2453C41.7477 21.2333 41.78 21.2278 41.8124 21.2291H41.8055ZM41.8055 21.6201C41.8286 21.6202 41.8514 21.6155 41.8726 21.6062C41.8925 21.5973 41.9105 21.5848 41.9258 21.5692C41.9547 21.5376 41.9708 21.4963 41.9708 21.4535C41.9708 21.4107 41.9547 21.3694 41.9258 21.3378C41.9106 21.3222 41.8925 21.3096 41.8726 21.3008C41.8514 21.2916 41.8286 21.2868 41.8055 21.2869C41.7824 21.287 41.7596 21.2917 41.7384 21.3008C41.7176 21.3093 41.6987 21.3219 41.6828 21.3378C41.6539 21.3694 41.6378 21.4107 41.6378 21.4535C41.6378 21.4963 41.6539 21.5376 41.6828 21.5692C41.6987 21.5851 41.7176 21.5976 41.7384 21.6062C41.7617 21.6163 41.787 21.621 41.8124 21.6201H41.8055ZM41.8194 21.3448C41.841 21.3437 41.8622 21.3503 41.8795 21.3633C41.8866 21.3691 41.8922 21.3766 41.8958 21.385C41.8994 21.3935 41.901 21.4027 41.9003 21.4119C41.9007 21.4195 41.8994 21.4272 41.8966 21.4344C41.8938 21.4415 41.8896 21.4481 41.8841 21.4535C41.8707 21.4657 41.8536 21.473 41.8356 21.4743L41.9027 21.5507H41.8494L41.787 21.4743H41.7661V21.5507H41.7222V21.3471L41.8194 21.3448ZM41.7684 21.3841V21.4396H41.8194C41.8284 21.4423 41.8381 21.4423 41.8471 21.4396C41.8487 21.4364 41.8496 21.4328 41.8496 21.4292C41.8496 21.4256 41.8487 21.422 41.8471 21.4188C41.8487 21.4156 41.8496 21.412 41.8496 21.4084C41.8496 21.4048 41.8487 21.4012 41.8471 21.398C41.8381 21.3953 41.8284 21.3953 41.8194 21.398L41.7684 21.3841ZM39.2233 20.4447C39.231 20.3145 39.2765 20.1894 39.3544 20.0847C39.4323 19.9801 39.5391 19.9006 39.6616 19.8558C39.7841 19.8111 39.9171 19.8032 40.044 19.8331C40.171 19.863 40.2864 19.9294 40.3762 20.0241C40.4659 20.1187 40.526 20.2376 40.549 20.3659C40.572 20.4943 40.557 20.6266 40.5058 20.7466C40.4546 20.8666 40.3694 20.9689 40.2607 21.0411C40.1521 21.1132 40.0247 21.152 39.8943 21.1527C39.8027 21.1539 39.7118 21.1361 39.6274 21.1004C39.543 21.0647 39.4669 21.012 39.4039 20.9455C39.3409 20.879 39.2923 20.8002 39.2612 20.714C39.2301 20.6278 39.2172 20.5361 39.2233 20.4447ZM22.9735 20.4447V19.3387H22.4922V19.6071C22.4105 19.5019 22.3049 19.4177 22.1842 19.3614C22.0635 19.3051 21.9312 19.2783 21.7981 19.2832C21.4913 19.2832 21.197 19.405 20.98 19.622C20.7631 19.839 20.6412 20.1332 20.6412 20.4401C20.6412 20.7469 20.7631 21.0411 20.98 21.2581C21.197 21.4751 21.4913 21.597 21.7981 21.597C21.9312 21.6019 22.0635 21.5751 22.1842 21.5187C22.3049 21.4624 22.4105 21.3782 22.4922 21.273V21.5414H22.9735V20.4447ZM21.1826 20.4447C21.1903 20.3145 21.2359 20.1894 21.3138 20.0847C21.3916 19.9801 21.4984 19.9006 21.621 19.8558C21.7435 19.8111 21.8764 19.8032 22.0034 19.8331C22.1303 19.863 22.2458 19.9294 22.3355 20.0241C22.4252 20.1187 22.4853 20.2376 22.5083 20.3659C22.5314 20.4943 22.5163 20.6266 22.4651 20.7466C22.4139 20.8666 22.3287 20.9689 22.2201 21.0411C22.1114 21.1132 21.9841 21.152 21.8536 21.1527C21.7616 21.1545 21.6703 21.1372 21.5853 21.1018C21.5004 21.0664 21.4237 21.0138 21.3602 20.9472C21.2966 20.8806 21.2476 20.8016 21.2163 20.7151C21.1849 20.6286 21.1719 20.5365 21.178 20.4447H21.1826Z" fill="white"/>
<path fill-rule="evenodd" clip-rule="evenodd" d="M41.0048 13.4176C41.8341 12.0928 42.2739 10.5613 42.2739 8.99829V8.99598C42.2739 7.43296 41.8341 5.90149 41.0048 4.57663C40.1755 3.25176 38.9902 2.18696 37.5843 1.50393C36.1784 0.820906 34.6087 0.547218 33.0547 0.714152C31.5006 0.881086 30.0248 1.48191 28.7961 2.44794C29.7879 3.22735 30.5896 4.22183 31.141 5.35634C31.6923 6.49085 31.9788 7.73575 31.9788 8.99713C31.9788 10.2585 31.6923 11.5034 31.141 12.6379C30.5896 13.7724 29.7879 14.7669 28.7961 15.5463C30.0248 16.5124 31.5006 17.1132 33.0547 17.2801C34.6087 17.447 36.1784 17.1734 37.5843 16.4903C38.9902 15.8073 40.1755 14.7425 41.0048 13.4176ZM26.4502 5.35649C25.899 6.49136 25.6133 7.73678 25.6146 8.99843C25.6136 10.2597 25.8995 11.5046 26.4507 12.6391C27.0019 13.7735 27.8039 14.7677 28.7961 15.5465C27.5673 16.5122 26.0915 17.1127 24.5375 17.2794C22.9836 17.4461 21.414 17.1722 20.0083 16.4891C18.6026 15.806 17.4175 14.7412 16.5883 13.4164C15.7592 12.0915 15.3195 10.5602 15.3195 8.99727C15.3195 7.43437 15.7592 5.903 16.5883 4.57818C17.4175 3.25336 18.6026 2.18854 20.0083 1.50542C21.414 0.822293 22.9836 0.548429 24.5375 0.715124C26.0915 0.881819 27.5673 1.48235 28.7961 2.44807C27.8036 3.22704 27.0014 4.22162 26.4502 5.35649Z" fill="white"/>
<path d="M31.0534 8.99617C31.0534 11.6797 28.7396 13.8551 28.7396 13.8551C28.7396 13.8551 26.4258 11.6797 26.4258 8.99617C26.4258 6.31264 28.7396 4.13721 28.7396 4.13721C28.7396 4.13721 31.0534 6.31264 31.0534 8.99617Z" fill="white"/>
</g>
<defs>
<clipPath id="clip0_204_2232">
<rect width="56" height="21" fill="white" transform="translate(0.444458 0.666504)"/>
</clipPath>
</defs>
</svg>
