<svg width="40" height="16" viewBox="0 0 40 16" fill="none" xmlns="http://www.w3.org/2000/svg">
<g clip-path="url(#clip0_187_3620)">
<path d="M14.1536 15.5838V14.5921C14.1594 14.5087 14.1473 14.4251 14.1182 14.3467C14.0891 14.2683 14.0437 14.1971 13.9849 14.1376C13.9261 14.0782 13.8553 14.032 13.7772 14.0021C13.6992 13.9722 13.6156 13.9592 13.5322 13.9641C13.4229 13.957 13.3138 13.9792 13.2161 14.0287C13.1184 14.0781 13.0358 14.1528 12.9769 14.2451C12.9231 14.1556 12.8463 14.0823 12.7543 14.0328C12.6624 13.9834 12.5589 13.9596 12.4546 13.9641C12.3637 13.9595 12.2732 13.9788 12.192 14.0199C12.1108 14.0611 12.0418 14.1228 11.9918 14.1988V14.0038H11.6481V15.5838H11.9951V14.7144C11.9878 14.6604 11.9924 14.6054 12.0087 14.5534C12.0251 14.5014 12.0527 14.4536 12.0897 14.4135C12.1266 14.3734 12.172 14.3419 12.2225 14.3214C12.273 14.3009 12.3274 14.2917 12.3819 14.2947C12.6099 14.2947 12.7256 14.4434 12.7256 14.7111V15.5904H13.0727V14.7144C13.0656 14.6605 13.0705 14.6056 13.0869 14.5537C13.1034 14.5018 13.131 14.4542 13.1679 14.4141C13.2048 14.3741 13.25 14.3426 13.3004 14.322C13.3508 14.3013 13.4051 14.292 13.4594 14.2947C13.6941 14.2947 13.8065 14.4434 13.8065 14.7111V15.5904L14.1536 15.5838ZM19.2886 14.0038H18.7233V13.5245H18.3763V14.0038H18.0622V14.3178H18.3829V15.045C18.3829 15.4119 18.525 15.63 18.9316 15.63C19.0835 15.6306 19.2324 15.5882 19.3613 15.5077L19.2621 15.2136C19.1699 15.2686 19.0653 15.2993 18.958 15.3028C18.7927 15.3028 18.7299 15.197 18.7299 15.0384V14.3178H19.2919L19.2886 14.0038ZM22.2205 13.9641C22.1366 13.9617 22.0537 13.9818 21.9804 14.0226C21.9071 14.0633 21.8462 14.123 21.804 14.1955V14.0038H21.4635V15.5838H21.8073V14.6979C21.8073 14.4368 21.9197 14.2914 22.1378 14.2914C22.2114 14.2903 22.2844 14.3038 22.3527 14.331L22.4584 14.0005C22.3799 13.9724 22.2972 13.9579 22.2138 13.9575L22.2205 13.9641ZM17.7879 14.1294C17.5933 14.0137 17.3696 13.9563 17.1433 13.9641C16.7434 13.9641 16.4822 14.1558 16.4822 14.4698C16.4822 14.7277 16.674 14.8863 17.0276 14.9359L17.1929 14.959C17.3813 14.9855 17.4706 15.0351 17.4706 15.1243C17.4706 15.2466 17.345 15.316 17.1103 15.316C16.9215 15.3215 16.7364 15.2633 16.5847 15.1508L16.4194 15.4185C16.6197 15.5583 16.8595 15.6302 17.1037 15.6234C17.5598 15.6234 17.8243 15.4086 17.8243 15.1078C17.8243 14.807 17.616 14.6847 17.2722 14.6351L17.107 14.612C16.9582 14.5921 16.8392 14.5624 16.8392 14.4566C16.8392 14.3509 16.9516 14.2715 17.14 14.2715C17.3142 14.2735 17.4849 14.3202 17.6358 14.407L17.7879 14.1294ZM26.9951 13.9641C26.9113 13.9617 26.8284 13.9818 26.7551 14.0226C26.6818 14.0633 26.6208 14.123 26.5787 14.1955V14.0038H26.2382V15.5838H26.582V14.6979C26.582 14.4368 26.6943 14.2914 26.9125 14.2914C26.986 14.2903 27.059 14.3038 27.1274 14.331L27.2331 14.0005C27.1546 13.9724 27.0719 13.9579 26.9885 13.9575L26.9951 13.9641ZM22.5659 14.7905C22.5618 14.9015 22.5809 15.0122 22.6221 15.1154C22.6632 15.2186 22.7254 15.3121 22.8048 15.3899C22.8841 15.4676 22.9788 15.528 23.0828 15.5671C23.1868 15.6062 23.2978 15.6231 23.4088 15.6168C23.6152 15.6273 23.818 15.5601 23.9773 15.4284L23.812 15.1508C23.6932 15.2414 23.5483 15.2912 23.3988 15.2929C23.2718 15.2826 23.1532 15.2249 23.0668 15.1312C22.9804 15.0375 22.9324 14.9146 22.9324 14.7872C22.9324 14.6597 22.9804 14.5369 23.0668 14.4432C23.1532 14.3495 23.2718 14.2917 23.3988 14.2814C23.5483 14.2831 23.6932 14.3329 23.812 14.4236L23.9773 14.1459C23.818 14.0142 23.6152 13.947 23.4088 13.9575C23.2978 13.9512 23.1868 13.9682 23.0828 14.0072C22.9788 14.0463 22.8841 14.1067 22.8048 14.1845C22.7254 14.2623 22.6632 14.3557 22.6221 14.459C22.5809 14.5622 22.5618 14.6728 22.5659 14.7839V14.7905ZM25.7854 14.7905V14.0038H25.4416V14.1955C25.3832 14.1204 25.3078 14.0602 25.2216 14.02C25.1354 13.9798 25.0408 13.9606 24.9458 13.9641C24.7266 13.9641 24.5164 14.0512 24.3615 14.2062C24.2065 14.3611 24.1194 14.5713 24.1194 14.7905C24.1194 15.0096 24.2065 15.2198 24.3615 15.3748C24.5164 15.5298 24.7266 15.6168 24.9458 15.6168C25.0408 15.6203 25.1354 15.6012 25.2216 15.561C25.3078 15.5207 25.3832 15.4606 25.4416 15.3854V15.5772H25.7854V14.7905ZM24.5062 14.7905C24.5116 14.6975 24.5442 14.6081 24.5998 14.5334C24.6555 14.4586 24.7317 14.4018 24.8193 14.3699C24.9068 14.3379 25.0017 14.3323 25.0924 14.3536C25.1831 14.375 25.2656 14.4224 25.3296 14.49C25.3937 14.5576 25.4366 14.6425 25.4531 14.7342C25.4695 14.8259 25.4588 14.9204 25.4222 15.0061C25.3857 15.0918 25.3248 15.1649 25.2472 15.2165C25.1696 15.268 25.0786 15.2957 24.9854 15.2962C24.92 15.297 24.8551 15.2843 24.7948 15.2588C24.7345 15.2334 24.6802 15.1957 24.6352 15.1482C24.5901 15.1007 24.5554 15.0444 24.5332 14.9828C24.511 14.9213 24.5018 14.8558 24.5062 14.7905ZM20.3579 13.9641C20.1387 13.9672 19.9297 14.0572 19.7769 14.2143C19.6241 14.3715 19.54 14.5829 19.5431 14.802C19.5461 15.0212 19.6361 15.2302 19.7933 15.383C19.9504 15.5358 20.1618 15.6199 20.381 15.6168C20.6188 15.629 20.8526 15.5525 21.0371 15.402L20.8718 15.1475C20.7413 15.2521 20.5797 15.3103 20.4124 15.3127C20.2988 15.3225 20.1858 15.2876 20.0975 15.2153C20.0093 15.1431 19.9526 15.0393 19.9397 14.926H21.1131C21.1131 14.883 21.1131 14.8401 21.1131 14.7938C21.1131 14.298 20.8057 13.9674 20.3628 13.9674L20.3579 13.9641ZM20.3579 14.2715C20.4093 14.2704 20.4604 14.2795 20.5084 14.2981C20.5563 14.3168 20.6001 14.3448 20.6373 14.3804C20.6744 14.416 20.7042 14.4586 20.7249 14.5057C20.7455 14.5528 20.7567 14.6035 20.7578 14.6549H19.9315C19.9374 14.5489 19.9847 14.4493 20.0632 14.3777C20.1416 14.306 20.245 14.2679 20.3512 14.2715H20.3579ZM28.9701 14.7938V13.3691H28.6396V14.1955C28.5812 14.1204 28.5058 14.0602 28.4196 14.02C28.3334 13.9798 28.2388 13.9606 28.1438 13.9641C27.9246 13.9641 27.7144 14.0512 27.5595 14.2062C27.4045 14.3611 27.3174 14.5713 27.3174 14.7905C27.3174 15.0096 27.4045 15.2198 27.5595 15.3748C27.7144 15.5298 27.9246 15.6168 28.1438 15.6168C28.2388 15.6203 28.3334 15.6012 28.4196 15.561C28.5058 15.5207 28.5812 15.4606 28.6396 15.3854V15.5772H28.9701V14.7938ZM29.5436 15.354C29.5651 15.3538 29.5864 15.3577 29.6064 15.3656C29.6254 15.3734 29.6428 15.3846 29.6577 15.3987C29.6722 15.4129 29.6839 15.4297 29.6924 15.4483C29.7007 15.4676 29.7051 15.4884 29.7051 15.5094C29.7051 15.5304 29.7007 15.5513 29.6924 15.5706C29.6839 15.5891 29.6722 15.6059 29.6577 15.6201C29.6428 15.6342 29.6254 15.6454 29.6064 15.6532C29.5866 15.6619 29.5652 15.6664 29.5436 15.6664C29.5123 15.6662 29.4817 15.657 29.4553 15.6401C29.429 15.6231 29.408 15.599 29.3949 15.5706C29.3866 15.5512 29.3823 15.5304 29.3823 15.5094C29.3823 15.4884 29.3866 15.4676 29.3949 15.4483C29.4033 15.4297 29.4151 15.4129 29.4296 15.3987C29.4445 15.3846 29.4618 15.3734 29.4808 15.3656C29.5023 15.3571 29.5254 15.3531 29.5486 15.354H29.5436ZM29.5436 15.6334C29.5601 15.6335 29.5764 15.6301 29.5915 15.6234C29.6058 15.6171 29.6187 15.6081 29.6296 15.597C29.6502 15.5744 29.6617 15.545 29.6617 15.5144C29.6617 15.4838 29.6502 15.4543 29.6296 15.4317C29.6187 15.4206 29.6058 15.4116 29.5915 15.4053C29.5764 15.3987 29.5601 15.3953 29.5436 15.3954C29.5271 15.3955 29.5108 15.3988 29.4957 15.4053C29.4808 15.4114 29.4674 15.4204 29.456 15.4317C29.4354 15.4543 29.4239 15.4838 29.4239 15.5144C29.4239 15.545 29.4354 15.5744 29.456 15.597C29.4674 15.6083 29.4809 15.6173 29.4957 15.6234C29.5124 15.6306 29.5304 15.634 29.5486 15.6334H29.5436ZM29.5535 15.4367C29.569 15.4359 29.5842 15.4406 29.5965 15.4499C29.6016 15.4541 29.6056 15.4594 29.6081 15.4655C29.6107 15.4715 29.6118 15.4781 29.6114 15.4846C29.6116 15.4901 29.6107 15.4956 29.6087 15.5007C29.6067 15.5058 29.6037 15.5105 29.5998 15.5144C29.5902 15.5231 29.578 15.5283 29.5651 15.5292L29.613 15.5838H29.575L29.5304 15.5292H29.5155V15.5838H29.4841V15.4383L29.5535 15.4367ZM29.5172 15.4648V15.5044H29.5535C29.56 15.5064 29.5669 15.5064 29.5734 15.5044C29.5745 15.5021 29.5751 15.4996 29.5751 15.497C29.5751 15.4944 29.5745 15.4919 29.5734 15.4896C29.5745 15.4873 29.5751 15.4847 29.5751 15.4821C29.5751 15.4795 29.5745 15.477 29.5734 15.4747C29.5669 15.4728 29.56 15.4728 29.5535 15.4747L29.5172 15.4648ZM27.6992 14.7938C27.7047 14.7008 27.7372 14.6114 27.7929 14.5367C27.8485 14.4619 27.9248 14.4051 28.0123 14.3732C28.0998 14.3412 28.1948 14.3356 28.2854 14.357C28.3761 14.3783 28.4586 14.4257 28.5227 14.4933C28.5868 14.5609 28.6297 14.6458 28.6461 14.7375C28.6626 14.8292 28.6519 14.9237 28.6153 15.0094C28.5787 15.0951 28.5178 15.1682 28.4402 15.2198C28.3626 15.2713 28.2716 15.299 28.1785 15.2995C28.113 15.3003 28.0481 15.2876 27.9879 15.2621C27.9276 15.2367 27.8732 15.199 27.8282 15.1515C27.7832 15.104 27.7485 15.0477 27.7263 14.9861C27.7041 14.9246 27.6949 14.8591 27.6992 14.7938ZM16.0922 14.7938V14.0038H15.7484V14.1955C15.6901 14.1204 15.6147 14.0602 15.5285 14.02C15.4422 13.9798 15.3477 13.9606 15.2526 13.9641C15.0335 13.9641 14.8233 14.0512 14.6683 14.2062C14.5133 14.3611 14.4263 14.5713 14.4263 14.7905C14.4263 15.0096 14.5133 15.2198 14.6683 15.3748C14.8233 15.5298 15.0335 15.6168 15.2526 15.6168C15.3477 15.6203 15.4422 15.6012 15.5285 15.561C15.6147 15.5207 15.6901 15.4606 15.7484 15.3854V15.5772H16.0922V14.7938ZM14.813 14.7938C14.8185 14.7008 14.8511 14.6114 14.9067 14.5367C14.9623 14.4619 15.0386 14.4051 15.1261 14.3732C15.2136 14.3412 15.3086 14.3356 15.3993 14.357C15.4899 14.3783 15.5724 14.4257 15.6365 14.4933C15.7006 14.5609 15.7435 14.6458 15.7599 14.7375C15.7764 14.8292 15.7657 14.9237 15.7291 15.0094C15.6925 15.0951 15.6317 15.1682 15.5541 15.2198C15.4764 15.2713 15.3855 15.299 15.2923 15.2995C15.2266 15.3008 15.1613 15.2884 15.1006 15.2631C15.04 15.2379 14.9852 15.2003 14.9398 15.1527C14.8945 15.1052 14.8595 15.0487 14.8371 14.9869C14.8147 14.9251 14.8053 14.8594 14.8097 14.7938H14.813Z" fill="white"/>
<path fill-rule="evenodd" clip-rule="evenodd" d="M28.9717 9.77445C29.564 8.82812 29.8782 7.73422 29.8782 6.61778V6.61613C29.8782 5.49969 29.564 4.40578 28.9717 3.45945C28.3793 2.51312 27.5326 1.75254 26.5285 1.26467C25.5243 0.776791 24.4031 0.5813 23.293 0.700538C22.1829 0.819777 21.1288 1.24893 20.2512 1.93896C20.9596 2.49568 21.5323 3.20602 21.9261 4.01639C22.3199 4.82675 22.5245 5.71597 22.5245 6.61695C22.5245 7.51794 22.3199 8.40716 21.9261 9.21752C21.5323 10.0279 20.9596 10.7382 20.2512 11.2949C21.1288 11.985 22.1829 12.4141 23.293 12.5334C24.4031 12.6526 25.5243 12.4571 26.5285 11.9692C27.5326 11.4814 28.3793 10.7208 28.9717 9.77445ZM18.5755 4.01639C18.1818 4.82702 17.9777 5.7166 17.9787 6.61778C17.978 7.51868 18.1822 8.40794 18.5759 9.21825C18.9696 10.0286 19.5425 10.7387 20.2512 11.2949C19.3734 11.9848 18.3193 12.4137 17.2093 12.5328C16.0994 12.6518 14.9783 12.4562 13.9742 11.9683C12.9701 11.4803 12.1236 10.7197 11.5313 9.77344C10.9391 8.82714 10.625 7.73331 10.625 6.61695C10.625 5.5006 10.9391 4.40676 11.5313 3.46046C12.1236 2.51416 12.9701 1.75357 13.9742 1.26563C14.9783 0.777684 16.0994 0.582066 17.2093 0.701134C18.3193 0.820202 19.3734 1.24915 20.2512 1.93896C19.5423 2.49536 18.9693 3.20577 18.5755 4.01639Z" fill="white"/>
<path d="M21.8635 6.6162C21.8635 8.53301 20.2108 10.0869 20.2108 10.0869C20.2108 10.0869 18.5581 8.53301 18.5581 6.6162C18.5581 4.69939 20.2108 3.14551 20.2108 3.14551C20.2108 3.14551 21.8635 4.69939 21.8635 6.6162Z" fill="white"/>
</g>
<defs>
<clipPath id="clip0_187_3620">
<rect width="40" height="15" fill="white" transform="translate(0 0.666504)"/>
</clipPath>
</defs>
</svg>
