<svg width="40" height="16" viewBox="0 0 40 16" fill="none" xmlns="http://www.w3.org/2000/svg">
<path fill-rule="evenodd" clip-rule="evenodd" d="M35.4422 8.62011C35.4422 8.69558 35.3803 8.75744 35.3044 8.75744H34.9006C34.8134 8.75744 34.7538 8.69444 34.7427 8.62011L34.7021 8.34524C34.5165 8.50228 34.2888 8.64028 34.0418 8.73637C33.5668 8.92083 33.0193 8.95142 32.5552 8.66634C32.2196 8.46035 32.0415 8.05767 32.0415 7.64229C32.0415 7.32096 32.1405 7.00235 32.3601 6.77098C32.6531 6.45486 33.0778 6.29963 33.5906 6.29963C33.9004 6.29963 34.3436 6.33612 34.6661 6.44149V5.88833C34.6661 5.32589 34.4293 5.08251 33.805 5.08251C33.3277 5.08251 32.9626 5.15457 32.4546 5.31252C32.3732 5.31524 32.3256 5.25337 32.3256 5.17791V4.86247C32.3256 4.78678 32.3902 4.71359 32.4602 4.69138C32.823 4.53321 33.337 4.43463 33.8834 4.4165C34.5956 4.4165 35.4422 4.57717 35.4422 5.6726V8.62011ZM34.6661 7.81248V6.97787C34.395 6.90377 33.9466 6.87295 33.773 6.87295C33.4988 6.87295 33.1985 6.93776 33.0417 7.10659C32.9246 7.23032 32.8715 7.40798 32.8715 7.57975C32.8715 7.80183 32.9484 8.02458 33.1278 8.13472C33.3363 8.27635 33.6597 8.25913 33.9636 8.17279C34.2557 8.08985 34.5299 7.94323 34.6661 7.81248ZM3.1143 8.85738C3.06218 8.90406 2.98694 8.90723 2.92825 8.87573C2.70593 8.69114 2.63861 8.59091 2.53588 8.43798L2.53587 8.43795C2.51766 8.41085 2.49834 8.38209 2.47684 8.3509C2.04447 8.79121 1.73855 8.92332 1.1786 8.92332C0.515764 8.92332 0 8.51406 0 7.696C0 7.05674 0.346033 6.6221 0.839816 6.40908C1.2006 6.25061 1.6823 6.20173 2.09841 6.15951L2.09843 6.15951L2.09846 6.15951L2.0985 6.15951C2.17502 6.15174 2.24933 6.1442 2.32026 6.13625V6.03405C2.32026 6.01433 2.32042 5.99426 2.32059 5.97392L2.32059 5.97383C2.32201 5.80036 2.32359 5.60799 2.22463 5.46299C2.12877 5.31796 1.94454 5.25836 1.78274 5.25836C1.48225 5.25836 1.21508 5.41223 1.14982 5.73107C1.13622 5.802 1.08433 5.87247 1.01295 5.8761L0.249724 5.79339C0.18514 5.77866 0.113531 5.72699 0.132113 5.62864C0.305017 4.71563 1.12059 4.43101 1.86183 4.4233H1.92029C2.29964 4.42806 2.78413 4.53208 3.07917 4.81511C3.43094 5.14398 3.42844 5.57342 3.42569 6.04423V6.04424V6.04424V6.04425C3.42545 6.08601 3.42521 6.12809 3.42521 6.17046V7.3971C3.42521 7.72662 3.54745 7.89092 3.67605 8.06376C3.69152 8.08455 3.70707 8.10545 3.72252 8.12679C3.7726 8.19862 3.78416 8.2836 3.72003 8.33617C3.55913 8.47101 3.27315 8.71914 3.11611 8.85919L3.1143 8.85738ZM2.32026 6.93754L2.32029 6.97808C2.3206 7.26708 2.32087 7.51209 2.17296 7.77282C2.04787 7.99422 1.84891 8.13064 1.62774 8.13064C1.32589 8.13064 1.14914 7.90063 1.14914 7.55958C1.14914 6.88882 1.75079 6.7669 2.32026 6.7669V6.93754ZM13.2507 8.87573C13.3097 8.90723 13.3847 8.90406 13.4366 8.85738L13.4388 8.85919C13.5959 8.71914 13.8816 8.47101 14.0425 8.33617C14.1067 8.2836 14.0955 8.19862 14.045 8.12679C14.0296 8.10545 14.014 8.08455 13.9985 8.06376C13.8699 7.89092 13.7477 7.72662 13.7477 7.3971V6.17046C13.7477 6.12789 13.748 6.08561 13.7482 6.04365C13.751 5.57306 13.7535 5.14385 13.4017 4.81511C13.1066 4.53208 12.6221 4.42806 12.2428 4.4233H12.1843C11.4433 4.43101 10.628 4.71563 10.4546 5.62864C10.4363 5.72699 10.5079 5.77866 10.5722 5.79339L11.3357 5.8761C11.4068 5.87247 11.4585 5.802 11.4723 5.73107C11.538 5.41223 11.8047 5.25836 12.1052 5.25836C12.2673 5.25836 12.4513 5.31796 12.5471 5.46299C12.6462 5.60819 12.6447 5.8009 12.6433 5.97456V5.97461V5.97467C12.6431 5.99475 12.643 6.01458 12.643 6.03405V6.13625C12.572 6.1442 12.4977 6.15174 12.4212 6.1595C12.0049 6.20172 11.5231 6.25059 11.1623 6.40908C10.669 6.6221 10.3225 7.05674 10.3225 7.696C10.3225 8.51406 10.8383 8.92332 11.5011 8.92332C12.061 8.92332 12.3672 8.79121 12.7993 8.3509C12.821 8.38231 12.8405 8.41126 12.8588 8.43853C12.9615 8.59115 13.0289 8.69136 13.2507 8.87573ZM12.643 6.97701L12.643 6.93754V6.7669C12.0733 6.7669 11.4719 6.88882 11.4719 7.55958C11.4719 7.90063 11.6486 8.13064 11.9505 8.13064C12.1714 8.13064 12.3704 7.99422 12.4957 7.77282C12.6436 7.51177 12.6433 7.26648 12.643 6.97701ZM5.26482 8.86734H4.47735C4.40234 8.86259 4.34251 8.80639 4.3364 8.73432L4.33708 4.69274C4.33708 4.61207 4.40506 4.54748 4.48913 4.54748L5.22244 4.54726C5.29903 4.55111 5.36067 4.60912 5.36543 4.683V5.21054H5.38039C5.57142 4.70022 5.9315 4.46205 6.41667 4.46205C6.9091 4.46205 7.21797 4.70022 7.43846 5.21054C7.62949 4.70022 8.06322 4.46205 8.52618 4.46205C8.85703 4.46205 9.21712 4.59824 9.43761 4.90439C9.65157 5.19576 9.64485 5.59904 9.63848 5.9812C9.6374 6.04547 9.63634 6.10915 9.63634 6.1716L9.63544 8.72209C9.63544 8.80253 9.56768 8.86734 9.48361 8.86734H8.69727C8.61796 8.86236 8.55587 8.79981 8.55587 8.72231L8.55564 6.57972C8.55564 6.5473 8.55618 6.5056 8.5568 6.45821V6.45813V6.45804V6.45795V6.45786V6.45777V6.45768V6.45758C8.55939 6.25654 8.5633 5.95369 8.53343 5.82307C8.47474 5.55068 8.29844 5.47409 8.0707 5.47409C7.87944 5.47409 7.68093 5.60167 7.60003 5.80562C7.52526 5.99454 7.52598 6.29922 7.52652 6.52571L7.52661 6.57972V8.72209C7.52661 8.80253 7.45862 8.86734 7.37478 8.86734H6.58822C6.50913 8.86236 6.44681 8.79981 6.44681 8.72231L6.44591 6.57972C6.44591 6.53394 6.44666 6.48597 6.44744 6.43673C6.45434 6.00115 6.46282 5.46593 5.96096 5.46593C5.41525 5.46593 5.41626 6.06636 5.41704 6.5286L5.4171 6.57972L5.41664 8.72209C5.41664 8.80253 5.34866 8.86734 5.26482 8.86734ZM14.7063 4.683V5.2604C14.7068 5.34697 14.7732 5.40588 14.8559 5.40588L16.2083 5.40611L14.6551 7.63459C14.5606 7.77736 14.5588 7.9378 14.5588 8.03139V8.61717C14.5588 8.70215 14.6528 8.79914 14.7428 8.7511C15.6239 8.28315 16.681 8.3287 17.4775 8.74611C17.5754 8.7971 17.6683 8.69898 17.6683 8.614V7.99785C17.6604 7.91468 17.633 7.8297 17.531 7.77237C17.0787 7.51834 16.5523 7.44379 16.0546 7.45534L17.3955 5.54094C17.5194 5.36895 17.5895 5.26063 17.5904 5.17746V4.68232C17.5904 4.59666 17.5238 4.53661 17.441 4.53661L14.8527 4.53684C14.7729 4.53661 14.7068 4.59507 14.7063 4.683ZM16.3991 9.71668C16.2101 9.47491 15.1515 9.60175 14.6742 9.65895L14.6728 9.65912C14.5284 9.67657 14.506 9.55035 14.6361 9.45902C15.4822 8.86463 16.8689 9.03617 17.03 9.23536C17.1922 9.43591 16.9871 10.8262 16.1945 11.4894C16.0723 11.5914 15.9563 11.537 16.0105 11.4024C16.189 10.9567 16.5883 9.95915 16.3991 9.71668ZM15.7838 10.4192C14.3056 11.5101 12.1626 12.0902 10.3171 12.0902C7.73078 12.0902 5.40168 11.1341 3.63911 9.54264C3.50088 9.41755 3.62415 9.24692 3.79049 9.34368C5.69197 10.4502 8.04372 11.1167 10.4723 11.1167C12.1107 11.1167 13.9118 10.7765 15.569 10.0736C15.8189 9.96776 16.0285 10.2383 15.7838 10.4192ZM19.2083 6.57111C19.2083 6.07778 19.245 5.28714 19.8256 5.28714C20.0756 5.28714 20.2521 5.3975 20.3402 5.67827C20.4431 6.00141 20.4581 6.40976 20.4581 6.7499C20.4581 7.26861 20.4286 8.11908 19.8186 8.11908C19.2081 8.11908 19.2082 7.08821 19.2083 6.58809V6.57111ZM21.6192 6.74152C21.6192 5.46593 20.9872 4.46205 19.8186 4.46205C18.679 4.46205 18.047 5.4401 18.047 6.69892C18.047 7.9489 18.6717 8.95255 19.8186 8.95255C20.921 8.95255 21.6192 7.97428 21.6192 6.74152ZM23.135 8.86734H22.3503C22.2716 8.86236 22.2091 8.79981 22.2091 8.72231L22.2077 4.67937C22.2145 4.60527 22.2798 4.54748 22.3591 4.54748L23.0895 4.54726C23.1583 4.55088 23.215 4.59756 23.2295 4.66033V5.27853H23.2442C23.4649 4.7256 23.7734 4.46205 24.3172 4.46205C24.6701 4.46205 25.0156 4.58963 25.2361 4.93839C25.4419 5.26153 25.4419 5.80562 25.4419 6.19698V8.74022C25.4333 8.81183 25.3689 8.86734 25.291 8.86734H24.5017C24.4287 8.86281 24.37 8.80911 24.3614 8.74022V6.54595C24.3614 6.51166 24.3617 6.47615 24.362 6.4398L24.3621 6.43922C24.3659 6.00677 24.3707 5.45709 23.869 5.45709C23.678 5.45709 23.5014 5.58468 23.4133 5.78024C23.3029 6.02702 23.2882 6.27357 23.2882 6.54595V8.72209C23.2868 8.80253 23.2189 8.86734 23.135 8.86734ZM36.2061 10.0203V10.3172C36.2061 10.3695 36.2288 10.4489 36.2879 10.4785C36.5222 10.5767 36.9213 10.6066 37.2376 10.5239C37.8195 10.3817 38.1029 9.61608 38.3085 9.06096C38.3258 9.01417 38.3425 8.96888 38.3589 8.92559L39.9839 4.74078C40.0111 4.67167 40.0188 4.54409 39.8822 4.54409H39.3422C39.2338 4.54409 39.1874 4.61388 39.1643 4.68141L38.0305 7.97768L36.8429 4.68141C36.8184 4.61343 36.774 4.54409 36.6648 4.54409H36.0921C35.9546 4.54409 35.9627 4.67189 35.9904 4.74078L37.6285 8.79891C37.5746 8.95504 37.4892 9.19298 37.3602 9.48803C37.2687 9.69764 37.1139 9.85061 36.8982 9.89547C36.733 9.92947 36.5002 9.90613 36.3357 9.88278C36.2476 9.87757 36.2061 9.93581 36.2061 10.0203ZM30.6281 6.60623C30.6281 5.7995 30.384 5.09497 29.488 5.09497C29.1449 5.09497 28.7332 5.2289 28.4105 5.47681V7.78347C28.7205 8.01257 29.1354 8.17709 29.4508 8.17709C29.8053 8.17709 30.0407 8.12044 30.2515 7.91264C30.5331 7.63504 30.6331 7.15009 30.6281 6.60623ZM27.7322 10.462H28.2731C28.3486 10.462 28.4105 10.4001 28.4105 10.3247V8.37855C28.7536 8.68447 29.1998 8.86054 29.677 8.86054C30.8103 8.86054 31.4804 7.87932 31.4804 6.65812C31.4804 5.51669 31.0423 4.41899 29.7101 4.41899C29.2344 4.41899 28.7352 4.63971 28.3475 4.98393L28.304 4.68866C28.2929 4.61433 28.2333 4.55133 28.1462 4.55133H27.7322C27.6565 4.55133 27.5947 4.6132 27.5947 4.68866V10.3247C27.5947 10.4001 27.6565 10.462 27.7322 10.462Z" fill="white"/>
</svg>
