<svg width="57" height="22" viewBox="0 0 57 22" fill="none" xmlns="http://www.w3.org/2000/svg">
<g clip-path="url(#clip0_204_2239)">
<path fill-rule="evenodd" clip-rule="evenodd" d="M50.2858 11.8016C50.2858 11.9072 50.1992 11.9938 50.0929 11.9938H49.5276C49.4055 11.9938 49.322 11.9056 49.3065 11.8016L49.2497 11.4167C48.9899 11.6366 48.671 11.8298 48.3252 11.9643C47.6602 12.2226 46.8938 12.2654 46.244 11.8663C45.7742 11.5779 45.5248 11.0141 45.5248 10.4326C45.5248 9.98274 45.6634 9.53669 45.9709 9.21277C46.3811 8.7702 46.9756 8.55288 47.6936 8.55288C48.1272 8.55288 48.7478 8.60396 49.1992 8.75148V7.97707C49.1992 7.18964 48.8677 6.84891 47.9937 6.84891C47.3255 6.84891 46.8144 6.9498 46.1032 7.17092C45.9893 7.17473 45.9226 7.08812 45.9226 6.98248V6.54086C45.9226 6.4349 46.0131 6.33242 46.1111 6.30133C46.619 6.07989 47.3385 5.94188 48.1034 5.9165C49.1006 5.9165 50.2858 6.14144 50.2858 7.67504V11.8016ZM49.1992 10.6709V9.50242C48.8198 9.39868 48.192 9.35553 47.9489 9.35553C47.5651 9.35553 47.1447 9.44627 46.9252 9.68262C46.7611 9.85584 46.6869 10.1046 46.6869 10.345C46.6869 10.656 46.7945 10.9678 47.0457 11.122C47.3376 11.3203 47.7903 11.2962 48.2158 11.1753C48.6247 11.0592 49.0086 10.8539 49.1992 10.6709ZM5.02676 12.1337C4.9538 12.1991 4.84847 12.2035 4.7663 12.1594C4.45505 11.901 4.3608 11.7607 4.21698 11.5466C4.19149 11.5086 4.16443 11.4683 4.13433 11.4247C3.52901 12.0411 3.10072 12.226 2.31678 12.226C1.38882 12.226 0.666748 11.6531 0.666748 10.5078C0.666748 9.61283 1.15119 9.00434 1.84249 8.70612C2.34758 8.48425 3.02196 8.41583 3.60452 8.35672H3.60452L3.60454 8.35672L3.60457 8.35671L3.60462 8.35671C3.71177 8.34584 3.8158 8.33528 3.91511 8.32414V8.18106C3.91511 8.15344 3.91534 8.12531 3.91557 8.09681L3.91557 8.09676C3.91757 7.8539 3.91978 7.58459 3.78123 7.38158C3.64703 7.17854 3.3891 7.0951 3.16258 7.0951C2.7419 7.0951 2.36786 7.31052 2.27649 7.75689C2.25746 7.85619 2.18481 7.95486 2.08487 7.95994L1.01636 7.84414C0.925944 7.82352 0.825692 7.75118 0.851707 7.6135C1.09377 6.33528 2.23557 5.93681 3.2733 5.92602H3.35516C3.88624 5.93269 4.56453 6.07831 4.97759 6.47455C5.47006 6.93497 5.46656 7.53618 5.46272 8.19533V8.19543V8.19554V8.19565C5.46238 8.25401 5.46204 8.31283 5.46204 8.37205V10.0893C5.46204 10.5507 5.63318 10.7807 5.81322 11.0227C5.83487 11.0518 5.85665 11.081 5.87827 11.1109C5.94839 11.2115 5.96457 11.3304 5.87478 11.404C5.64953 11.5928 5.24916 11.9402 5.0293 12.1363L5.02676 12.1337ZM3.91511 9.44595L3.91515 9.50271C3.91559 9.90732 3.91596 10.2503 3.70889 10.6153C3.53377 10.9253 3.25522 11.1163 2.94558 11.1163C2.523 11.1163 2.27554 10.7943 2.27554 10.3168C2.27554 9.37774 3.11785 9.20706 3.91511 9.20706V9.44595ZM19.2178 12.1594C19.3003 12.2035 19.4053 12.1991 19.4779 12.1337L19.4811 12.1363C19.701 11.9402 20.101 11.5928 20.3263 11.404C20.4161 11.3304 20.4005 11.2115 20.3298 11.1109C20.3081 11.081 20.2864 11.0518 20.2647 11.0227C20.0847 10.7807 19.9135 10.5507 19.9135 10.0893V8.37205C19.9135 8.31263 19.9139 8.25362 19.9142 8.19506L19.9142 8.1945C19.9181 7.53568 19.9216 6.93478 19.4291 6.47455C19.016 6.07831 18.3377 5.93269 17.8066 5.92602H17.7248C16.6874 5.93681 15.5459 6.33528 15.3032 7.6135C15.2775 7.75118 15.3778 7.82352 15.4679 7.84414L16.5367 7.95994C16.6363 7.95486 16.7086 7.85619 16.728 7.75689C16.82 7.31052 17.1934 7.0951 17.6141 7.0951C17.8409 7.0951 18.0985 7.17854 18.2327 7.38158C18.3715 7.58487 18.3693 7.85466 18.3674 8.09778C18.3671 8.12595 18.3669 8.15376 18.3669 8.18106V8.32414C18.2676 8.33527 18.1636 8.34582 18.0565 8.35669L18.0564 8.3567C17.4736 8.41581 16.7991 8.48422 16.294 8.70612C15.6033 9.00434 15.1182 9.61283 15.1182 10.5078C15.1182 11.6531 15.8403 12.226 16.7683 12.226C17.5522 12.226 17.9808 12.0411 18.5858 11.4247C18.6162 11.4686 18.6434 11.5092 18.6691 11.5473C18.8128 11.761 18.9072 11.9013 19.2178 12.1594ZM18.367 9.50121L18.3669 9.44595V9.20706C17.5693 9.20706 16.7274 9.37774 16.7274 10.3168C16.7274 10.7943 16.9748 11.1163 17.3974 11.1163C17.7067 11.1163 17.9853 10.9253 18.1607 10.6153C18.3677 10.2499 18.3674 9.90647 18.367 9.50121ZM8.03749 12.1477H6.93503C6.83002 12.141 6.74627 12.0623 6.7377 11.9615L6.73865 6.30323C6.73865 6.19029 6.83383 6.09988 6.95153 6.09988L7.97816 6.09956C8.08539 6.10495 8.17169 6.18617 8.17835 6.28959V7.02816H8.19929C8.46673 6.3137 8.97085 5.98027 9.65009 5.98027C10.3395 5.98027 10.7719 6.3137 11.0806 7.02816C11.348 6.3137 11.9553 5.98027 12.6034 5.98027C13.0666 5.98027 13.5707 6.17094 13.8794 6.59955C14.1789 7.00746 14.1695 7.57206 14.1606 8.10707C14.1591 8.19706 14.1576 8.28621 14.1576 8.37363L14.1564 11.9443C14.1564 12.0569 14.0615 12.1477 13.9438 12.1477H12.8429C12.7319 12.1407 12.645 12.0531 12.645 11.9446L12.6446 8.94501C12.6446 8.89955 12.6454 8.84106 12.6463 8.77459V8.77451V8.77443V8.77435V8.77426V8.77418V8.7741V8.77402C12.6499 8.49256 12.6554 8.06856 12.6136 7.8857C12.5314 7.50436 12.2846 7.39713 11.9657 7.39713C11.698 7.39713 11.42 7.57574 11.3068 7.86127C11.2021 8.12575 11.2031 8.5523 11.2039 8.8694L11.204 8.94501V11.9443C11.204 12.0569 11.1088 12.1477 10.9914 12.1477H9.89025C9.77953 12.1407 9.69228 12.0531 9.69228 11.9446L9.69102 8.94501C9.69102 8.88092 9.69208 8.81376 9.69317 8.74482C9.70283 8.135 9.7147 7.3857 9.01209 7.3857C8.2481 7.3857 8.24951 8.2263 8.2506 8.87344L8.25068 8.94501L8.25005 11.9443C8.25005 12.0569 8.15487 12.1477 8.03749 12.1477ZM21.2556 6.2896V7.09796C21.2562 7.21915 21.3492 7.30164 21.465 7.30164L23.3583 7.30195L21.1839 10.4218C21.0516 10.6217 21.0491 10.8463 21.0491 10.9773V11.7974C21.0491 11.9164 21.1807 12.0522 21.3067 11.9849C22.5401 11.3298 24.0201 11.3936 25.1353 11.978C25.2723 12.0493 25.4024 11.912 25.4024 11.793V10.9304C25.3913 10.814 25.3529 10.695 25.2102 10.6147C24.5769 10.2591 23.8399 10.1547 23.1432 10.1709L25.0204 7.49072C25.194 7.24992 25.292 7.09828 25.2933 6.98185V6.28865C25.2933 6.16872 25.2 6.08465 25.0842 6.08465L21.4605 6.08497C21.3489 6.08465 21.2562 6.1665 21.2556 6.2896ZM23.6255 13.3367C23.3608 12.9983 21.8789 13.1759 21.2107 13.2559L21.2086 13.2562C21.0065 13.2806 20.9751 13.1039 21.1572 12.976C22.3419 12.1439 24.2831 12.384 24.5087 12.6629C24.7359 12.9437 24.4487 14.89 23.339 15.8186C23.168 15.9614 23.0056 15.8852 23.0814 15.6968C23.3314 15.0728 23.8904 13.6762 23.6255 13.3367ZM22.7641 14.3202C20.6946 15.8475 17.6944 16.6597 15.1106 16.6597C11.4898 16.6597 8.2291 15.3212 5.7615 13.0931C5.56798 12.918 5.74056 12.6791 5.97343 12.8145C8.6355 14.3637 11.928 15.2967 15.328 15.2967C17.6217 15.2967 20.1432 14.8205 22.4633 13.8364C22.8133 13.6883 23.1067 14.0671 22.7641 14.3202ZM27.5584 8.93295C27.5584 8.24229 27.6098 7.13539 28.4226 7.13539C28.7725 7.13539 29.0197 7.28989 29.1431 7.68297C29.2871 8.13537 29.3081 8.70707 29.3081 9.18326C29.3081 9.90946 29.2668 11.1001 28.4128 11.1001C27.5581 11.1001 27.5583 9.65691 27.5584 8.95675V8.95673L27.5584 8.93295ZM30.9337 9.17152C30.9337 7.3857 30.0488 5.98027 28.4128 5.98027C26.8173 5.98027 25.9325 7.34954 25.9325 9.11188C25.9325 10.8619 26.8071 12.267 28.4128 12.267C29.9562 12.267 30.9337 10.8974 30.9337 9.17152ZM33.0558 12.1477H31.9571C31.847 12.1407 31.7595 12.0531 31.7595 11.9446L31.7576 6.28452C31.7671 6.18077 31.8584 6.09988 31.9695 6.09988L32.992 6.09956C33.0884 6.10463 33.1677 6.16999 33.188 6.25787V7.12334H33.2087C33.5177 6.34924 33.9495 5.98027 34.7109 5.98027C35.2048 5.98027 35.6886 6.15888 35.9973 6.64714C36.2854 7.09954 36.2854 7.86127 36.2854 8.40916V11.9697C36.2733 12.07 36.1832 12.1477 36.0741 12.1477H34.9691C34.867 12.1413 34.7848 12.0661 34.7727 11.9697V8.89773C34.7727 8.84947 34.7732 8.79947 34.7736 8.7483C34.7789 8.14287 34.7857 7.37333 34.0833 7.37333C33.8159 7.37333 33.5688 7.55194 33.4453 7.82573C33.2908 8.17122 33.2702 8.5164 33.2702 8.89773V11.9443C33.2683 12.0569 33.1731 12.1477 33.0558 12.1477ZM51.3553 13.7619V14.1775C51.3553 14.2508 51.387 14.3618 51.4698 14.4034C51.7979 14.5407 52.3565 14.5826 52.7994 14.4668C53.614 14.2678 54.0109 13.1959 54.2986 12.4187C54.3228 12.3532 54.3463 12.2898 54.3692 12.2292L56.6442 6.3705C56.6823 6.27373 56.6931 6.09512 56.5018 6.09512H55.7458C55.5941 6.09512 55.5291 6.19283 55.4967 6.28738L53.9095 10.9021L52.2468 6.28738C52.2125 6.1922 52.1503 6.09512 51.9974 6.09512H51.1957C51.0031 6.09512 51.0146 6.27405 51.0533 6.3705L53.3467 12.0519C53.2712 12.2705 53.1516 12.6036 52.9711 13.0166C52.8429 13.3101 52.6262 13.5242 52.3242 13.5871C52.0929 13.6347 51.7671 13.602 51.5368 13.5693C51.4134 13.562 51.3553 13.6435 51.3553 13.7619ZM43.5461 8.98212C43.5461 7.8527 43.2044 6.86636 41.95 6.86636C41.4696 6.86636 40.8932 7.05385 40.4414 7.40093V10.6303C40.8754 10.951 41.4563 11.1813 41.8979 11.1813C42.3941 11.1813 42.7237 11.102 43.0188 10.8111C43.4131 10.4225 43.553 9.74353 43.5461 8.98212ZM39.4919 14.3802H40.2492C40.3548 14.3802 40.4414 14.2936 40.4414 14.1879V11.4634C40.9217 11.8917 41.5464 12.1382 42.2145 12.1382C43.8011 12.1382 44.7393 10.7645 44.7393 9.05477C44.7393 7.45677 44.126 5.91999 42.2609 5.91999C41.5949 5.91999 40.896 6.22899 40.3532 6.7109L40.2923 6.29752C40.2768 6.19346 40.1933 6.10526 40.0715 6.10526H39.4919C39.3859 6.10526 39.2993 6.19187 39.2993 6.29752V14.1879C39.2993 14.2936 39.3859 14.3802 39.4919 14.3802Z" fill="white"/>
</g>
<defs>
<clipPath id="clip0_204_2239">
<rect width="56" height="21" fill="white" transform="translate(0.666748 0.666504)"/>
</clipPath>
</defs>
</svg>
