<svg width="57" height="22" viewBox="0 0 57 22" fill="none" xmlns="http://www.w3.org/2000/svg">
<path d="M28.0023 10.9855V15.6259H26.5302V4.1663H30.4344C30.9005 4.15656 31.3638 4.23922 31.7977 4.40949C32.2317 4.57976 32.6276 4.83429 32.9626 5.15837C33.301 5.46278 33.5704 5.8361 33.7525 6.25324C33.9347 6.67039 34.0254 7.1217 34.0187 7.57683C34.0284 8.0344 33.939 8.48865 33.7567 8.90846C33.5745 9.32826 33.3036 9.70369 32.9626 10.009C32.2799 10.66 31.4372 10.9852 30.4344 10.9846H28.0023V10.9855ZM28.0023 5.57714V9.57743H30.471C30.7417 9.58545 31.011 9.5369 31.2618 9.43488C31.5126 9.33285 31.7394 9.1796 31.9276 8.98493C32.1148 8.80292 32.2636 8.58521 32.3652 8.34469C32.4668 8.10417 32.5192 7.84571 32.5192 7.5846C32.5192 7.32349 32.4668 7.06504 32.3652 6.82451C32.2636 6.58399 32.1148 6.36629 31.9276 6.18427C31.7417 5.9855 31.5158 5.82849 31.2647 5.72367C31.0135 5.61884 30.743 5.56858 30.471 5.57623H28.0023V5.57714Z" fill="white"/>
<path d="M37.4109 7.5293C38.4989 7.5293 39.3578 7.82006 39.9875 8.40159C40.6172 8.98312 40.9317 9.78043 40.9311 10.7935V15.6259H39.523V14.5378H39.459C38.8494 15.4339 38.0387 15.8819 37.0268 15.8819C36.1631 15.8819 35.4404 15.6259 34.8589 15.1138C34.5798 14.8788 34.3567 14.5845 34.2058 14.2523C34.0549 13.9202 33.98 13.5585 33.9866 13.1937C33.9866 12.3824 34.2932 11.7371 34.9064 11.258C35.5197 10.7789 36.3383 10.5387 37.3624 10.5375C38.2365 10.5375 38.9564 10.6975 39.5221 11.0176V10.6811C39.5238 10.4324 39.4701 10.1864 39.3649 9.96108C39.2597 9.73571 39.1057 9.53658 38.9141 9.37812C38.5248 9.02689 38.0174 8.83526 37.4931 8.84139C36.6708 8.84139 36.0201 9.18824 35.541 9.88193L34.2445 9.06541C34.9576 8.04133 36.0131 7.5293 37.4109 7.5293ZM35.5063 13.2257C35.5053 13.4131 35.5491 13.5979 35.634 13.7649C35.7189 13.9319 35.8425 14.0762 35.9945 14.1858C36.3201 14.4419 36.7242 14.5776 37.1384 14.5698C37.7596 14.5688 38.355 14.3215 38.7943 13.8822C39.2819 13.4232 39.5258 12.8847 39.5258 12.2666C39.0667 11.9008 38.4267 11.7179 37.6056 11.7179C37.0076 11.7179 36.509 11.8621 36.1097 12.1504C35.7065 12.443 35.5063 12.7987 35.5063 13.2257Z" fill="white"/>
<path d="M49.014 7.78516L44.0984 19.082H42.5788L44.4029 15.1292L41.1707 7.78516H42.7708L45.1069 13.4176H45.1389L47.4111 7.78516H49.014Z" fill="white"/>
<path d="M22.0534 9.9851C22.0539 9.53647 22.016 9.08863 21.94 8.64648H15.7316V11.182H19.2875C19.2147 11.5869 19.0607 11.973 18.8347 12.3168C18.6088 12.6606 18.3155 12.9551 17.9726 13.1826V14.8284H20.0949C21.3375 13.6827 22.0534 11.9884 22.0534 9.9851Z" fill="white"/>
<path d="M15.7315 16.4186C17.5081 16.4186 19.004 15.8352 20.0948 14.8294L17.9726 13.1836C17.3819 13.5841 16.6212 13.8127 15.7315 13.8127C14.0144 13.8127 12.5569 12.6551 12.0357 11.0952H9.84949V12.7913C10.3974 13.8817 11.2376 14.7983 12.2763 15.4388C13.315 16.0793 14.5112 16.4185 15.7315 16.4186Z" fill="white"/>
<path d="M12.0358 11.095C11.7603 10.2776 11.7603 9.39242 12.0358 8.57503V6.87891H9.84957C9.38862 7.79614 9.14856 8.80846 9.14856 9.83501C9.14856 10.8616 9.38862 11.8739 9.84957 12.7911L12.0358 11.095Z" fill="white"/>
<path d="M15.7315 5.8578C16.6704 5.84246 17.5775 6.19718 18.257 6.8453L20.1359 4.96631C18.9445 3.84721 17.366 3.23281 15.7315 3.2519C14.5112 3.25195 13.315 3.59117 12.2763 4.23168C11.2376 4.87219 10.3974 5.78879 9.84949 6.87913L12.0357 8.57525C12.5569 7.01537 14.0144 5.8578 15.7315 5.8578Z" fill="white"/>
</svg>
