<svg width="40" height="16" viewBox="0 0 40 16" fill="none" xmlns="http://www.w3.org/2000/svg">
<path d="M19.3667 8.03696V11.3515H18.3152V3.16608H21.104C21.4368 3.15912 21.7678 3.21816 22.0778 3.33979C22.3877 3.46141 22.6705 3.64321 22.9098 3.8747C23.1515 4.09213 23.3439 4.35879 23.474 4.65675C23.6041 4.95472 23.669 5.27708 23.6641 5.60217C23.6711 5.92901 23.6072 6.25347 23.477 6.55333C23.3468 6.85319 23.1533 7.12136 22.9098 7.33944C22.4222 7.80445 21.8202 8.03674 21.104 8.03631H19.3667V8.03696ZM19.3667 4.17382V7.03117H21.1301C21.3234 7.0369 21.5158 7.00222 21.6949 6.92935C21.8741 6.85647 22.0361 6.74701 22.1705 6.60796C22.3042 6.47795 22.4105 6.32245 22.4831 6.15064C22.5557 5.97884 22.5931 5.79423 22.5931 5.60772C22.5931 5.42122 22.5557 5.23661 22.4831 5.0648C22.4105 4.893 22.3042 4.7375 22.1705 4.60749C22.0377 4.46551 21.8763 4.35336 21.697 4.27848C21.5176 4.20361 21.3244 4.16771 21.1301 4.17317H19.3667V4.17382Z" fill="white"/>
<path d="M26.087 5.56836C26.8642 5.56836 27.4777 5.77605 27.9275 6.19143C28.3773 6.6068 28.602 7.17631 28.6015 7.89996V11.3516H27.5957V10.5744H27.55C27.1146 11.2145 26.5355 11.5345 25.8127 11.5345C25.1958 11.5345 24.6796 11.3516 24.2642 10.9859C24.0649 10.818 23.9055 10.6078 23.7977 10.3705C23.6899 10.1333 23.6364 9.87493 23.6412 9.61437C23.6412 9.03484 23.8602 8.57397 24.2982 8.23174C24.7362 7.88951 25.321 7.71796 26.0524 7.71709C26.6768 7.71709 27.191 7.83138 27.5951 8.05997V7.81963C27.5963 7.64199 27.5579 7.46632 27.4828 7.30534C27.4077 7.14437 27.2977 7.00213 27.1608 6.88895C26.8827 6.63807 26.5203 6.50119 26.1458 6.50557C25.5585 6.50557 25.0937 6.75332 24.7514 7.24881L23.8253 6.66558C24.3348 5.9341 25.0887 5.56836 26.087 5.56836ZM24.7266 9.63723C24.7259 9.77105 24.7572 9.9031 24.8179 10.0224C24.8785 10.1417 24.9668 10.2447 25.0754 10.323C25.3079 10.5059 25.5966 10.6028 25.8924 10.5973C26.3361 10.5966 26.7615 10.4199 27.0752 10.1062C27.4235 9.7783 27.5977 9.39362 27.5977 8.95212C27.2698 8.69087 26.8127 8.56025 26.2262 8.56025C25.799 8.56025 25.4429 8.66322 25.1577 8.86917C24.8697 9.07817 24.7266 9.33223 24.7266 9.63723Z" fill="white"/>
<path d="M34.3751 5.75098L30.864 13.8201H29.7785L31.0814 10.9967L28.7727 5.75098H29.9156L31.5843 9.77413H31.6072L33.2302 5.75098H34.3751Z" fill="white"/>
<path d="M15.1174 7.32236C15.1178 7.00192 15.0907 6.68203 15.0364 6.36621H10.6018V8.17728H13.1417C13.0898 8.46654 12.9798 8.74227 12.8184 8.98786C12.6569 9.23346 12.4475 9.44382 12.2026 9.60628V10.7819H13.7184C14.606 9.96353 15.1174 8.75332 15.1174 7.32236Z" fill="white"/>
<path d="M10.6018 11.9176C11.8708 11.9176 12.9393 11.5009 13.7185 10.7825L12.2026 9.60693C11.7807 9.893 11.2373 10.0563 10.6018 10.0563C9.3753 10.0563 8.33424 9.22944 7.96197 8.11523H6.40039V9.32675C6.79178 10.1056 7.39193 10.7603 8.13383 11.2178C8.87574 11.6753 9.73021 11.9176 10.6018 11.9176Z" fill="white"/>
<path d="M7.96196 8.11549C7.76515 7.53164 7.76515 6.89937 7.96196 6.31552V5.104H6.40038C6.07113 5.75917 5.89966 6.48226 5.89966 7.2155C5.89966 7.94875 6.07113 8.67184 6.40038 9.327L7.96196 8.11549Z" fill="white"/>
<path d="M10.6018 4.37436C11.2724 4.36341 11.9204 4.61678 12.4057 5.07972L13.7479 3.73758C12.8968 2.93823 11.7693 2.49937 10.6018 2.513C9.73021 2.51304 8.87574 2.75534 8.13383 3.21285C7.39192 3.67036 6.79178 4.32507 6.40039 5.10388L7.96197 6.3154C8.33424 5.2012 9.3753 4.37436 10.6018 4.37436Z" fill="white"/>
</svg>
