<svg width="57" height="22" viewBox="0 0 57 22" fill="none" xmlns="http://www.w3.org/2000/svg">
<path d="M15.8958 5.32207C15.4445 5.85406 14.7226 6.27366 14.0006 6.21372C13.9104 5.49441 14.2638 4.73013 14.6775 4.25808C15.1287 3.7111 15.9183 3.32148 16.5576 3.2915C16.6328 4.04079 16.3395 4.77509 15.8958 5.32207ZM16.55 6.35609C15.5047 6.29614 14.6098 6.94802 14.1134 6.94802C13.6096 6.94802 12.85 6.38606 12.0228 6.40104C10.9473 6.41603 9.94713 7.02295 9.39814 7.98953C8.27008 9.92269 9.10485 12.785 10.1953 14.3585C10.7293 15.1377 11.3685 15.9919 12.2108 15.9619C13.0079 15.932 13.3238 15.4449 14.2864 15.4449C15.2565 15.4449 15.5348 15.9619 16.3771 15.947C17.2494 15.932 17.7984 15.1677 18.3324 14.3884C18.9415 13.5043 19.1897 12.6426 19.2047 12.5976C19.1897 12.5827 17.5202 11.9458 17.5051 10.0276C17.4901 8.42412 18.8212 7.65984 18.8814 7.61489C18.1293 6.50594 16.9561 6.38606 16.55 6.35609ZM22.5889 4.18315V15.8645H24.4088V11.8708H26.9282C29.2294 11.8708 30.8463 10.2973 30.8463 8.0195C30.8463 5.74167 29.2595 4.18315 26.9883 4.18315H22.5889ZM24.4088 5.7117H26.507C28.0863 5.7117 28.9888 6.5509 28.9888 8.02699C28.9888 9.50309 28.0863 10.3498 26.4995 10.3498H24.4088V5.7117ZM34.1703 15.9544C35.3134 15.9544 36.3738 15.3775 36.8551 14.4634H36.8927V15.8645H38.5773V10.0501C38.5773 8.36417 37.2236 7.27771 35.1404 7.27771C33.2077 7.27771 31.7788 8.37916 31.7262 9.89272H33.3656C33.501 9.1734 34.1703 8.70135 35.0878 8.70135C36.2008 8.70135 36.825 9.21836 36.825 10.17V10.8143L34.5539 10.9492C32.4406 11.0766 31.2975 11.9383 31.2975 13.4368C31.2975 14.9504 32.4782 15.9544 34.1703 15.9544ZM34.6591 14.5683C33.689 14.5683 33.0723 14.1037 33.0723 13.3919C33.0723 12.6576 33.6664 12.2305 34.802 12.1631L36.825 12.0357V12.695C36.825 13.789 35.8925 14.5683 34.6591 14.5683ZM40.8259 19.0415C42.6007 19.0415 43.4354 18.3671 44.1649 16.3216L47.3611 7.3901H45.5111L43.3678 14.291H43.3302L41.1868 7.3901H39.2842L42.3675 15.8945L42.2021 16.4115C41.9238 17.2882 41.4726 17.6254 40.6679 17.6254C40.525 17.6254 40.2468 17.6104 40.134 17.5954V18.9965C40.2393 19.0265 40.6905 19.0415 40.8259 19.0415Z" fill="white"/>
</svg>
