<svg width="40" height="16" viewBox="0 0 40 16" fill="none" xmlns="http://www.w3.org/2000/svg">
<path d="M11.2748 3.99191C10.9525 4.3719 10.4368 4.67162 9.9211 4.6288C9.85664 4.11501 10.1091 3.5691 10.4046 3.23192C10.7269 2.84122 11.2909 2.56291 11.7475 2.5415C11.8012 3.07671 11.5917 3.60121 11.2748 3.99191ZM11.7421 4.73049C10.9954 4.68767 10.3562 5.1533 10.0017 5.1533C9.64177 5.1533 9.09923 4.7519 8.50834 4.7626C7.74018 4.77331 7.02575 5.20682 6.63361 5.89724C5.82786 7.27806 6.42412 9.32255 7.20301 10.4465C7.5844 11.0031 8.041 11.6132 8.64263 11.5918C9.21203 11.5704 9.43764 11.2225 10.1252 11.2225C10.8182 11.2225 11.0169 11.5918 11.6186 11.5811C12.2417 11.5704 12.6338 11.0245 13.0152 10.4679C13.4503 9.83634 13.6276 9.22086 13.6383 9.18874C13.6276 9.17804 12.4351 8.72312 12.4243 7.35299C12.4136 6.20766 13.3644 5.66175 13.4073 5.62963C12.8702 4.83753 12.0322 4.7519 11.7421 4.73049ZM16.0556 3.1784V11.5222H17.3555V8.6696H19.1551C20.7988 8.6696 21.9537 7.54567 21.9537 5.91864C21.9537 4.29162 20.8203 3.1784 19.198 3.1784H16.0556ZM17.3555 4.27021H18.8543C19.9823 4.27021 20.6269 4.86964 20.6269 5.924C20.6269 6.97835 19.9823 7.58313 18.8489 7.58313H17.3555V4.27021ZM24.328 11.5865C25.1445 11.5865 25.9019 11.1744 26.2457 10.5214H26.2726V11.5222H27.4758V7.36905C27.4758 6.16484 26.5089 5.38879 25.021 5.38879C23.6404 5.38879 22.6198 6.17554 22.5822 7.25666H23.7532C23.8499 6.74286 24.328 6.40568 24.9834 6.40568C25.7784 6.40568 26.2242 6.77497 26.2242 7.45468V7.91496L24.602 8.01129C23.0925 8.10228 22.276 8.71776 22.276 9.78817C22.276 10.8693 23.1194 11.5865 24.328 11.5865ZM24.6772 10.5963C23.9842 10.5963 23.5438 10.2645 23.5438 9.75606C23.5438 9.23156 23.9681 8.92649 24.7792 8.87833L26.2242 8.78734V9.25832C26.2242 10.0397 25.5581 10.5963 24.6772 10.5963ZM29.082 13.7915C30.3497 13.7915 30.946 13.3098 31.467 11.8487L33.75 5.46907H32.4286L30.8976 10.3983H30.8708L29.3398 5.46907H27.9808L30.1832 11.5436L30.065 11.9129C29.8663 12.5391 29.544 12.78 28.9692 12.78C28.8671 12.78 28.6684 12.7693 28.5878 12.7586V13.7594C28.663 13.7808 28.9853 13.7915 29.082 13.7915Z" fill="white"/>
</svg>
