<svg width="57" height="22" viewBox="0 0 57 22" fill="none" xmlns="http://www.w3.org/2000/svg">
<path fill-rule="evenodd" clip-rule="evenodd" d="M20.8685 1.5415C18.709 1.5415 16.9584 3.02281 16.9584 4.8501V17.4829C16.9584 19.3102 18.709 20.7915 20.8685 20.7915H35.7982C37.9577 20.7915 39.7084 19.3102 39.7084 17.4829V4.8501C39.7084 3.02281 37.9577 1.5415 35.7982 1.5415H20.8685ZM23.2399 17.3166H20.4053L20.4068 4.67847H23.2399V17.3166ZM35.2596 14.3401C35.4549 14.2571 35.6645 14.214 35.8762 14.2132C36.088 14.214 36.2976 14.2571 36.4929 14.3401C36.6882 14.4232 36.8655 14.5444 37.0145 14.697C37.1636 14.8495 37.2815 15.0304 37.3615 15.2292C37.4416 15.4281 37.4821 15.641 37.481 15.8557C37.481 16.7625 36.7614 17.4983 35.8762 17.4983C35.6645 17.4975 35.4549 17.4543 35.2596 17.3713C35.0643 17.2883 34.887 17.167 34.738 17.0145C34.5889 16.8619 34.471 16.681 34.391 16.4822C34.3109 16.2834 34.2704 16.0705 34.2715 15.8557C34.2704 15.641 34.3109 15.4281 34.391 15.2292C34.471 15.0304 34.5889 14.8495 34.738 14.697C34.887 14.5444 35.0643 14.4232 35.2596 14.3401ZM30.3196 4.67847C30.3196 7.41401 29.2779 9.96027 27.4203 11.8516L31.3372 17.3166H27.8373L23.5816 11.3784L24.6806 10.5358C25.5751 9.85348 26.3 8.96846 26.7971 7.95144C27.2943 6.93441 27.55 5.81357 27.5437 4.67847H30.3166H30.3196Z" fill="white"/>
</svg>
