<svg width="40" height="16" viewBox="0 0 40 16" fill="none" xmlns="http://www.w3.org/2000/svg">
<g clip-path="url(#clip0_187_3651)">
<path fill-rule="evenodd" clip-rule="evenodd" d="M14.668 1.2915C13.1255 1.2915 11.875 2.34958 11.875 3.65479V12.6782C11.875 13.9834 13.1255 15.0415 14.668 15.0415H25.332C26.8745 15.0415 28.125 13.9834 28.125 12.6782V3.65479C28.125 2.34958 26.8745 1.2915 25.332 1.2915H14.668ZM16.3618 12.5594H14.3371L14.3382 3.5322H16.3618V12.5594ZM24.9473 10.4334C25.0868 10.3741 25.2365 10.3433 25.3878 10.3427C25.539 10.3433 25.6887 10.3741 25.8282 10.4334C25.9677 10.4927 26.0943 10.5793 26.2008 10.6883C26.3073 10.7972 26.3915 10.9264 26.4487 11.0685C26.5058 11.2105 26.5348 11.3626 26.534 11.5159C26.534 12.1636 26.02 12.6892 25.3878 12.6892C25.2365 12.6886 25.0868 12.6578 24.9473 12.5985C24.8078 12.5392 24.6812 12.4526 24.5747 12.3436C24.4683 12.2346 24.384 12.1055 24.3269 11.9634C24.2697 11.8214 24.2407 11.6693 24.2415 11.5159C24.2407 11.3626 24.2697 11.2105 24.3269 11.0685C24.384 10.9264 24.4683 10.7972 24.5747 10.6883C24.6812 10.5793 24.8078 10.4927 24.9473 10.4334ZM21.4187 3.5322C21.4187 5.48615 20.6747 7.30491 19.3478 8.65588L22.1456 12.5594H19.6457L16.6059 8.31787L17.3908 7.71598C18.0298 7.22863 18.5476 6.59647 18.9027 5.87003C19.2578 5.14358 19.4404 4.34298 19.436 3.5322H21.4166H21.4187Z" fill="white"/>
</g>
<defs>
<clipPath id="clip0_187_3651">
<rect width="40" height="15" fill="white" transform="translate(0 0.666504)"/>
</clipPath>
</defs>
</svg>
