<svg width="57" height="22" viewBox="0 0 57 22" fill="none" xmlns="http://www.w3.org/2000/svg">
<path d="M17.9986 13.4786C19.8188 13.4786 21.4851 13.4485 23.1494 13.4937C23.7771 13.5107 23.9367 13.315 23.9073 12.7162C23.813 10.773 22.8137 9.30109 21.1454 8.74478C19.5635 8.21727 17.818 8.71206 16.7617 10.0498C15.7675 11.3097 15.5836 12.7214 16.2545 14.1783C16.9187 15.6208 18.0608 16.484 19.6879 16.5351C21.2861 16.5855 22.8876 16.5475 24.4872 16.5599C24.675 16.5612 24.9355 16.4434 25.0376 16.6902C25.124 16.899 24.9518 17.0816 24.8321 17.2426C24.5343 17.6431 24.1193 17.8133 23.6233 17.8126C21.1199 17.8107 18.6165 17.8237 16.1137 17.8048C15.2191 17.7982 14.5914 17.2079 14.5796 16.3001C14.5469 13.8085 14.5489 11.3162 14.5783 8.82463C14.5895 7.91752 15.1955 7.32063 16.1059 7.31082C18.6086 7.28333 21.1127 7.28464 23.6154 7.30951C24.5225 7.31867 25.1364 7.91687 25.1547 8.81481C25.1901 10.561 25.158 12.3084 25.1737 14.0552C25.177 14.4257 25.0481 14.5461 24.6809 14.5428C23.0035 14.5278 21.326 14.5435 19.6486 14.5265C18.962 14.5199 18.464 14.1691 17.9986 13.4786Z" fill="white"/>
<path d="M32.8867 16.5529C33.6302 16.0188 34.0962 15.5149 34.3822 14.8755C34.5465 14.509 34.8436 14.5338 35.1565 14.5345C36.652 14.5384 38.1474 14.541 39.6429 14.5325C40.0121 14.5306 40.5232 14.6359 40.5324 14.0711C40.5422 13.4546 40.0049 13.5639 39.6089 13.5567C38.9387 13.5443 38.2679 13.5665 37.5977 13.5501C36.114 13.5141 34.9883 12.4343 34.9824 11.0585C34.9765 9.67169 36.0839 8.59179 37.5787 8.56103C38.6357 8.53943 39.694 8.58001 40.7497 8.54663C41.2804 8.52962 41.4748 8.68669 41.4552 9.23777C41.4002 10.7562 41.6319 10.48 40.1927 10.5042C39.3681 10.5179 38.5428 10.5068 37.7174 10.5075C37.347 10.5075 37.0034 10.6187 37.0041 11.035C37.0041 11.4506 37.349 11.5631 37.7181 11.5638C38.4655 11.5664 39.2136 11.5592 39.961 11.5664C41.4572 11.5815 42.5508 12.628 42.5567 14.0404C42.5626 15.4632 41.4761 16.5411 39.997 16.5483C37.7031 16.5608 35.4097 16.5529 32.8867 16.5529Z" fill="white"/>
<path d="M23.2443 5.06392C23.2502 5.96579 22.6952 6.33361 21.8287 6.02273C21.6016 5.94092 21.5924 5.78254 21.5858 5.6019C21.5754 5.31982 21.593 5.03446 21.5564 4.75566C21.4334 3.81648 20.7291 3.21763 19.8116 3.24904C18.8881 3.28111 18.2585 3.91857 18.2002 4.88328C18.1943 4.98603 18.2107 5.0914 18.193 5.19089C18.1433 5.471 18.3651 5.89969 17.9548 5.98739C17.5385 6.0764 17.0837 6.02404 16.6504 5.9815C16.4914 5.96579 16.5032 5.74196 16.4848 5.5875C16.2381 3.47026 17.6609 1.67174 19.6852 1.54804C21.6559 1.42762 23.2312 2.98398 23.2443 5.06392Z" fill="white"/>
<path d="M21.6866 11.5327C20.4386 11.5327 19.2978 11.5327 18.1472 11.5327C18.8272 10.0961 20.6238 10.0529 21.6866 11.5327Z" fill="white"/>
<path d="M30.4566 8.56801C28.4042 8.38737 26.5114 9.88221 26.247 11.9366C26.0592 13.3935 26.2287 14.8622 26.1737 16.0599C26.1737 17.3786 26.1737 18.4317 26.1737 19.4854C26.1737 20.9462 26.1731 20.9325 27.6299 20.8736C28.0194 20.8579 28.1895 20.7584 28.1718 20.3447C28.145 19.7033 28.1653 19.0606 28.1653 18.4179C28.1653 16.5592 28.1653 16.5592 29.9933 16.5527C30.0967 16.552 30.2001 16.554 30.3028 16.5514C32.3651 16.5023 34.1014 14.7548 34.1551 12.6749C34.2114 10.54 32.6059 8.75715 30.4566 8.56801ZM32.0254 13.2482C31.7113 14.0277 31.1255 14.4826 30.2603 14.5264C30.0031 14.5395 29.7446 14.5284 29.4874 14.5284C28.164 14.5362 28.164 14.5362 28.1653 13.1821C28.1673 11.6905 28.5848 10.9333 29.5639 10.6427C30.3558 10.4084 31.0489 10.5773 31.6066 11.1814C32.1583 11.7789 32.3337 12.4838 32.0254 13.2482Z" fill="white"/>
</svg>
