<svg width="40" height="16" viewBox="0 0 40 16" fill="none" xmlns="http://www.w3.org/2000/svg">
<g clip-path="url(#clip0_187_3656)">
<path d="M12.4593 9.81803C13.7593 9.81803 14.9496 9.79653 16.1384 9.82878C16.5867 9.84094 16.7008 9.70116 16.6797 9.27341C16.6124 7.88544 15.8986 6.83407 14.7069 6.4367C13.577 6.05991 12.3302 6.41333 11.5757 7.36887C10.8656 8.26878 10.7342 9.27715 11.2134 10.3178C11.6879 11.3481 12.5037 11.9647 13.6659 12.0012C14.8075 12.0372 15.9514 12.0101 17.0939 12.019C17.2281 12.0199 17.4142 11.9357 17.4871 12.112C17.5488 12.2611 17.4258 12.3915 17.3403 12.5065C17.1276 12.7926 16.8312 12.9142 16.4768 12.9137C14.6887 12.9123 12.9006 12.9217 11.1129 12.9081C10.4739 12.9034 10.0255 12.4818 10.0171 11.8334C9.99375 10.0536 9.99515 8.27346 10.0162 6.49374C10.0241 5.8458 10.457 5.41945 11.1073 5.41244C12.895 5.39281 14.6836 5.39374 16.4712 5.41151C17.1192 5.41805 17.5577 5.84533 17.5708 6.48672C17.596 7.73398 17.5731 8.98217 17.5843 10.2299C17.5867 10.4945 17.4946 10.5805 17.2323 10.5782C16.0341 10.5674 14.836 10.5786 13.6378 10.5665C13.1474 10.5618 12.7917 10.3112 12.4593 9.81803Z" fill="white"/>
<path d="M23.0938 12.0136C23.6248 11.6321 23.9577 11.2722 24.162 10.8154C24.2793 10.5536 24.4915 10.5714 24.715 10.5719C25.7832 10.5747 26.8514 10.5765 27.9196 10.5705C28.1833 10.5691 28.5484 10.6443 28.5549 10.2409C28.5619 9.8005 28.1781 9.87857 27.8953 9.87343C27.4166 9.86455 26.9374 9.88044 26.4587 9.86875C25.3989 9.84304 24.5949 9.07169 24.5906 8.08903C24.5864 7.09843 25.3774 6.32708 26.4452 6.3051C27.2002 6.28968 27.9561 6.31866 28.7101 6.29482C29.0893 6.28266 29.2281 6.39486 29.2141 6.78848C29.1748 7.87305 29.3403 7.67577 28.3123 7.69307C27.7233 7.70289 27.1338 7.69494 26.5443 7.69541C26.2797 7.69541 26.0342 7.77488 26.0347 8.0722C26.0347 8.36906 26.2811 8.44947 26.5447 8.44993C27.0786 8.4518 27.6129 8.44666 28.1468 8.4518C29.2155 8.46255 29.9967 9.21007 30.0009 10.2189C30.0051 11.2352 29.229 12.0052 28.1725 12.0103C26.534 12.0192 24.8959 12.0136 23.0938 12.0136Z" fill="white"/>
<path d="M16.2062 3.80751C16.2104 4.45171 15.814 4.71444 15.195 4.49238C15.0328 4.43394 15.0263 4.32081 15.0216 4.19179C15.0141 3.9903 15.0267 3.78648 15.0006 3.58733C14.9127 2.91648 14.4097 2.48873 13.7542 2.51117C13.0946 2.53408 12.6449 2.98941 12.6033 3.67849C12.5991 3.75188 12.6108 3.82715 12.5981 3.8982C12.5626 4.09829 12.7211 4.40449 12.428 4.46714C12.1307 4.53071 11.8058 4.49331 11.4963 4.46293C11.3827 4.45171 11.3911 4.29183 11.378 4.1815C11.2018 2.66918 12.2181 1.38453 13.664 1.29618C15.0716 1.21016 16.1969 2.32184 16.2062 3.80751Z" fill="white"/>
<path d="M15.0936 8.42818C14.2021 8.42818 13.3873 8.42818 12.5654 8.42818C13.0511 7.40205 14.3344 7.3712 15.0936 8.42818Z" fill="white"/>
<path d="M21.3579 6.31037C19.8919 6.18134 18.5399 7.24908 18.3511 8.71652C18.2169 9.75714 18.338 10.8062 18.2987 11.6617C18.2987 12.6037 18.2987 13.3559 18.2987 14.1085C18.2987 15.1519 18.2982 15.1421 19.3389 15.1C19.617 15.0888 19.7386 15.0178 19.7259 14.7223C19.7068 14.2642 19.7213 13.8051 19.7213 13.346C19.7213 12.0184 19.7213 12.0184 21.027 12.0137C21.1008 12.0132 21.1747 12.0146 21.2481 12.0128C22.7211 11.9777 23.9614 10.7295 23.9997 9.24384C24.0399 7.7189 22.8932 6.44547 21.3579 6.31037ZM22.4785 9.65336C22.2541 10.2101 21.8357 10.535 21.2177 10.5664C21.034 10.5757 20.8493 10.5678 20.6656 10.5678C19.7203 10.5734 19.7203 10.5734 19.7213 9.60615C19.7227 8.54074 20.0209 7.99986 20.7203 7.7923C21.2859 7.62494 21.781 7.74555 22.1793 8.17704C22.5734 8.60385 22.6987 9.10734 22.4785 9.65336Z" fill="white"/>
</g>
<defs>
<clipPath id="clip0_187_3656">
<rect width="40" height="15" fill="white" transform="translate(0 0.666504)"/>
</clipPath>
</defs>
</svg>
