<svg width="57" height="22" viewBox="0 0 57 22" fill="none" xmlns="http://www.w3.org/2000/svg">
<path d="M32.2158 10.1536C31.7871 10.6421 31.8124 11.5591 32.268 12.0196C32.7153 12.4717 33.4235 12.3786 33.7366 11.8258C33.8649 11.5992 33.9131 11.3515 33.9203 11.1401C33.9399 10.807 33.8675 10.5002 33.7311 10.2799C33.3926 9.73435 32.6391 9.67149 32.2158 10.1536Z" fill="white"/>
<path d="M39.2764 5.00702C39.2764 4.58631 39.21 4.17627 39.0618 3.78036C38.5483 2.40808 37.2769 1.54186 35.7694 1.54186C29.5424 1.54129 34.0568 1.54158 27.8295 1.54158C21.6169 1.54158 28.034 1.54158 21.8214 1.54273C21.6487 1.54273 21.4742 1.54446 21.3035 1.56724C19.5342 1.80369 18.2815 3.21922 18.2798 4.99549C18.2761 9.05033 18.2789 13.1052 18.2781 17.16C18.2781 17.4593 18.3092 17.754 18.3854 18.0432C18.5001 18.4775 18.6893 18.8702 18.9384 19.2105C19.7628 19.2105 21.089 19.2105 21.8958 19.2105C21.0045 19.2042 20.3395 18.8132 19.9142 18.0251C19.7447 17.7111 19.6881 17.3679 19.6887 17.0109C19.6922 15.2817 19.6902 13.5521 19.6902 11.8229C19.6902 9.58436 19.6884 7.34558 19.691 5.10708C19.6922 4.05228 20.3799 3.20855 21.4108 2.98594C21.5662 2.95249 21.7239 2.94154 21.8831 2.94154C28.3691 2.94211 22.2254 2.9424 28.7116 2.93952C28.8232 2.93952 28.8544 2.96576 28.8544 3.08024C28.8515 8.40759 28.8509 13.7352 28.8555 19.0626C28.8555 19.2042 28.8027 19.2125 28.6894 19.2125C26.649 19.2111 24.6086 19.2108 22.5685 19.2105C22.5077 19.2105 22.3064 19.2105 21.9186 19.2108C21.9142 19.2108 21.9099 19.2105 21.9053 19.2105C20.9162 19.2105 19.9272 19.2105 18.9381 19.2105C19.5783 20.0842 20.6155 20.6122 21.8093 20.6122C34.2443 20.6128 23.3081 20.6125 35.7431 20.6131C35.9407 20.6131 36.1379 20.6056 36.3323 20.5747C38.0647 20.2988 39.2735 18.895 39.2752 17.1424C39.2795 13.0974 39.2772 9.05206 39.2764 5.00702ZM35.2578 12.5296C34.6762 13.6081 33.466 13.7531 32.6459 13.4224C32.3434 13.3004 32.1056 13.0985 31.9103 12.8206C31.9103 12.8719 31.9103 12.9229 31.9103 12.9743C31.9103 13.7378 31.908 14.5017 31.9129 15.2652C31.9138 15.3745 31.8847 15.4008 31.7774 15.3993C31.3068 15.393 30.8359 15.3938 30.365 15.399C30.2684 15.4002 30.2474 15.3708 30.2474 15.2785C30.25 13.117 30.2503 10.9558 30.2468 8.79427C30.2465 8.68787 30.2826 8.67028 30.3777 8.67143C30.8051 8.67604 31.2327 8.67633 31.6603 8.67143C31.7538 8.67028 31.7823 8.6945 31.7797 8.78966C31.7728 9.02928 31.7774 9.26919 31.7774 9.51746C31.7956 9.50824 31.8117 9.50535 31.8166 9.49641C32.1713 8.86376 32.7457 8.60136 33.4363 8.56734C34.3201 8.52379 35.0041 8.95085 35.3723 9.78563C35.7815 10.713 35.7365 11.6418 35.2578 12.5296Z" fill="white"/>
<path d="M26.0672 9.50867C26.0525 9.48964 26.0381 9.4709 26.0248 9.451C25.6044 8.82613 25.0251 8.51442 24.2658 8.56546C23.4731 8.61881 22.865 8.96916 22.5455 9.71485C22.205 10.5098 22.1799 11.3322 22.478 12.1445C23.0749 13.7708 25.2191 13.8383 25.9948 12.6944C26.004 12.6809 26.0144 12.6598 26.0378 12.6716C26.0378 12.8297 26.0493 12.9883 26.0357 13.1445C25.9833 13.7481 25.6349 14.1281 25.0398 14.2481C24.7102 14.3144 24.3806 14.2988 24.0507 14.257C23.671 14.2091 23.3189 14.0728 22.9581 13.898C22.9319 14.3008 22.9114 14.6844 22.8791 15.067C22.8702 15.1723 22.895 15.2172 22.9988 15.2487C23.9599 15.5396 24.9334 15.595 25.9155 15.3897C26.7595 15.2132 27.306 14.7126 27.4997 13.8568C27.5614 13.5843 27.5943 13.3077 27.5949 13.0286C27.5972 11.6163 27.5957 10.2042 27.5989 8.79182C27.5992 8.70041 27.5787 8.66985 27.4818 8.671C27.0591 8.67648 26.6364 8.67619 26.2137 8.671C26.1191 8.66985 26.0923 8.69638 26.0949 8.79038C26.1015 9.03173 26.0972 9.27309 26.0972 9.52222C26.075 9.51242 26.0695 9.51184 26.0672 9.50867ZM25.7575 11.7599C25.5242 12.0808 25.2064 12.2403 24.8105 12.1817C24.3988 12.1209 24.1678 11.8426 24.0562 11.4605C23.9639 11.1442 23.9749 10.8253 24.0758 10.511C24.2064 10.1038 24.4942 9.85614 24.8616 9.83307C25.3134 9.80481 25.6799 10.0072 25.8656 10.3893C25.9553 10.5739 25.996 10.7694 25.9911 10.9677C25.9919 11.2596 25.9268 11.5272 25.7575 11.7599Z" fill="white"/>
</svg>
