<svg width="40" height="16" viewBox="0 0 40 16" fill="none" xmlns="http://www.w3.org/2000/svg">
<path d="M22.4558 7.44295C22.1495 7.79186 22.1676 8.44684 22.493 8.77577C22.8125 9.09873 23.3183 9.0322 23.542 8.63736C23.6337 8.47547 23.6681 8.29854 23.6732 8.14757C23.6872 7.90967 23.6355 7.69052 23.5381 7.53316C23.2963 7.14347 22.7581 7.09857 22.4558 7.44295Z" fill="white"/>
<path d="M27.4989 3.76687C27.4989 3.46637 27.4516 3.17348 27.3457 2.89069C26.9789 1.91049 26.0708 1.29176 24.994 1.29176C20.5461 1.29135 23.7707 1.29156 19.3226 1.29156C14.8851 1.29156 19.4687 1.29156 15.0311 1.29238C14.9077 1.29238 14.7831 1.29362 14.6612 1.30989C13.3974 1.47878 12.5027 2.48987 12.5014 3.75863C12.4987 6.65495 12.5008 9.55127 12.5002 12.4476C12.5002 12.6614 12.5224 12.8719 12.5768 13.0785C12.6588 13.3886 12.7939 13.6692 12.9718 13.9122C13.5607 13.9122 14.508 13.9122 15.0842 13.9122C14.4476 13.9077 13.9726 13.6284 13.6688 13.0655C13.5477 12.8412 13.5074 12.5961 13.5078 12.3411C13.5102 11.1059 13.5088 9.87052 13.5088 8.63533C13.5088 7.0364 13.5076 5.43727 13.5094 3.83834C13.5102 3.08491 14.0015 2.48225 14.7378 2.32325C14.8488 2.29935 14.9615 2.29153 15.0752 2.29153C19.708 2.29194 15.3197 2.29215 19.9527 2.29009C20.0324 2.29009 20.0547 2.30883 20.0547 2.3906C20.0526 6.19585 20.0522 10.0013 20.0555 13.8066C20.0555 13.9077 20.0178 13.9137 19.9368 13.9137C18.4794 13.9126 17.022 13.9124 15.5648 13.9122C15.5213 13.9122 15.3775 13.9122 15.1005 13.9124C15.0974 13.9124 15.0943 13.9122 15.091 13.9122C14.3846 13.9122 13.6781 13.9122 12.9716 13.9122C13.4289 14.5363 14.1698 14.9134 15.0225 14.9134C23.9046 14.9138 16.0931 14.9136 24.9752 14.914C25.1163 14.914 25.2572 14.9087 25.396 14.8867C26.6335 14.6895 27.4969 13.6869 27.4981 12.435C27.5012 9.54571 27.4996 6.65619 27.4989 3.76687ZM24.6286 9.14016C24.2131 9.91047 23.3487 10.0141 22.7629 9.77783C22.5469 9.69071 22.3769 9.54653 22.2375 9.34798C22.2375 9.38464 22.2375 9.42109 22.2375 9.45776C22.2375 10.0032 22.2359 10.5488 22.2394 11.0942C22.24 11.1722 22.2192 11.191 22.1426 11.1899C21.8064 11.1854 21.4701 11.186 21.1337 11.1897C21.0647 11.1906 21.0497 11.1696 21.0497 11.1036C21.0515 9.55971 21.0517 8.01598 21.0493 6.47205C21.0491 6.39605 21.0748 6.38349 21.1428 6.38431C21.448 6.3876 21.7535 6.38781 22.0589 6.38431C22.1257 6.38349 22.1461 6.40079 22.1442 6.46876C22.1393 6.63991 22.1426 6.81128 22.1426 6.98862C22.1555 6.98203 22.1671 6.97997 22.1706 6.97358C22.4239 6.52169 22.8342 6.33426 23.3275 6.30995C23.9588 6.27885 24.4473 6.58389 24.7104 7.18017C25.0026 7.84256 24.9705 8.50598 24.6286 9.14016Z" fill="white"/>
<path d="M18.0639 6.98227C18.0534 6.96867 18.0431 6.95529 18.0336 6.94107C17.7333 6.49474 17.3195 6.27209 16.7772 6.30855C16.211 6.34665 15.7766 6.5969 15.5484 7.12954C15.3051 7.69739 15.2872 8.28481 15.5002 8.86502C15.9265 10.0267 17.4581 10.0749 18.0122 9.2578C18.0187 9.24812 18.0262 9.23309 18.0428 9.24153C18.0428 9.3544 18.0511 9.46768 18.0414 9.57932C18.0039 10.0104 17.7551 10.2819 17.33 10.3676C17.0946 10.4149 16.8592 10.4038 16.6235 10.3739C16.3523 10.3398 16.1008 10.2423 15.8431 10.1175C15.8244 10.4052 15.8097 10.6792 15.7867 10.9525C15.7803 11.0277 15.798 11.0598 15.8722 11.0823C16.5586 11.2901 17.254 11.3296 17.9555 11.183C18.5584 11.0569 18.9487 10.6994 19.0871 10.0881C19.1312 9.89342 19.1547 9.6959 19.1551 9.49652C19.1567 8.48769 19.1557 7.47906 19.158 6.47023C19.1582 6.40494 19.1435 6.38311 19.0743 6.38393C18.7724 6.38784 18.4704 6.38764 18.1685 6.38393C18.1009 6.38311 18.0818 6.40206 18.0836 6.4692C18.0884 6.6416 18.0853 6.81399 18.0853 6.99195C18.0694 6.98495 18.0655 6.98453 18.0639 6.98227ZM17.8426 8.59026C17.676 8.8195 17.449 8.9334 17.1662 8.89159C16.8721 8.84813 16.7071 8.64937 16.6274 8.37647C16.5615 8.15052 16.5694 7.92272 16.6414 7.69821C16.7347 7.40739 16.9403 7.23046 17.2027 7.21398C17.5255 7.1938 17.7872 7.33839 17.9199 7.61129C17.9839 7.74311 18.013 7.88276 18.0095 8.02447C18.0101 8.23291 17.9635 8.42404 17.8426 8.59026Z" fill="white"/>
</svg>
